<?xml version="1.0" encoding="utf-8"?>
<!-- Generator: Adobe Illustrator 25.4.1, SVG Export Plug-In . SVG Version: 6.00 Build 0)  -->
<svg version="1.1" id="Layer_1" xmlns="http://www.w3.org/2000/svg" xmlns:xlink="http://www.w3.org/1999/xlink" x="0px" y="0px"
	 viewBox="0 0 200 200" style="enable-background:new 0 0 200 200;" xml:space="preserve">
<g id="INSTAGRAM">
	<defs>
		<path id="SHAPE_1_" d="M146.8,64.6c-1.1-2.8-2.4-4.8-4.5-6.9c-2.1-2.1-4.1-3.4-6.9-4.5c-2.1-0.8-5.3-1.8-11.1-2.1
			c-6.3-0.3-8.2-0.3-24.2-0.3c-16,0-17.9,0.1-24.2,0.3c-5.9,0.3-9,1.2-11.1,2.1c-2.8,1.1-4.8,2.4-6.9,4.5c-2.1,2.1-3.4,4.1-4.5,6.9
			c-0.8,2.1-1.8,5.3-2.1,11.1c-0.3,6.3-0.4,8.2-0.4,24.2c0,16,0.1,17.9,0.4,24.2c0.3,5.9,1.2,9,2.1,11.1c1.1,2.8,2.4,4.8,4.5,6.9
			c2.1,2.1,4.1,3.4,6.9,4.5c2.1,0.8,5.3,1.8,11.1,2.1c6.3,0.3,8.2,0.4,24.2,0.4c16,0,17.9-0.1,24.2-0.4c5.8-0.3,9-1.2,11.1-2.1
			c2.8-1.1,4.8-2.4,6.9-4.5c2.1-2.1,3.4-4.1,4.5-6.9c0.8-2.1,1.8-5.3,2.1-11.1c0.3-6.3,0.3-8.2,0.3-24.2c0-16-0.1-17.9-0.3-24.2
			C148.6,69.9,147.6,66.7,146.8,64.6z M100,130.8c-17,0-30.8-13.8-30.8-30.8S83,69.2,100,69.2c17,0,30.8,13.8,30.8,30.8
			S117,130.8,100,130.8z M132,75.2c-4,0-7.2-3.2-7.2-7.2c0-4,3.2-7.2,7.2-7.2c4,0,7.2,3.2,7.2,7.2C139.2,71.9,136,75.2,132,75.2z
			 M120,100c0,11-9,20-20,20c-11,0-20-9-20-20c0-11,9-20,20-20C111,80,120,89,120,100z M100,0C44.8,0,0,44.8,0,100
			c0,55.2,44.8,100,100,100c55.2,0,100-44.8,100-100C200,44.8,155.2,0,100,0z M159.6,124.7c-0.3,6.4-1.3,10.7-2.8,14.6
			c-1.5,3.9-3.6,7.3-6.9,10.6c-3.3,3.3-6.7,5.4-10.6,6.9c-3.8,1.5-8.2,2.5-14.6,2.8c-6.4,0.3-8.4,0.4-24.7,0.4
			c-16.3,0-18.3-0.1-24.7-0.4c-6.4-0.3-10.7-1.3-14.6-2.8c-3.9-1.5-7.3-3.6-10.6-6.9c-3.3-3.3-5.4-6.7-6.9-10.6
			c-1.5-3.8-2.5-8.2-2.8-14.6c-0.3-6.4-0.4-8.4-0.4-24.7c0-16.3,0.1-18.3,0.4-24.7c0.3-6.4,1.3-10.7,2.8-14.6
			c1.5-3.9,3.6-7.3,6.9-10.6c3.3-3.3,6.7-5.4,10.6-6.9c3.8-1.5,8.2-2.5,14.6-2.8c6.4-0.3,8.4-0.4,24.7-0.4c16.3,0,18.3,0.1,24.7,0.4
			c6.4,0.3,10.7,1.3,14.6,2.8c3.9,1.5,7.3,3.6,10.6,6.9c3.3,3.3,5.4,6.7,6.9,10.6c1.5,3.8,2.5,8.2,2.8,14.6
			c0.3,6.4,0.4,8.4,0.4,24.7C160,116.3,159.9,118.3,159.6,124.7z"/>
	</defs>
	<clipPath id="SHAPE_00000128454150065093225120000016351209197583974017_">
		<use xlink:href="#SHAPE_1_"  style="overflow:visible;"/>
	</clipPath>
	<g style="clip-path:url(#SHAPE_00000128454150065093225120000016351209197583974017_);">
		
			<image style="overflow:visible;" width="834" height="834" id="BACK_1_" xlink:href="C5E2743C.png"  transform="matrix(0.24 0 0 0.24 0 0)">
		</image>
	</g>
</g>
</svg>
