<?xml version="1.0" encoding="utf-8"?>
<!-- Generator: Adobe Illustrator 26.0.1, SVG Export Plug-In . SVG Version: 6.00 Build 0)  -->
<svg version="1.1" id="Layer_1" xmlns="http://www.w3.org/2000/svg" xmlns:xlink="http://www.w3.org/1999/xlink" x="0px" y="0px"
	 viewBox="0 0 200 200" style="enable-background:new 0 0 200 200;" xml:space="preserve">
<style type="text/css">
	.st0{fill:url(#SVGID_1_);}
</style>
<radialGradient id="SVGID_1_" cx="-15.4042" cy="146.8747" r="198.9615" fx="-73.6016" fy="184.3708" gradientTransform="matrix(6.123234e-17 -1 1.0871 6.656850e-17 -175.0785 131.4705)" gradientUnits="userSpaceOnUse">
	<stop offset="0" style="stop-color:#FFDD55"/>
	<stop  offset="0.1" style="stop-color:#FFDD55"/>
	<stop  offset="0.5" style="stop-color:#FF543E"/>
	<stop  offset="1" style="stop-color:#C837AB"/>
</radialGradient>
<circle class="st0" cx="100" cy="100" r="100"/>
<radialGradient id="SVGID_00000150085617196012039030000017256831259819302534_" cx="-0.6417" cy="-4.288" r="170.9756" gradientTransform="matrix(1 0 0 0.7991 0 -0.8616)" gradientUnits="userSpaceOnUse">
	<stop  offset="0" style="stop-color:#3771C8"/>
	<stop  offset="0.128" style="stop-color:#3771C8"/>
	<stop  offset="1" style="stop-color:#6600FF;stop-opacity:0"/>
</radialGradient>
<circle style="fill:url(#SVGID_00000150085617196012039030000017256831259819302534_);" cx="100" cy="100" r="100"/>
<path fill="#fff" d="M100,40c-16.3,0-18.3,0.1-24.7,0.4c-6.4,0.3-10.7,1.3-14.6,2.8c-3.9,1.5-7.3,3.6-10.6,6.9
	c-3.3,3.3-5.4,6.7-6.9,10.6c-1.5,3.8-2.5,8.2-2.8,14.6C40.1,81.7,40,83.7,40,100s0.1,18.3,0.4,24.7c0.3,6.4,1.3,10.7,2.8,14.6
	c1.5,3.9,3.6,7.3,6.9,10.6c3.3,3.3,6.7,5.4,10.6,6.9c3.8,1.5,8.2,2.5,14.6,2.8c6.4,0.3,8.4,0.4,24.7,0.4c16.3,0,18.3-0.1,24.7-0.4
	c6.4-0.3,10.8-1.3,14.6-2.8c3.9-1.5,7.3-3.6,10.6-6.9c3.3-3.3,5.4-6.7,6.9-10.6c1.5-3.8,2.5-8.2,2.8-14.6c0.3-6.4,0.4-8.4,0.4-24.7
	s-0.1-18.3-0.4-24.7c-0.3-6.4-1.3-10.7-2.8-14.6c-1.5-3.9-3.6-7.3-6.9-10.6c-3.3-3.3-6.7-5.4-10.6-6.9c-3.8-1.5-8.2-2.5-14.6-2.8
	C118.3,40.1,116.3,40,100,40L100,40z M94.6,50.8c1.6,0,3.4,0,5.4,0c16,0,17.9,0.1,24.2,0.3c5.9,0.3,9,1.2,11.1,2.1
	c2.8,1.1,4.8,2.4,6.9,4.5c2.1,2.1,3.4,4.1,4.5,6.9c0.8,2.1,1.8,5.3,2.1,11.1c0.3,6.3,0.4,8.2,0.4,24.2s-0.1,17.9-0.4,24.2
	c-0.3,5.9-1.2,9-2.1,11.1c-1.1,2.8-2.4,4.8-4.5,6.9c-2.1,2.1-4.1,3.4-6.9,4.5c-2.1,0.8-5.3,1.8-11.1,2.1c-6.3,0.3-8.2,0.3-24.2,0.3
	c-16,0-17.9-0.1-24.2-0.3c-5.9-0.3-9-1.2-11.1-2.1c-2.8-1.1-4.8-2.4-6.9-4.5c-2.1-2.1-3.4-4.1-4.5-6.9c-0.8-2.1-1.8-5.3-2.1-11.1
	c-0.3-6.3-0.3-8.2-0.3-24.2s0.1-17.9,0.3-24.2c0.3-5.9,1.2-9,2.1-11.1c1.1-2.8,2.4-4.8,4.5-6.9c2.1-2.1,4.1-3.4,6.9-4.5
	c2.1-0.8,5.3-1.8,11.1-2.1C81.3,50.9,83.4,50.8,94.6,50.8L94.6,50.8z M132,60.8c-4,0-7.2,3.2-7.2,7.2c0,4,3.2,7.2,7.2,7.2
	c4,0,7.2-3.2,7.2-7.2S136,60.8,132,60.8L132,60.8z M100,69.2C83,69.2,69.2,83,69.2,100S83,130.8,100,130.8s30.8-13.8,30.8-30.8
	S117,69.2,100,69.2L100,69.2z M100,80c11,0,20,9,20,20c0,11-9,20-20,20c-11,0-20-9-20-20C80,89,89,80,100,80z"/>
</svg>
