<?xml version="1.0" encoding="utf-8"?>
<!-- Generator: Adobe Illustrator 26.0.1, SVG Export Plug-In . SVG Version: 6.00 Build 0)  -->
<svg version="1.1" id="Layer_1" xmlns="http://www.w3.org/2000/svg" xmlns:xlink="http://www.w3.org/1999/xlink" x="0px" y="0px"
	 viewBox="0 0 200 200" style="enable-background:new 0 0 200 200;" xml:space="preserve">
<style type="text/css">
	.st0{fill-rule:evenodd;clip-rule:evenodd;fill:#0877B3;}
</style>
<path class="st0" d="M199.3,99.6c0-55-44.6-99.6-99.6-99.6C44.6,0,0,44.6,0,99.6s44.6,99.6,99.6,99.6
	C154.6,199.3,199.3,154.6,199.3,99.6z M72.3,149.5H51.5v-67h20.8V149.5z M61.9,73.3c-6.7,0-12-5.4-12-12s5.4-12,12-12
	c6.7,0,12,5.4,12,12C73.9,67.8,68.5,73.3,61.9,73.3z M150.2,149.5h-20.8V117c0-7.7-0.1-17.8-10.8-17.8c-10.9,0-12.5,8.4-12.5,17.2
	v33.1H85.3v-67h20v9.1h0.2c2.8-5.3,9.6-10.8,19.6-10.8c21,0,25,13.9,25,31.9V149.5z"/>
</svg>
