<?xml version="1.0" encoding="utf-8"?>
<!-- Generator: Adobe Illustrator 25.4.1, SVG Export Plug-In . SVG Version: 6.00 Build 0)  -->
<svg version="1.1" id="Layer_1" xmlns="http://www.w3.org/2000/svg" xmlns:xlink="http://www.w3.org/1999/xlink" x="0px" y="0px"
	 viewBox="0 0 200 200" style="enable-background:new 0 0 200 200;" xml:space="preserve">
<style type="text/css">
	.st0{fill-rule:evenodd;clip-rule:evenodd;fill:#0877B3;}
</style>
<path id="LINKEDIN_4_" class="st0" d="M100,0C44.8,0,0,44.8,0,100c0,55.2,44.8,100,100,100c55.2,0,100-44.8,100-100
	C200,44.8,155.2,0,100,0z M76.3,142.3H58.5V85h17.8V142.3z M67.4,77.2c-5.7,0-10.3-4.6-10.3-10.3c0-5.7,4.6-10.3,10.3-10.3
	c5.7,0,10.3,4.6,10.3,10.3C77.7,72.5,73.1,77.2,67.4,77.2z M142.9,142.3h-17.8v-27.8c0-6.6-0.1-15.2-9.2-15.2
	c-9.3,0-10.7,7.2-10.7,14.7v28.3H87.4V85h17.1v7.8h0.2c2.4-4.5,8.2-9.2,16.8-9.2c18,0,21.4,11.9,21.4,27.3V142.3z"/>
</svg>
