<?xml version="1.0" encoding="utf-8"?>
<!-- Generator: Adobe Illustrator 25.4.1, SVG Export Plug-In . SVG Version: 6.00 Build 0)  -->
<svg version="1.1" id="Layer_1" xmlns="http://www.w3.org/2000/svg" xmlns:xlink="http://www.w3.org/1999/xlink" x="0px" y="0px"
	 viewBox="0 0 200 200" style="enable-background:new 0 0 200 200;" xml:space="preserve">
<style type="text/css">
	.st0{fill-rule:evenodd;clip-rule:evenodd;fill:#CB2128;}
</style>
<path id="PINTEREST_4_" class="st0" d="M100,0C44.8,0,0,44.8,0,100c0,55.2,44.8,100,100,100c55.2,0,100-44.8,100-100
	C200,44.8,155.2,0,100,0z M156.2,121.9c-12.2,31.6-46,44.2-72.6,35.7c2.6-4.4,5-8.9,6.2-13.9c1.2-4.9,2.5-9.9,3.8-15
	c3.7,4.9,8.7,7.1,14.5,7.2c5.7,0.1,11-1.4,15.8-4.6c7.3-4.8,11.7-11.8,14.2-20c2.6-8.8,3.9-17.9,0.6-26.8
	c-5.1-13.9-15.7-21.3-30.1-23.4c-9.8-1.4-19.4-0.1-28.2,4.7c-13.9,7.6-21.2,19.3-20.4,35.4c0.3,5.2,1.8,10,5,14.2
	c1.8,2.4,4.1,4.2,6.9,5.3c1.7,0.7,2.7,0.2,3.2-1.5c0.5-1.6,0.8-3.2,1.2-4.8c0.2-0.9,0.2-1.8-0.5-2.6c-6.1-7.3-5.3-15.5-2.1-23.5
	C78.2,77.7,86.6,72.2,97.8,71c4.6-0.5,9.3-0.2,13.7,1.5c8.3,3,13.3,9,14.2,17.7c1,8.6-0.4,17-4.3,24.7c-2.5,4.9-5.8,8.9-11.5,10.3
	c-8,2-14.5-4.4-12.1-12.2c1.7-5.6,3.7-11.1,4.7-16.8c0.3-1.4,0.4-2.8,0.3-4.2c-0.3-6.9-6.7-10.4-12.7-6.9c-3.8,2.2-5.6,5.9-6.5,10.1
	c-0.8,4-0.5,7.9,0.9,11.8c0.5,1.4,0.5,2.6,0.2,4c-2.5,10.7-5.1,21.4-7.5,32.1c-0.9,3.8-0.8,7.8-0.7,11.9
	c-26.7-11.3-43.8-43.3-32.2-75.2c11.4-31.4,45.6-47.2,77.1-35.5C152.9,55.9,168.3,90.7,156.2,121.9z"/>
</svg>
