<?xml version="1.0" encoding="utf-8"?>
<!-- Generator: Adobe Illustrator 25.4.1, SVG Export Plug-In . SVG Version: 6.00 Build 0)  -->
<svg version="1.1" id="Layer_1" xmlns="http://www.w3.org/2000/svg" xmlns:xlink="http://www.w3.org/1999/xlink" x="0px" y="0px"
	 viewBox="0 0 200 200" style="enable-background:new 0 0 200 200;" xml:space="preserve">
<style type="text/css">
	.st0{fill-rule:evenodd;clip-rule:evenodd;fill:#439CD6;}
</style>
<path id="TWITTER_4_" class="st0" d="M100,0C44.8,0,0,44.8,0,100c0,55.2,44.8,100,100,100c55.2,0,100-44.8,100-100
	C200,44.8,155.2,0,100,0z M146.7,76c0,1,0.1,2.1,0.1,3.1c0,31.9-24.2,68.6-68.6,68.6c-13.6,0-26.3-4-37-10.8
	c1.9,0.2,3.8,0.3,5.8,0.3c11.3,0,21.7-3.9,29.9-10.3c-10.6-0.2-19.5-7.2-22.5-16.7c1.5,0.3,3,0.4,4.5,0.4c2.2,0,4.3-0.3,6.4-0.8
	c-11-2.2-19.3-12-19.3-23.6c0-0.1,0-0.2,0-0.3c3.2,1.8,7,2.9,10.9,3c-6.5-4.3-10.7-11.7-10.7-20.1c0-4.4,1.2-8.6,3.3-12.1
	c11.9,14.6,29.7,24.2,49.7,25.2c-0.4-1.8-0.6-3.6-0.6-5.5c0-13.3,10.8-24.1,24.1-24.1c6.9,0,13.2,2.9,17.6,7.6
	c5.5-1.1,10.6-3.1,15.3-5.9c-1.8,5.6-5.6,10.4-10.6,13.3c4.9-0.6,9.5-1.9,13.8-3.8C155.5,68.4,151.4,72.6,146.7,76z"/>
</svg>
