<?xml version="1.0" encoding="utf-8"?>
<!-- Generator: Adobe Illustrator 25.2.3, SVG Export Plug-In . SVG Version: 6.00 Build 0)  -->
<svg version="1.1" id="Layer_1" xmlns="http://www.w3.org/2000/svg" xmlns:xlink="http://www.w3.org/1999/xlink" x="0px" y="0px"
	 viewBox="0 0 964.27 723.51" style="enable-background:new 0 0 964.27 723.51;" xml:space="preserve">
<style type="text/css">
	.st0{fill:#E9E9DF;}
	.st1{fill:#EBA87F;}
	.st2{fill:#416080;}
	.st3{opacity:0.2;fill:#416080;}
	.st4{opacity:0.3;fill:#416080;}
	.st5{fill:#273A4D;}
	.st6{fill:#FFC393;}
	.st7{fill:#C26939;}
	.st8{fill:#F1DEC1;}
	.st9{fill:#9C836F;}
	.st10{fill:#844B34;}
	.st11{fill:#2C3352;}
	.st12{fill:#E0875E;}
	.st13{fill:#82172A;}
	.st14{fill:#FFFFFF;}
	.st15{fill:#F95B6C;}
	.st16{opacity:0.4;fill:#C26939;}
	.st17{fill:#2DC5D3;}
	.st18{opacity:0.3;fill:#2DC5D3;}
	.st19{fill:#EDB856;}
	.st20{fill:#F2A883;}
	.st21{fill:#F0CAB2;}
	.st22{fill:url(#SVGID_1_);}
	.st23{fill:url(#SVGID_2_);}
	.st24{fill:url(#SVGID_3_);}
	.st25{fill:#D6753F;}
	.st26{fill:#D6BE9E;}
	.st27{fill:#FFF0DD;}
	.st28{opacity:0.3;fill:#D6BE9E;}
	.st29{fill:#FFF7EB;}
	.st30{fill:#E55757;}
	.st31{fill:#ED8869;}
	.st32{fill:#EE7474;}
	.st33{fill:#56A3BA;}
	.st34{opacity:0.3;fill:#56A3BA;}
	.st35{fill:#498B9E;}
	.st36{fill:#C75C52;}
	.st37{opacity:0.3;fill:#C75C52;}
	.st38{fill:#75BCD1;}
	.st39{fill:#D1DCE3;}
	.st40{fill:#E0BC79;}
	.st41{fill:#FFDC9E;}
	.st42{fill:#96492C;}
	.st43{fill:#DBA546;}
	.st44{opacity:0.4;fill:#DBA546;}
	.st45{fill:#64413F;}
	.st46{fill:#95C738;}
	.st47{opacity:0.4;fill:#95C738;}
	.st48{fill:#8C802A;}
	.st49{fill:#D9593D;}
	.st50{opacity:0.4;fill:#D9593D;}
	.st51{fill:#CDE2E7;}
	.st52{fill:#F2FFFE;}
	.st53{fill:#86B6D6;}
	.st54{fill:#B2AA42;}
	.st55{fill:#FFE563;}
	.st56{opacity:0.5;fill:#F1DEC1;}
	.st57{opacity:0.3;fill:#96492C;}
	.st58{opacity:0.3;fill:#E0875E;}
	.st59{fill:#C46437;}
	.st60{fill:#3DD9AD;}
	.st61{opacity:0.2;fill:#CFA28B;}
	.st62{fill:url(#SVGID_4_);}
	.st63{fill:url(#SVGID_5_);}
	.st64{fill:url(#SVGID_6_);}
	.st65{fill:url(#SVGID_7_);}
	.st66{fill:url(#SVGID_8_);}
	.st67{fill:url(#SVGID_9_);}
	.st68{fill:url(#SVGID_10_);}
	.st69{fill:url(#SVGID_11_);}
	.st70{fill:url(#SVGID_12_);}
	.st71{fill:url(#SVGID_13_);}
	.st72{fill:url(#SVGID_14_);}
	.st73{opacity:0.3;fill:#CFA28B;}
	.st74{fill:#CFA28B;}
	.st75{fill:#CC4468;}
	.st76{opacity:0.5;fill:#CFA28B;}
	.st77{fill:#DAEEFD;}
	.st78{opacity:0.2;fill:#B33295;}
	.st79{opacity:0.5;fill:#FAA66C;}
	.st80{opacity:0.5;fill:#ED8869;}
	.st81{fill:#FAA66C;}
	.st82{fill:#FFB655;}
	.st83{fill:#D93D3D;}
	.st84{opacity:0.6;fill:#D93D3D;}
	.st85{opacity:0.3;fill:#F95B6C;}
	.st86{opacity:0.6;fill:#F95B6C;}
	.st87{fill:#F4DDCB;}
	.st88{opacity:0.1;fill:#8C7C76;}
	.st89{fill:#948975;}
	.st90{fill:#4E6900;}
	.st91{fill:#DE4051;}
	.st92{opacity:0.4;fill:#CC4468;}
	.st93{fill:#7B9926;}
	.st94{opacity:0.2;fill:#7B9926;}
	.st95{fill:#AEC038;}
	.st96{fill:#F78D46;}
	.st97{opacity:0.2;fill:#CC4468;}
	.st98{fill:#6E321A;}
</style>

<g>
	<g>
		<path class="st1" d="M560.28,337.43c-1.96-0.78-4.24-1.94-6.77-3.41c-7.97-4.62-18.31-12.29-28.01-20.54
			c-3.91-3.32-7.7-6.73-11.21-10.07c0,0-3.91-11.91-7.96-25.55c-5.74-19.39-11.73-42.28-7.02-39.36
			c5.09,3.16,26.24,24.74,41.9,41.74c8.97,9.74,16.13,17.97,17.43,20.37C562.21,307.22,570.93,341.67,560.28,337.43z"/>
		<path class="st2" d="M525.5,313.48c-3.91-3.32-7.7-6.73-11.21-10.07c0,0-27.42-73.45-19.41-68.48
			c5.09,3.16,30.67,28.31,46.33,45.31C531.76,285.79,521.13,299.94,525.5,313.48z"/>
		<path class="st3" d="M553.52,334.02c-7.97-4.62-18.31-12.29-28.01-20.54c-3.91-3.32-7.7-6.73-11.21-10.07
			c0,0-3.91-11.91-7.96-25.55l0-0.49c15.43,25.6,39.6,40.19,39.6,40.19S550.34,326.86,553.52,334.02z"/>
		<path class="st1" d="M436.35,197.28l-0.68,30.84c0,0,29.16,32.33,28.85,31.06c-0.31-1.27,8.58-32.21,8.58-32.21l-6.79-31.53
			L436.35,197.28z"/>
		<path class="st2" d="M427.72,476.36c0,0,1.51-52.6-1.4-89.19c-0.99-12.49-5.71-27.85-11-43.71
			c-10.18-30.54-22.47-62.92-14.28-80.18c17.26-36.37,35.7-40.1,35.7-40.1l15.24,7.8l11.19,20.81l0.23-23.63l9.68-7.62
			c0,0,21.53,10.85,28.68,21.31c7.14,10.46,9.34,36.81,11.57,46.71c0.75,3.27,2.03,7.02,3.58,11.53
			c3.15,9.18,7.38,21.52,10.24,39.46c4.27,26.76,17.41,131.6,17.41,131.6L427.72,476.36z"/>
		<path class="st3" d="M427.72,476.36c0,0,1.42-47.88-1.08-84.84c-0.1-1.48-0.21-2.94-0.32-4.34c-0.08-0.95-0.17-1.92-0.29-2.9
			c-0.41-3.47-1.08-7.14-1.94-10.95c-1.14-5.04-2.6-10.34-4.26-15.8c-1.4-4.6-2.94-9.3-4.52-14.06l0.08-45.1
			c0,0,37.45,29.66,71.78,25.04c29.96-4.02,29.73-14.88,29.72-23.3c3.15,9.18,7.38,21.52,10.24,39.46c0.05,0.3,0.1,0.61,0.15,0.94
			c0.56,3.62,1.27,8.59,2.08,14.51c0.63,4.64,1.32,9.85,2.04,15.46c0.27,2.04,0.54,4.13,0.82,6.26
			c5.56,43.39,12.33,94.42,12.33,94.42L427.72,476.36z"/>
		<path class="st4" d="M529.37,355.02l-105.28,18.3c-1.14-5.04-2.6-10.34-4.26-15.8l107.46-17.02
			C527.86,344.13,528.56,349.1,529.37,355.02z"/>
		<path class="st4" d="M532.23,376.74l-105.59,14.78c-0.1-1.48-0.21-2.94-0.32-4.34c-0.08-0.95-0.17-1.92-0.29-2.9l105.38-13.79
			C531.68,372.52,531.96,374.61,532.23,376.74z"/>
		<polygon class="st5" points="451.97,230.98 439.77,245.13 426.34,225.96 432.22,219.8 		"/>
		<polygon class="st5" points="463.4,228.16 475.24,240.47 485.33,224.88 473.99,218.19 		"/>
		<path class="st6" d="M515.05,247.7c2.63-0.12,7.74,15.62,7.74,15.62s-5.28,2.75-7.58,2.1c-2.29-0.65-9.52-13.28-9.52-13.28
			L515.05,247.7z"/>
		<path class="st7" d="M496.1,259.06c0,0-7.89,7.28-17.78,10.03c-9.88,2.76-28.17,7.42-34.27-2.83c-2.12-3.55-3.44-7.36-3.45-10.84
			c-0.03-6.56,4.58-11.97,17.31-12.37c13.86-0.44,26.41,4.52,32.49,7.41c2.47,1.18,3.88,2.01,3.88,2.01L496.1,259.06z"/>
		<path class="st6" d="M498.78,257.73c1.39,2.96,4.74,2.05,7.13,4.84c2.39,2.79,7.82,3.3,9.3,2.85c1.49-0.44-2.16-6.06-2.16-6.06
			s-4.66-0.17-7.37-1.81C502.97,255.91,498.78,257.73,498.78,257.73z"/>
		<path class="st8" d="M496.09,259.06c0,0-8.65,1.07-9.07-0.05c-0.43-1.11,6.04-2.78,6.04-2.78s-4.63,0.46-3.94-0.96
			c0.21-0.44,1.28-2.23,5.16-2.62c8.7-0.88,24.25-0.2,24.25-0.2s4.16-11,9.25-6.82c5.09,4.17-5.1,9.78-5.1,9.78s7.92,3.45,5.33,6.68
			c-2.62,3.26-9.43-5.74-9.43-5.74L496.09,259.06z"/>
		<path class="st6" d="M496.04,255.46c-0.23,3.28,2.72,1.89,4.53,0.05c1.8-1.84,3.88-5.96,2.81-7.42
			C502.31,246.64,497.88,246.08,496.04,255.46z"/>
		<path class="st6" d="M500.4,254.64c-0.23,3.28,2.72,1.89,4.53,0.05c1.8-1.84,3.88-5.96,2.81-7.42
			C506.67,245.81,502.25,245.26,500.4,254.64z"/>
		<path class="st6" d="M504.77,253.95c-0.22,3.06,2.55,1.76,4.24,0.05c1.69-1.72,3.64-5.56,2.64-6.93
			C510.65,245.71,506.5,245.19,504.77,253.95z"/>
		<path class="st6" d="M510.58,253.28c-0.25,2.56,2.09,1.54,3.54,0.14c1.45-1.4,3.17-4.57,2.36-5.74
			C515.68,246.52,512.23,245.98,510.58,253.28z"/>
		<path class="st6" d="M558.86,337.7c-20.89-8.91-44.03-73.05-44.03-73.05l7.96-1.33c0,0,31.62,31.63,39.66,39.99
			c14.18,14.74,15.56,27.38,12.13,33.07C571.15,342.07,564.33,340.03,558.86,337.7z"/>
		<path class="st6" d="M450.66,393.14c0,0-22,16.76-38.87,19.97c-7.84,1.49-15.64-1.55-18.23-13.74c-1.42-6.67-8.5-36.71-7.47-68.23
			c0.86-26.05,10.2-51.22,16.14-65.8c0,0,23.06,10.56,21.57,27.63c-0.68,7.74-0.9,24.44-2.94,42.32
			c-2.46,21.53-4.91,42.18-4.91,42.18l33.68,6.29L450.66,393.14z"/>
		<path class="st2" d="M425.63,291.16c-0.68,7.74-2.73,26.24-4.78,44.12c-7.3,0.06-25.42-0.34-34.76-4.15
			c0.86-26.05,9.01-53.27,14.95-67.85C401.04,263.29,427.13,274.09,425.63,291.16z"/>
		<polygon class="st9" points="458.05,378.65 453.69,361.91 486.16,359.69 484.57,370.49 480.71,400.65 463.17,401.43 		"/>
		<path class="st8" d="M450.75,359.72c0.01,0.33,1.18,4.73,1.17,4.48c-0.01-0.25,36.91-2.48,36.78-2.73
			c-0.13-0.25-0.08-4.52-0.44-4.42C487.9,357.14,450.75,359.72,450.75,359.72z"/>
		<path class="st8" d="M452.24,360.49c-0.01-0.25,4.03-4.96,4.03-4.96l22.41-0.91l2.08-2.44l3.04,0.12l1.84,5.96L452.24,360.49z"/>
		<path class="st6" d="M402.87,134.69c-0.25,1.21,4.08,71.58,49.81,71.04c45.72-0.54,44.51-68.06,44.84-80.93
			c0.32-12.87-4.68-44.64-13.8-48.12c-9.12-3.48-65.43,1.12-73.02,5.34C403.11,86.24,402.87,134.69,402.87,134.69z"/>
		<path class="st10" d="M405.21,149.85c-2.22-21.47,3.25-54.68,7.82-62.26c22.71,13.04,69.74-5.2,69.74-5.2s11.88,33.01,14.36,61.28
			c5.19-18.5,2.78-59.05,1.26-66.46c-1.53-7.41-15.29-14.27-15.29-14.27s-3.93-7.6-11.21-9.97c-7.28-2.37-13.99,1.52-13.99,1.52
			s-2.13-5.29-8.63-4.7c-6.5,0.59-48.18,24.87-52.38,31.33C392.71,87.6,402.2,138.48,405.21,149.85z"/>
		<path class="st6" d="M493.43,147.1c12.65-4.75,17.81,3.69,12.2,18.89c-5.6,15.2-16.65,8.81-16.65,8.81L493.43,147.1z"/>
		<path class="st6" d="M408.43,150.88c-13.02-3.61-17.41,5.26-10.48,19.9c6.93,14.64,17.37,7.3,17.37,7.3L408.43,150.88z"/>
		<path class="st11" d="M418.64,134.36c0,0,3.89,5.47,8.55,5.41c4.65-0.06,8.72-7.81,8.72-7.81s-5.59,4.41-8.6,4.69
			C424.29,136.93,418.64,134.36,418.64,134.36z"/>
		<path class="st11" d="M476.21,128.92c0,0-2.44,6.26-6.96,7.34c-4.53,1.08-10.36-5.44-10.36-5.44s6.5,2.9,9.49,2.44
			S476.21,128.92,476.21,128.92z"/>
		<path class="st12" d="M437.16,149.08c0,0,5.65,3.46,11.14,3.36c5.49-0.1,11.91-5.88,11.91-5.88s-8.48,2.9-12.03,3.21
			C444.63,150.08,437.16,149.08,437.16,149.08z"/>
		<path class="st13" d="M468.18,158.98c0,0-0.17,5.93-1.8,12.5c-1.84,7.43-5.57,15.67-13.07,17.11c-6.34,1.21-11.11-3.89-14.44-9.88
			c-4.09-7.37-6.01-16.08-6.01-16.08c1.77,0.02,3.5-0.2,5.19-0.58c5.97-1.3,11.46-4.45,16.53-5.14c5.44-0.73,11.3,1.22,13.07,1.87
			C467.99,158.9,468.18,158.98,468.18,158.98z"/>
		<path class="st14" d="M467.66,158.78c-5.42,3.28-16.43,5.98-29.6,3.27c5.97-1.3,11.46-4.45,16.53-5.14
			C460.03,156.18,465.89,158.13,467.66,158.78z"/>
		<path class="st15" d="M466.39,171.49c-1.84,7.43-5.57,15.67-13.07,17.11c-6.34,1.21-11.11-3.89-14.44-9.88
			c7.2-7.32,13.35-4.77,13.35-4.77S460.29,167.8,466.39,171.49z"/>
		<path class="st10" d="M411.07,123.37c12.64-9.62,27.21-5.67,27.21-5.67s0.91-6.28-4.99-8.69
			C427.4,106.61,409.72,116.3,411.07,123.37z"/>
		<path class="st10" d="M481.4,114.3c-13.44-8.46-27.61-3.23-27.61-3.23s-1.46-6.17,4.2-9.1C463.65,99.05,482.12,107.14,481.4,114.3
			z"/>
		<path class="st6" d="M450.66,393.14c0,0,15.05,6.63,18.63,5.69c3.58-0.93,13.38-10.16,14.11-11.23c0.73-1.07,0.16-5.05,0.16-5.05
			s2.35-5.27,2.55-6.7c0.19-1.43-1.53-5.36-1.53-5.36s-3.81,4.43-5.95,5.69c-2.14,1.26-20.57,2.47-20.57,2.47l-1.51-7.69
			c0,0-6.25,10.24-6.92,12.79C448.96,386.29,448.77,391.61,450.66,393.14z"/>
		<path class="st16" d="M490.39,250.45c-8.5,7.09-43.14,15.88-49.8,4.96c-0.03-6.56,4.58-11.97,17.31-12.37
			C471.76,242.61,484.31,247.56,490.39,250.45z"/>
	</g>
	<g>
		<path class="st10" d="M205.34,168.62c-1.4,5.84-8.33,11.34-10.56,20.28c-2.24,8.94,7.22,16.43,14.24,16.27
			c7.03-0.16,0.23,7.61,0.68,13.23c0.45,5.61,8.93,2.28,13.04,1.71c4.11-0.57,5.78,5.91,11.56,4.06c5.78-1.86,5.67-7.19,12.55-3.71
			c6.88,3.48,38.8,6.69,42.96,12.68c4.17,5.98,15.6-4.91,20.3-2.5c4.7,2.42,7.63,5.69,12.72-0.61c5.09-6.29,11.43,5.66,18.1-1.52
			c6.67-7.19,3.58-21.33,11.97-23.25c8.39-1.92,8.92-13.26,4.86-18.81c-4.06-5.55-5.94-5.13-7.05-13.33
			C349.6,164.89,205.34,168.62,205.34,168.62z"/>
		<path class="st17" d="M375.15,404.72c-5.43,5.99-17.24-5.81-22.18-12.98c-1.18-1.68-1.96-3.11-2.19-4
			c-0.23-0.84-0.95-2.53-1.99-4.72c-2.03-4.27-5.24-10.48-8.25-16.17c-3.99-7.58-7.63-14.25-7.63-14.25s-4.11-20.4-7.72-37.32
			c-1.82-8.58-3.53-16.27-4.5-19.95c-2.89-10.97,2.08-26.35,2.08-26.35c19.51,20.58,38.15,71.49,45.17,91.34
			C374.97,380.17,381.86,397.33,375.15,404.72z"/>
		<path class="st18" d="M341.15,335.21c2.07,6.18,0.42,22.99-0.62,31.64c-3.99-7.58-7.63-14.25-7.63-14.25s-4.11-20.4-7.72-37.32
			l-0.12-13.06C325.07,302.22,338.33,326.73,341.15,335.21z"/>
		<path class="st18" d="M352.97,391.74c-1.18-1.68-1.96-3.11-2.19-4c-0.23-0.84-0.95-2.53-1.99-4.72
			c3.69-0.25,10.43-3.01,14.04,0.77C365.45,386.54,359.82,390.84,352.97,391.74z"/>
		<path class="st6" d="M208.82,264.06c-0.17,0.6-1.71,21.86-1.71,21.86l12.47-0.01l-1.94-23.47L208.82,264.06z"/>
		<path class="st17" d="M270.59,461.65c0.38-12.81-20.1-122.18-20.1-122.18s-29.68,74.47-34.02,75.01
			c-4.35,0.55-4.06-48.59-4.06-48.59s1.21-3.79,3.22-9.83c2.54-7.68,6.37-18.98,10.58-30.7c6.35-17.66,13.59-36.28,18.72-44.85
			c5.35-8.95,11.68-15.17,16.84-19.23c1.19-0.94,2.31-1.76,3.35-2.46c3.87-2.67,6.49-3.83,6.49-3.83l-2.46-29.83l19.52,0.06
			l6.67,26.26c0,0,3.68,1.59,8.49,4.13c1.19,0.62,2.44,1.31,3.73,2.04c5.53,3.14,11.61,7.18,15.22,11.33
			c7.84,9.04,0.73,21.84,2.41,28.82c0.86,3.55,2.43,7.49,4.21,12.31c0.45,1.2,0.9,2.46,1.36,3.78c1.33,3.79,2.7,8.08,3.92,13.06
			c0.78,3.15,1.3,6.36,1.66,9.61c1.21,10.83,0.56,22.06,1.07,32.65c0.67,13.77,18.61,133.02,18.61,133.02l-91.31,4.45
			C264.71,506.69,270.2,474.44,270.59,461.65z"/>
		<path class="st18" d="M356.02,502.23l-4.54,0.22c-1.3-17.53-8.58-84.61-43.81-85.38c-35.92-0.79-33.56,72.41-32.56,89.11
			l-10.4,0.51c0,0,5.49-32.24,5.88-45.04c0.38-12.81-20.1-122.18-20.1-122.18s-29.68,74.47-34.02,75.01l33.69-83.28
			c0,0,14.94,10.12,48.59,8.48c28.28-1.38,30.62-22.77,30.64-29.56c0.45,1.2,0.9,2.46,1.36,3.78c1.33,3.79,2.7,8.08,3.92,13.06
			c0.78,3.15,1.3,6.36,1.66,9.61c1.21,10.83,0.56,22.06,1.07,32.65C338.08,382.97,356.02,502.23,356.02,502.23z"/>
		<path class="st18" d="M218.43,391.18l-2.8-35.13c2.54-7.68,6.37-18.98,10.58-30.7C229.74,353.78,218.43,391.18,218.43,391.18z"/>
		<path class="st17" d="M216.47,414.48c-8.95,2.79-21.12-12.09-22.61-28.85c-1.49-16.75,13.58-108.01,13.58-108.01l15.52,0.93
			c0,0-1.02,89.56-2.09,102.06C219.8,393.12,216.47,414.48,216.47,414.48z"/>
		<path class="st19" d="M307.55,257.65l-18.56,30.81c0,0-19.12-18.55-27.23-27.18c1.19-0.94,2.31-1.76,3.35-2.46
			c3.87-2.67,6.49-3.83,6.49-3.83l-2.46-29.83l19.52,0.06l6.67,26.26c0,0,3.68,1.59,8.49,4.13
			C305.01,256.22,306.26,256.91,307.55,257.65z"/>
		<path class="st6" d="M303.82,255.6l-15.76,26.17c0,0-16.83-16.33-22.94-22.96c3.87-2.67,6.49-3.83,6.49-3.83l-1.1-13.35
			l-0.42-5.14l-0.94-11.35l19.52,0.06l2.44,9.63l1.67,6.58l2.56,10.05C295.33,251.47,299.01,253.06,303.82,255.6z"/>
		<path class="st1" d="M292.77,241.42c-3.12,1.54-7.83,3.54-10.87,3.4c-3.18-0.16-8.24-1.95-11.4-3.18l-0.42-5.14l21.02-1.66
			L292.77,241.42z"/>
		<g>
			<g>
				<path class="st20" d="M217.07,264.94c2.54-1.71,4.73-4.21,5.13-7.41c0.4-3.2,9.64-9.46,10.42-11.4c0.78-1.95,0.02-2.86-3-2.72
					c-3.01,0.15-9.19,8.96-11.71,9.48c-2.52,0.52-6.74-4.44-7.88-5.1c-1.15-0.66,0.07,14.39,1.4,15.76
					C212.77,264.91,217.07,264.94,217.07,264.94z"/>
				<polygon class="st21" points="209.22,231.69 252.68,259.7 253.16,259.04 210.56,229.44 				"/>
				<polygon class="st21" points="250.43,262.34 206.38,235.71 204.94,238.45 249.96,263.2 				"/>
				
					<radialGradient id="SVGID_1_" cx="2151.2261" cy="240.6868" r="28.2594" gradientTransform="matrix(0.9988 -0.0487 0.0487 0.9988 -1928.6549 97.0277)" gradientUnits="userSpaceOnUse">
					<stop  offset="0" style="stop-color:#FA967B"/>
					<stop  offset="3.766358e-03" style="stop-color:#FA967B"/>
					<stop  offset="0.377" style="stop-color:#FDAF88"/>
					<stop  offset="0.7194" style="stop-color:#FEBE90"/>
					<stop  offset="1" style="stop-color:#FFC393"/>
				</radialGradient>
				<path class="st22" d="M204.5,243.76c0,0,8-7.15,10.57-8.23c2.57-1.08,15.54,5.6,16.46,6.51c0.92,0.91-2.07,3.2-4.61,3.25
					c-2.54,0.04-11.97-4.19-11.97-4.19l-9.7,8.19L204.5,243.76z"/>
				
					<radialGradient id="SVGID_2_" cx="2145.5071" cy="258.9023" r="19.0201" gradientTransform="matrix(0.9988 -0.0487 0.0487 0.9988 -1928.6549 97.0277)" gradientUnits="userSpaceOnUse">
					<stop  offset="0" style="stop-color:#FCA784"/>
					<stop  offset="0.2255" style="stop-color:#FDB28A"/>
					<stop  offset="0.6273" style="stop-color:#FFBF91"/>
					<stop  offset="1" style="stop-color:#FFC393"/>
				</radialGradient>
				<path class="st23" d="M206.01,246.87c0,0,6.58-6.92,8.93-7.59c2.35-0.67,16.36,9.3,16.36,9.3s-2.55,3.23-5.18,2.96
					c-2.64-0.27-11.03-6.06-11.03-6.06l-9.32,7.85L206.01,246.87z"/>
				
					<radialGradient id="SVGID_3_" cx="2138.5881" cy="268.9946" r="13.5108" gradientTransform="matrix(0.9988 -0.0487 0.0487 0.9988 -1928.6549 97.0277)" gradientUnits="userSpaceOnUse">
					<stop  offset="0" style="stop-color:#FA967B"/>
					<stop  offset="1" style="stop-color:#FFC393"/>
				</radialGradient>
				<path class="st24" d="M204.37,250.84c0,0,12.14-3.85,14.21-3.79c2.07,0.06,12.45,7.35,12.45,7.35s-0.55,1.7-3.09,1.9
					c-2.53,0.2-9.77-3.02-9.77-3.02l-12.08,3.45L204.37,250.84z"/>
				<path class="st6" d="M210.51,254.44c0,0,6.29-1.42,7.4-1.55c1.11-0.13,8.97,2.9,8.97,2.9s0.16,1.74-1.47,2.38
					c-1.64,0.64-7.09-0.21-7.09-0.21l-4.57,2.45c0,0,3.26,3.26,3.32,4.53c0.06,1.27-4.18,4.02-7.88,1.42s-8-15.67-8.17-17.57
					c-0.17-1.9,3.49-5.02,3.49-5.02L210.51,254.44z"/>
			</g>
			<path class="st25" d="M243.25,258.37c-0.69,0.58,0.06,1.2,0.77,1.11c-0.14,1.65,2.77,2.77,3.43,1.75
				c0.27,0.97,1.25,2.02,2.17,0.66c0.63,0.63,1.88-0.91,1.65-2.22c1.41,0.75,1.38-0.95,0.32-2.43c-1.06-1.48-2.18-0.72-2.18-0.72
				s-0.36-1.68-1.12-1.54c-0.76,0.15-1.03,1.31-1.03,1.31s-0.18-1.47-1.37-1.14c-1.19,0.33-0.94,2.19-0.94,2.19
				S241.97,255.85,243.25,258.37z"/>
		</g>
		<g>
			<path class="st26" d="M271.88,350.62c-0.65,0.54-6.58,6.55-6.58,6.55s6.11,4.58,6.09,4.08c-0.02-0.5,3.82-7.92,3.82-7.92
				L271.88,350.62z"/>
			<polygon class="st26" points="323.39,347.77 321.02,350.92 326,359.92 330.71,352.97 			"/>
			<path class="st25" d="M274.97,351.82c-3.1-4.9,0.11-4.72,1.64-4.29c2.26-5.33,7.56-3.73,8.51-1.42c2.26-1.96,3.4,0.68,3.4,0.68
				s2.12-8.35,6.9-3.36c4.81-1.41,5.4,0.41,5.53,2.93c4.27-5.59,8-1.57,8.21-0.74c2.24-5.83,3.19-0.16,3.19-0.16s4.05-3.23,5.6,1.07
				c2.86-3.5,4.88-0.07,4.33,2.65C321.74,351.89,274.97,351.82,274.97,351.82z"/>
			<polygon class="st27" points="323.39,347.78 321.2,364.52 316.16,402.96 284.29,401.49 277.94,375.45 271.88,350.62 			"/>
			<path class="st28" d="M323.39,347.78l-2.19,16.74c-10.68-5.75-37.77-6.34-43.26,10.93l-6.06-24.83L323.39,347.78z"/>
			<path class="st29" d="M323.39,347.78l-3.3,8.06l-12.45,1.15c-2.75-5.16-15.74-6.06-16.6,1.55l-12.66,1.17l-6.5-9.11
				L323.39,347.78z"/>
			<path class="st30" d="M286.11,366.41c0.04,0.84,4.19,20.32,4.19,20.32l17.6-1.36l3.84-21.22L286.11,366.41z"/>
		</g>
		<path class="st6" d="M305.33,399.52c0,0-1.85-4.02-3.54-5.16c-1.68-1.14-2.39-6.88-2.14-8.28c-2.71-0.11-4.34,3.36-3.83,5.59
			c0.51,2.23,2.6,6.26,2.6,6.26s-9.51-1.02-11.37-1.3c-1.85-0.28-6.28-2.11-7.52-2.87c-1.23-0.76-1.62,2.09-1.62,2.09
			s-1.82-1.41-2.34-0.21c-0.52,1.2-0.14,1.44,1.88,4.3c2.02,2.86,13.48,8.66,16.91,9.7c3.43,1.04,17.7-2.19,17.7-2.19l-1.64-5.02
			L305.33,399.52z"/>
		<path class="st17" d="M308.63,399.12l2.62,10.69c0,0,61.04,0.83,63.9-5.08s-6.27-21.13-13.23-21.43
			C354.97,382.98,308.63,399.12,308.63,399.12z"/>
		<path class="st6" d="M231.38,163.95c0.25,0.97,8.12,50.23,14.69,58.74c6.57,8.51,27.68,19.6,36.58,18.93
			c8.91-0.66,27.18-14.09,31.07-23.16c3.89-9.08,7.75-51.97,7.75-51.97l4.43-24.83c0,0-31.89-39.57-44.77-39.28
			C268.25,102.68,225.36,133.03,231.38,163.95z"/>
		<path class="st11" d="M302.09,170.19c0.09,5.03-2,9.17-4.67,9.23c-2.68,0.07-4.92-3.96-5.02-8.99c-0.09-5.03,2-9.17,4.67-9.23
			C299.75,161.13,301.99,165.15,302.09,170.19z"/>
		<path class="st11" d="M304.19,168.63c-4.87-5.42-10.82-5.41-13.36,0.74C292.82,155.66,300.93,157.62,304.19,168.63z"/>
		<path class="st11" d="M254.56,172.53c0.48,5.01,3.03,8.84,5.7,8.56c2.66-0.28,4.43-4.57,3.95-9.58c-0.48-5.01-3.03-8.84-5.7-8.56
			C255.85,163.23,254.08,167.52,254.56,172.53z"/>
		<path class="st11" d="M252.3,171.25c4.21-6.02,10.13-6.78,13.34-1C262.1,156.9,254.27,159.9,252.3,171.25z"/>
		<path class="st31" d="M269.97,186.92c0,0,4.86,5.3,10.7,4.45c5.85-0.85,8.73-6.33,8.73-6.33s-4.49,2.79-9.71,3.22
			C274.47,188.69,269.97,186.92,269.97,186.92z"/>
		<path class="st10" d="M287.01,150.69c7.57-2.01,19.05-0.02,24.08,6.42C306.04,144.17,289.12,144.36,287.01,150.69z"/>
		<path class="st10" d="M268.97,154.42c-7.58-1.9-19.05,0.25-24.06,6.76C249.92,148.17,266.84,148.12,268.97,154.42z"/>
		<path class="st13" d="M295.57,198.1c-0.75,3.63-1.82,7.48-3.25,10.94c-0.37,0.91-0.76,1.79-1.19,2.62
			c-2.49,4.96-5.88,8.58-10.34,8.58c-5.09-0.02-9-2.8-11.94-6.48c-0.49-0.61-0.96-1.25-1.39-1.91c-3.47-5.15-5.33-11.31-6.06-14.17
			c-0.26-1.01-0.38-1.6-0.38-1.6c10.5,4.24,27.9,3.44,35.07-0.69C295.94,196.27,295.76,197.18,295.57,198.1z"/>
		<path class="st14" d="M295.58,198.1c-7.24,5.42-21.6,7.57-34.18-0.41c-0.26-1.01-0.37-1.61-0.37-1.61
			c10.49,4.24,27.89,3.44,35.06-0.69C295.93,196.27,295.76,197.18,295.58,198.1z"/>
		<path class="st10" d="M280.41,121.67c-1.72,11.29-19.01,5.54-27.45,8.68c-8.44,3.14,2.32,10.27-5.29,18.93
			c-17.8,20.26-1.43,32.3-12.65,38.15c1.83,13.47-31.41-11.4-29.69-18.81c1.72-7.41-11.49-11.2-9.32-21.78s9.55-17.44,16.18-21.35
			c9.97-5.89,3.83-19.77,10.81-29.04c8.51-11.3,18.15-1.85,24.99-3.07c6.85-1.22,10.26-10.17,17.88-12.25
			c7.62-2.08,15.06,7.45,15.06,7.45s1.66-13.35,21.77-3.82c8.2,3.89,5.53,8.11,14.32,8.11c8.79,0,26.58-0.98,27.43,10.45
			c0.85,11.42-6.08,13.04-1.84,19.65c4.24,6.61,15.41,6.7,15.86,23.97c0.45,17.27-8.29,16.05-7.78,26.17
			c0.52,10.13-28.83,19.72-32.27,14.09c-3.44-5.63-0.02-9.61,0.9-14.12c0.93-4.51,0.92-12.28-4.9-17.99
			c-5.82-5.72-7.35-10.94-5.52-16.9c1.82-5.96-10.64-11.11-17.64-10.44C279.54,128.87,280.41,121.67,280.41,121.67z"/>
		<path class="st32" d="M292.32,209.04c-0.37,0.91-0.76,1.79-1.19,2.62c-2.49,4.96-5.88,8.58-10.34,8.58
			c-5.09-0.02-9-2.8-11.94-6.48c-0.49-0.61-0.96-1.25-1.39-1.91c8.9-7,14.18-0.27,14.18-0.27S286.72,204.81,292.32,209.04z"/>
		<path class="st6" d="M317.14,183.53c0.21-0.37,14.9-5.45,13.84,13.54c-1.06,18.99-16.76,12.52-16.76,12.52L317.14,183.53z"/>
		<path class="st6" d="M238.12,185.8c-0.25-0.34-15.35-3.72-12.42,15.04c2.94,18.76,17.9,10.54,17.9,10.54L238.12,185.8z"/>
	</g>
	<g>
		<path class="st33" d="M572.28,386.01c0,0-1.65,1-4.31,2.64c-1.34,0.82-2.93,1.8-4.7,2.89c-7.65,4.72-18.58,11.54-26.38,16.68
			c-13.2-21.88-9.65-102.01,10.62-139.66c0,0,4.49,10.45,9.43,24.04c3.41,9.41,7.03,20.34,9.52,30.34c0.75,3.01,1.4,6.23,1.96,9.56
			C572.47,356.3,572.28,386.01,572.28,386.01z"/>
		<path class="st34" d="M568.41,332.5c-0.1,20.48-0.32,43.82-0.44,56.15c-1.34,0.82-2.93,1.8-4.7,2.89
			c-4.2-4.51-9.75-9.96-9.75-9.96c6.35-13.53,4.7-62.71,1.93-79.28c-0.85-5.1-0.05-8.08,1.48-9.71c3.41,9.41,7.03,20.34,9.52,30.34
			C567.2,325.95,567.85,329.16,568.41,332.5z"/>
		<path class="st35" d="M580.32,237.02c6.54-2.93,46.96-3.71,53.41,0.73c6.46,4.44,1.17,13.49,1.17,13.49l-56.83-0.43L580.32,237.02
			z"/>
		<path class="st36" d="M650.47,483.2h-71.76l-6.43-232.98l4.43-2.89l5.4-3.53l1.56-1.02l5.35-3.5c0,0,2.89-33.47,2.89-34.43
			l26.71,7.09l3.23,26.38l9.25,3.9l2,0.84l9.35,3.95l3.07,32.71l2.4,25.53l0.23,15.77L650.47,483.2z"/>
		<path class="st37" d="M650.47,483.2h-70.99l-2.77-235.87l5.4-3.53c0.8,39.9,9.51,191.84,27.83,196.77
			c18.83,5.07,23.9-183.17,23.17-195.48c-0.05-0.7-0.05-1.37-0.02-2.02l9.35,3.95l3.07,32.71l2.63,41.3L650.47,483.2z"/>
		<path class="st33" d="M560.7,483.2c0,0,3.22-63.08,1.93-116.49c-1.28-53.42-16.41-91.72-15.12-98.15
			c0.63-3.15,8.52-10.78,16.41-17.76c7.95-7.02,15.9-13.38,16.38-13.76l0.03-0.02c0,0.33,0.59,28.61,1.37,65.89
			c1.52,72.92,3.78,180.29,3.78,180.29H560.7z"/>
		<path class="st33" d="M673.65,378.29c0,0-4.55-19.5-16.65-53.58c1.59,22.29,10.18,158.48,10.18,158.48h-20.71L636.14,284
			l-2.4-46.25l9.87,6.37c0,0,1.48,0.37,3.68,1.03c5.41,1.64,11.18,5.54,15.86,12.23c4.68,6.69,21.54,45.53,21.54,45.53l10.83,52.86
			L673.65,378.29z"/>
		<path class="st1" d="M631.09,242.21c-10.13,8.8-29.73,12.53-47.42,0.56l5.35-3.5c0,0,2.89-33.47,2.89-34.43l26.71,7.09l3.23,26.38
			L631.09,242.21z"/>
		<path class="st38" d="M581.7,302.91l-7.48-43.04c0,0-10.29,16.73-10.29,15.77v-24.85c0-3.04,0-5.09,0-5.09l16.38-8.67l0.03-0.02
			C580.32,237.35,580.91,265.63,581.7,302.91z"/>
		<path class="st38" d="M567.69,383.28c-12.1-10.42-31.55-4.47-33.59,11.34c-2.05,15.82,9.65,30.53,19.89,29.97
			c10.24-0.56,17.24-11.54,17.24-11.54L567.69,383.28z"/>
		<polygon class="st38" points="651.25,269.28 639.78,255.9 636.14,284 633.74,237.75 646.8,242.21 647.28,245.16 		"/>
		<path class="st38" d="M679.59,341.57c-18.79,29.94-3.5,51.91,8.92,52.23C694.88,379.47,679.59,341.57,679.59,341.57z"/>
		<path class="st6" d="M678.55,227.77c0,0-26-5.82-28.52-6.01c-2.52-0.19,3.3-3.69,7.37-3.88c4.07-0.19,5.63,1.16,8.34,1.94
			c2.72,0.78,3.88-0.97,7.37-0.97C676.61,218.85,679.14,221.56,678.55,227.77z"/>
		<path class="st6" d="M686.28,221.83c0.42-9.97-9.28-26.46-12-26.07s-13.58,14.55-13.58,14.55s6.6,6.4,8.15,9.7
			c1.55,3.3,7.76,6.98,9.7,7.76C680.49,228.55,686.28,221.83,686.28,221.83z"/>
		<path class="st39" d="M639.44,227.6c0,0-4.79,7.79-10.74,9.99c-3.71,1.36-9.71,1.54-13.68,1.46c-2.4-0.04-4.07-0.16-4.07-0.16
			l-0.9-1.57c0,0,1.83,0.05,4.42-0.03c3.88-0.13,9.49-0.54,13.29-1.87c6.34-2.22,10-8.73,10-8.73s49.28-48.34,52.04-39.88
			C691.55,192.17,639.44,227.6,639.44,227.6z"/>
		<path class="st6" d="M643.23,219.64c2.07,2.9,8.87-1.98,10.38-5.35c0.83-1.87,4.27-7.12,4.27-7.12s-4.96-1.5-5.67-1.65
			c-1.59-0.33-3.52,5.36-5.22,7.89C645.29,215.95,642.45,218.55,643.23,219.64z"/>
		<path class="st6" d="M648.81,215.16c2.07,2.9,7.94-0.92,10.38-5.35c1.02-1.86,3.18-6.34,3.18-6.34s-3.93-2.3-4.58-2.43
			c-1.59-0.33-3.52,5.36-5.22,7.89C650.86,211.46,648.03,214.06,648.81,215.16z"/>
		<path class="st6" d="M657.6,209.62c2.07,2.9,5.74-1.92,8.17-6.36c1.02-1.86,2.18-3.99,2.18-3.99s-3.93-2.3-4.58-2.43
			c-1.59-0.33-3.52,5.36-5.22,7.89C656.46,207.26,656.82,208.52,657.6,209.62z"/>
		<path class="st40" d="M630.81,238.89c0.41,2.58,0.1,5.18-0.53,7.57c-0.66,2.4-1.6,4.62-2.55,6.8c-1.91,4.33-3.85,8.59-4.68,13.08
			c-0.43,2.18-0.36,4.52-0.12,6.81c0.23,2.31,0.67,4.61,1.23,6.89c0.55,2.28,1.21,4.54,1.96,6.77c0.72,2.24,1.51,4.47,2.41,6.65
			l-1.23,0.58c-1.99-4.4-3.67-8.86-4.95-13.51c-0.65-2.32-1.18-4.68-1.5-7.1c-0.33-2.42-0.5-4.9-0.09-7.45
			c0.8-4.92,2.79-9.38,4.59-13.7c0.9-2.16,1.76-4.31,2.32-6.48c0.56-2.16,0.79-4.35,0.45-6.46L630.81,238.89z"/>
		<path class="st6" d="M671.05,198.5c1.02-1.86,2.18-3.99,2.18-3.99s-3.93-2.3-4.58-2.43c-1.59-0.33-2.3,2.43-3.53,5.22
			C661.74,204.93,668.62,202.94,671.05,198.5z"/>
		<path class="st41" d="M628.11,247.16c0.5,1.78,0.89,3.6,1.2,5.42c0.48,2.88,0.7,5.81,0.62,8.75c-0.05,1.71-0.17,3.42-0.42,5.11
			c-0.23,1.68-0.52,3.39-1.05,5.03c-1.01,3.3-2.64,6.32-4.17,9.33c-1.55,3-3.01,6.03-4.04,9.22c-1.05,3.17-1.68,6.5-1.71,9.82
			c-0.05,6.66,2.31,13.3,6.13,18.7l-1.38,1.08c-1.26-1.38-2.19-2.84-3.11-4.37c-0.91-1.53-1.64-3.15-2.27-4.84
			c-1.3-3.33-1.97-6.95-1.95-10.59c0.03-7.34,3.06-14.14,6.29-20.06c1.6-3,3.18-5.9,4.21-8.9c0.28-0.75,0.46-1.51,0.67-2.27
			c0.16-0.8,0.34-1.6,0.47-2.41c0.28-1.61,0.45-3.24,0.55-4.89c0.1-1.64,0.09-3.28,0-4.93c-0.01-0.35-0.03-0.7-0.05-1.05
			c-0.08-1.29-0.23-2.6-0.42-3.9c-0.21-1.46-0.51-2.91-0.86-4.36c-0.89-0.35-1.64-1.2-1.77-1.96c-0.72,6.11-2.19,1.11-2.69-0.47
			c-1.25,6.5-3.94,5.31-4.38,2.14c-0.38,1.27-0.87,1.93-1.39,2.17c0.22,0.39,0.46,0.78,0.72,1.17c1.17,1.7,2.59,3.74,3.16,6.12
			c0.11,0.45,0.2,0.93,0.24,1.43c0.1,0.76,0.11,1.55-0.03,2.34c-0.23,1.28-0.79,2.48-1.49,3.49c-0.71,1.02-1.57,1.88-2.49,2.61
			c-0.95,0.74-1.88,1.35-3.03,1.9l-0.55-1.24c1.87-1.05,3.58-2.47,4.68-4.24c0.55-0.89,0.92-1.85,1.05-2.84
			c0.1-1-0.07-1.97-0.36-2.96c-0.59-1.96-1.82-3.55-3.15-5.31c-0.66-0.89-1.33-1.87-1.78-3.04c-0.36-0.91-0.54-1.91-0.57-2.89
			c-0.07-0.19-0.14-0.38-0.19-0.55c-0.8-2.7-0.43-9.92-0.43-9.92c0.51-9.52,4.59-5.87,5.47-3.41c1.24-3.57,2.4-0.23,2.4-0.23
			s0.23-3.9,2.92-4.76c2.62-0.85,3.86,5.23,3.94,5.61c0-0.18,0.06-2,2.63-1.09c1.07,0.38,1.56,2.04,1.68,4.15v0.04
			c0.19,3.23-0.51,7.48-1.39,9.78C629.52,246.39,628.83,246.99,628.11,247.16z"/>
		<path class="st6" d="M605.39,90.49c-7.38-13.62-43.36,0.27-44.15,35.58c0.21,0.82,7.82,56.79,10.29,67.08
			c2.47,10.29,16.87,25.31,33.13,25.72c0.25,0.01,0.5-0.01,0.73-0.06c0.24,0.05,0.48,0.07,0.73,0.06
			c16.26-0.41,30.66-15.43,33.13-25.72c2.47-10.29,10.08-66.26,10.29-67.08C648.75,90.77,612.77,76.88,605.39,90.49z"/>
		<path class="st11" d="M628.76,144.91c0,5-1.93,9.05-4.32,9.05c-2.39,0-4.32-4.05-4.32-9.05c0-5,1.93-9.05,4.32-9.05
			C626.83,135.86,628.76,139.91,628.76,144.91z"/>
		<path class="st42" d="M641.11,128.34c-9.26-5.14-27.37-3.5-27.37-3.5s1.23-2.88,3.09-4.53S636.17,119.29,641.11,128.34z"/>
		<path class="st11" d="M582.02,144.91c0,5,1.93,9.05,4.32,9.05c2.39,0,4.32-4.05,4.32-9.05c0-5-1.93-9.05-4.32-9.05
			C583.96,135.86,582.02,139.91,582.02,144.91z"/>
		<path class="st42" d="M569.68,128.34c9.26-5.14,27.37-3.5,27.37-3.5s-1.23-2.88-3.09-4.53S574.62,119.29,569.68,128.34z"/>
		<path class="st13" d="M627.07,174.45c-0.04,0.99-0.16,1.96-0.35,2.91c-2.13,10.77-13.06,19.54-21.39,19.54
			c-8.86,0-18.62-10.25-19.32-22.26c-0.02-0.27-0.03-0.54-0.04-0.82C594.41,178.57,623.77,177.64,627.07,174.45z"/>
		<path class="st14" d="M627.07,174.45c-0.04,0.99-0.16,1.96-0.35,2.91c-8.55,6.95-28.75,9.5-40.71-2.72
			c-0.02-0.27-0.03-0.54-0.04-0.82C594.41,178.57,623.77,177.64,627.07,174.45z"/>
		<path class="st1" d="M602.74,140.67c0.6,9.35-3.72,24.69-3.83,27.08c-0.12,2.4,13.66,1.44,13.66,1.44s-8.99-1.56-10.31-2.88
			C600.94,165,606.45,155.65,602.74,140.67z"/>
		<path class="st42" d="M561.19,155.69c-0.19-0.77-10.4-25.62-12.72-37.96c-2.31-12.33,4.24-37.57,14.45-33.33
			c11.95-21.77,42.63-28.95,60.11-25.62c8.09,1.54,5.59,9.83,16.95,16.18c11.37,6.36,18.5,11.95,19.84,24.08s-9.06,55.1-9.06,55.1
			l-4.82,0.19c0,0-0.19-33.52-1.73-41.81c-16.95,6.74-62.81,2.7-74.37-7.9c-4.24,5.97-3.66,49.52-3.66,49.52L561.19,155.69z"/>
		<path class="st6" d="M642.96,154.27c8.85-8.44,13.99-2.68,12.55,13.79c-1.44,16.46-15.02,20.58-15.84,15.02
			S642.96,154.27,642.96,154.27z"/>
		<path class="st6" d="M567.83,154.27c-8.85-8.44-13.99-2.68-12.55,13.79c1.44,16.46,15.02,20.58,15.85,15.02
			S567.83,154.27,567.83,154.27z"/>
		<path class="st6" d="M684.05,391.89c11.01,7.71,26.43-3.5,24.52-46.18c-1.91-42.67-22.29-123.88-22.29-123.88
			s-7.01,2.55-7.64,6.69c-0.64,4.14-2.87,129.61-1.59,142.35C678.32,383.61,680.87,389.66,684.05,391.89z"/>
		<g>
			<path class="st41" d="M594.7,357.81c0.21-1.17,0.43-2.33,0.79-3.49c0.34-1.16,0.8-2.32,1.47-3.43c0.67-1.1,1.59-2.19,2.9-2.88
				c1.32-0.68,2.91-0.8,4.24-0.46c2.68,0.69,4.64,2.35,6.29,4.11c1.63,1.8,2.96,3.85,3.89,6.13l-2.52,1
				c-0.23-2.15-1.21-4.26-2.56-6.04c-1.36-1.76-3.18-3.33-5.4-3.87c-1.1-0.24-2.3-0.15-3.26,0.43c-0.96,0.58-1.67,1.47-2.13,2.46
				c-0.49,0.98-0.77,2.06-0.92,3.16c-0.16,1.09-0.19,2.21-0.1,3.32L594.7,357.81z"/>
			<path class="st41" d="M613.81,357.82c-0.09-3.59-0.05-7.2,0.63-10.86c0.38-1.82,0.81-3.67,2.03-5.47
				c0.32-0.44,0.69-0.89,1.22-1.26c0.49-0.38,1.19-0.68,1.92-0.73c0.73-0.05,1.45,0.14,2,0.44c0.55,0.31,1.02,0.68,1.39,1.08
				c0.76,0.8,1.27,1.68,1.69,2.57c0.21,0.45,0.39,0.9,0.55,1.35l0.43,1.25c0.58,1.65,1.15,3.3,1.88,4.76
				c0.36,0.73,0.78,1.39,1.24,1.97c0.48,0.55,1.03,0.99,1.65,1.35c1.28,0.66,2.88,0.94,4.55,1.03l-0.14,2.71l-1.39-0.22
				c-0.47-0.11-0.93-0.19-1.4-0.33c-0.93-0.25-1.87-0.6-2.73-1.12c-0.86-0.53-1.61-1.22-2.21-2c-0.57-0.79-1.03-1.62-1.39-2.47
				c-0.76-1.68-1.27-3.38-1.81-5.07c-0.27-0.85-0.49-1.69-0.83-2.47c-0.33-0.78-0.75-1.54-1.3-2.16c-0.54-0.62-1.27-1.13-2.07-1.1
				c-0.8,0.03-1.51,0.63-1.99,1.31c-0.99,1.41-1.47,3.15-1.83,4.86c-0.35,1.72-0.54,3.48-0.64,5.24c-0.05,0.88-0.09,1.76-0.09,2.65
				c-0.01,0.44-0.02,0.88-0.01,1.32l0.01,0.66l0,0.33c-0.06,0.11,0.12,0.22,1.36,0.29L613.81,357.82z"/>
			<path class="st41" d="M619.87,358.15c0.69-2.91,1.57-5.82,3.02-8.51c0.72-1.34,1.57-2.64,2.65-3.77
				c1.08-1.11,2.39-2.12,3.96-2.55c0.77-0.25,1.61-0.28,2.41-0.21c0.81,0.08,1.57,0.37,2.27,0.71c1.38,0.76,2.46,1.88,3.31,3.1
				c1.69,2.48,2.53,5.35,3.08,8.2l-1.32,0.29c-0.62-2.7-1.55-5.37-3.12-7.48c-0.78-1.04-1.72-1.91-2.76-2.44
				c-1.05-0.5-2.17-0.61-3.24-0.25c-1.08,0.33-2.08,1.13-2.94,2.08c-0.86,0.97-1.57,2.12-2.17,3.35c-1.21,2.45-1.94,5.2-2.49,7.97
				L619.87,358.15z"/>
			<path class="st41" d="M636.18,356.79c-1.28-1.15-2.52-2.41-3.46-4c-0.93-1.56-1.49-3.62-1-5.62c0.46-2,1.84-3.6,3.37-4.62
				c1.54-1.04,3.26-1.62,4.97-1.96c0.81-0.2,1.85-0.31,2.85-0.18c1.01,0.13,2.07,0.56,2.88,1.25c0.82,0.69,1.38,1.58,1.76,2.47
				c0.37,0.9,0.57,1.82,0.67,2.73c0.18,1.82-0.02,3.61-0.57,5.34c-0.28,0.86-0.65,1.71-1.18,2.52c-0.53,0.8-1.24,1.58-2.24,2.12
				l-1.24-2.41c0.5-0.1,1.06-0.48,1.51-1c0.46-0.52,0.88-1.16,1.19-1.85c0.62-1.39,0.91-2.97,0.85-4.53
				c-0.04-0.78-0.19-1.56-0.45-2.29c-0.26-0.73-0.68-1.42-1.27-1.92c-0.59-0.51-1.33-0.83-2.1-0.94c-0.78-0.11-1.58-0.02-2.35,0.18
				c-1.56,0.32-3.1,0.87-4.37,1.81c-0.62,0.47-1.21,1-1.65,1.63c-0.21,0.32-0.43,0.64-0.54,1c-0.07,0.18-0.15,0.34-0.2,0.52
				l-0.11,0.55c-0.27,1.46,0.24,2.95,1.12,4.14c0.91,1.19,2.06,2.19,3.34,3.01L636.18,356.79z"/>
			<path class="st41" d="M624.02,354.95c1.9-2.55,4.21-4.85,6.91-6.63c1.34-0.91,2.8-1.65,4.32-2.24c1.52-0.6,3.12-1,4.76-1.18
				c1.65-0.17,3.31-0.2,5.05,0.26c0.4,0.08,0.96,0.33,1.43,0.6l0.61,0.47c0.2,0.16,0.34,0.33,0.51,0.5
				c0.63,0.68,1.09,1.39,1.51,2.07c0.83,1.36,1.51,2.73,2.31,3.82c0.39,0.57,0.83,1,1.26,1.35c0.44,0.3,0.86,0.41,1.32,0.44
				l0.08,2.71c-1.08-0.16-2.04-0.63-2.74-1.26c-0.66-0.65-1.14-1.36-1.53-2.06c-0.41-0.69-0.73-1.41-1.06-2.11
				c-0.33-0.69-0.65-1.39-0.99-2.06c-0.35-0.67-0.74-1.32-1.23-1.89c-0.23-0.3-0.52-0.54-0.81-0.78c-0.32-0.19-0.66-0.36-1.03-0.45
				c-1.46-0.42-3.03-0.44-4.53-0.25c-1.51,0.19-3,0.57-4.39,1.2c-0.35,0.14-0.7,0.3-1.03,0.48c-0.34,0.18-0.68,0.33-1,0.53
				c-0.64,0.41-1.28,0.8-1.87,1.28c-2.4,1.82-4.32,4.2-5.68,6.83L624.02,354.95z"/>
			<path class="st41" d="M641.38,354.05c1.56-1.78,3.15-3.57,5.25-4.98c0.55-0.32,1.11-0.63,1.68-0.94l0.93-0.34
				c0.31-0.11,0.62-0.24,0.96-0.28c1.32-0.34,2.78-0.21,4.06,0.16c1.31,0.38,2.4,1.07,3.39,1.7c0.49,0.31,0.96,0.65,1.39,0.9
				c0.44,0.29,0.82,0.42,1.05,0.48c0.34,0.03,0.69,0.01,1.02-0.12c0.34-0.14,0.68-0.36,1.01-0.65c0.64-0.58,1.24-1.49,1.61-2.29
				l1.25,0.52c-0.42,1.06-1.01,2.07-1.84,2.91c-0.42,0.41-0.91,0.77-1.46,1.02c-0.56,0.24-1.19,0.33-1.82,0.3
				c-1.31-0.21-2.25-0.96-3.24-1.5c-0.97-0.56-1.94-1.09-2.96-1.32c-2.03-0.51-4.05,0.15-5.73,1.43c-1.7,1.27-3.1,2.99-4.45,4.71
				L641.38,354.05z"/>
			<path class="st43" d="M664.96,353.94c-13.48,50.13-57.96,43.75-72,3.47c0.85-0.28,2.16-0.54,3.84-0.8
				c12.35-1.83,45.03-2.92,65.97-2.7C663.52,353.93,664.25,353.94,664.96,353.94z"/>
			<path class="st44" d="M664.96,353.94c-13.48,50.13-57.96,43.75-72,3.47c0.85-0.28,2.16-0.54,3.84-0.8
				c4.54,6.62,15.96,20.02,34.35,20.29c18.1,0.26,27.8-15.03,31.61-22.99C663.52,353.93,664.25,353.94,664.96,353.94z"/>
			<path class="st41" d="M606.39,367.04c0.04-0.94,0.09-1.92-0.17-2.71c-0.23-0.79-0.67-1.42-1.46-1.96
				c-0.76-0.56-1.79-1.04-2.73-1.83c-0.96-0.79-1.63-2.01-1.81-3.16c-0.07-0.38-0.12-0.77-0.14-1.17c-0.05-0.78,0.04-1.57,0.38-2.35
				c0.27-0.56,0.72-1.1,1.33-1.34c0.28-0.16,0.6-0.17,0.89-0.25c0.3,0.01,0.61-0.04,0.89,0.03c2.2,0.34,3.87,1.71,5.32,3.15
				c-0.66,0.05-1.32,0.09-1.96,0.14c-0.35-0.27-0.7-0.52-1.08-0.73c-0.8-0.47-1.67-0.81-2.4-0.87c-0.19-0.04-0.33,0.02-0.5,0
				c-0.11,0.06-0.28,0.05-0.35,0.13c-0.21,0.07-0.3,0.24-0.42,0.48c-0.14,0.33-0.17,0.86-0.12,1.42c0.03,0.29,0.07,0.59,0.14,0.88
				c0.19,0.84,0.56,1.42,1.2,1.92c0.64,0.52,1.59,0.91,2.65,1.57c1.06,0.61,2.11,1.8,2.56,3.07c0.49,1.28,0.48,2.5,0.5,3.69
				L606.39,367.04z"/>
		</g>
		<path class="st6" d="M553.62,383.44c-17.59,4.4-12.55,36.36,1.29,37.01c13.84,0.64,52.13-28,52.13-28l-1.61-9.65
			C605.43,382.79,565.2,380.54,553.62,383.44z"/>
		<path class="st6" d="M605.43,382.79c0,0,8.68-2.05,11.78-3.14c3.1-1.09,14.58,2.55,18.59,1.46c4.01-1.09,5.83,3.1,0.73,4.92
			c-5.1,1.82-12.76,1.82-12.76,1.82s-12.33,5.55-16.74,4.6C602.63,391.5,605.43,382.79,605.43,382.79z"/>
		<path class="st6" d="M607.04,392.45c0,0,28.58,3.24,31.32,1.78c2.73-1.46,11.12-11.48,11.85-14.22c0.73-2.73-6.56,0.91-9.3,3.65
			c-2.73,2.73-5.1,6.2-5.1,6.2s-11.85,0.18-16.22-1.46C615.2,386.76,607.04,392.45,607.04,392.45z"/>
		<path class="st6" d="M612.5,392.45c0,0,28.58,3.24,31.32,1.78c2.73-1.46,11.12-11.48,11.85-14.22c0.73-2.73-6.56,0.91-9.3,3.65
			c-2.73,2.73-5.1,6.2-5.1,6.2s-14.04-0.91-18.41-2.55C618.49,385.66,612.5,392.45,612.5,392.45z"/>
		<path class="st39" d="M615.02,239.05c-2.4-0.04-4.07-0.16-4.07-0.16l-0.9-1.57c0,0,1.83,0.05,4.42-0.03
			C614.75,237.96,614.92,238.56,615.02,239.05z"/>
		<path class="st40" d="M613.48,235.11c1.51,1.57,1.11,6.69,1.11,6.69S617.34,236.95,613.48,235.11z"/>
		<path class="st40" d="M630.02,245.09c-0.37,0.96-0.84,1.54-1.36,1.83c-0.5,0.09-1.34,0.21-1.83,0.13
			c-0.89-0.35-1.64-1.2-1.77-1.96c-0.72,6.11-2.19,1.11-2.69-0.47c-1.25,6.5-3.94,5.31-4.38,2.14c-0.38,1.27-0.87,1.93-1.39,2.17
			c0.22,0.39,0.46,0.78,0.72,1.17c1.17,1.7,2.59,3.74,3.16,6.12c0.11,0.45,0.2,0.93,0.24,1.43l-0.04,0.01
			c-0.79-3.67-5.18-9.17-5.18-9.17s0.79-0.33,1.71-2.69c0.91-2.36,0-8.85-1.18-11.21c1.57,1.64,2.43,8.52,2.17,10.82
			s0.71,2.88,1.57,2.95c0.85,0.06,0.13-7.21-1.12-9.51c1.18,0.2,2.37,5.9,2.43,6.62c0.06,0.72,0.99-1.77,0.99-1.77
			s-0.33-8.66-1.31-11.34c1.57,2.16,1.83,9.71,1.96,10.95c0.14,1.24,0.72,2.36,1.18,2.42c0.44,0.06,2.11-4.44,2.58-7.06
			c-0.73,4.39-0.48,6.42-0.28,7.06c0.2,0.66,1.17,1.45,2.88-1.37c1.41-2.33,2.23-6.35,2.33-9.05
			C631.6,238.54,630.91,242.8,630.02,245.09z"/>
	</g>
	<g>
		<polygon class="st10" points="826.88,228.72 841.37,225.83 838.14,221.07 824.59,227.86 		"/>
		<path class="st45" d="M686.29,136.8c-2.49,18.54,1.17,33.65,3.31,50.82c2.14,17.17-17.11,53.54-17.11,53.54
			s50.02,19.9,112.79,15.43c-7.48-26.09,1.82-67.46,17.84-81.55c16.01-14.09-6.71-57.28-6.71-57.28L686.29,136.8z"/>
		<path class="st6" d="M686.39,303.23c2.07,19.72,5.71,41.32,7.32,53.79c3.12,24.11-2.15,107.2-7.76,132.37
			c9.37,1.1,91.06,10.65,91.06,10.65s0.68-128.59-2.11-192.89c-0.79-18.28-1.86-31.37-3.32-34.81
			c-6.97-16.55-28.52-27.67-28.52-27.67l-1.57-27.19l-16.04-12.57l-5.81,37.02c0,0-24.3,7.25-32.02,20
			C683.9,268.08,684.46,284.84,686.39,303.23z"/>
		<path class="st6" d="M770.87,385.37c2.86,13.44,13.06,25.47,16.5,26.47c3.45,1,7.6-4.16,8.69-5.82
			c0.41-0.63-1.73-16.37-5.04-37.07c-1.28-7.94-2.72-16.63-4.25-25.47c-4.97-28.48-10.9-58.59-15.18-71.14
			C771.59,272.34,760,334.27,770.87,385.37z"/>
		<path class="st1" d="M784.86,395.03c1.32,3.66,4.08-12.14,6.16-26.08c-1.28-7.94-2.72-16.63-4.25-25.47
			C778.83,372.89,782.65,388.95,784.86,395.03z"/>
		<path class="st6" d="M787.37,411.83c5.1,2.08,15.16-5.72,19.35-18.22c5.93-17.71,3.3-117.37,3.3-117.37l-5.83-6.02
			c0,0-18.59,93.32-19.91,107.12C782.96,391.13,787.37,411.83,787.37,411.83z"/>
		<path class="st46" d="M789.44,240.49c-0.21,1.76-0.2,3.49,0,5.17c1.16,10.07,9.11,18.4,19.62,19.63
			c12.27,1.43,23.37-7.34,24.8-19.61c0.73-6.21-1.16-12.13-4.8-16.63c-3.55-4.41-8.74-7.47-14.8-8.18
			C801.99,219.44,790.88,228.22,789.44,240.49z"/>
		<path class="st47" d="M789.44,245.66c1.16,10.07,9.11,18.4,19.62,19.63c12.27,1.43,23.37-7.34,24.8-19.61
			c0.73-6.21-1.16-12.13-4.8-16.63C839.16,249.04,797.87,265.28,789.44,245.66z"/>
		<path class="st48" d="M828.45,225.52c11.66-12.78,4.62-27.55,4.62-27.55S819.98,209.39,828.45,225.52z"/>
		<path class="st49" d="M686.39,303.23c0.24,2.35,0.51,4.73,0.8,7.12c2.11,17.63,5.11,35.69,6.52,46.68
			c3.12,24.11-2.15,107.2-7.76,132.37c9.37,1.1,91.06,10.65,91.06,10.65s0.34-63.83-0.44-124.03c-0.33-25.25-0.85-49.86-1.68-68.85
			c-3.34,0.72-7.63,1.21-12.51,1.51l-5.71-57.06l-5.23-4.19l3.78,61.54c-11.18,0.24-24.36-0.3-36.73-1.34
			c-1.12-12.28-6.61-64.82-6.61-64.82l-6.72,2.44l6.74,61.78c-5.23-0.53-10.21-1.14-14.69-1.81c-0.5-0.07-0.99-0.14-1.47-0.23
			C692.28,304.42,689.11,303.84,686.39,303.23z"/>
		<path class="st50" d="M693.71,357.02c3.12,24.11-2.15,107.2-7.76,132.37c9.37,1.1,91.06,10.65,91.06,10.65s0.34-63.83-0.44-124.03
			c-19.84,91.06-78.79-12.12-79.34-70.82c-0.01-0.38-0.01-0.75-0.01-1.13c0,0-0.57,0.35-1.46,0.9c-2.12,1.31-6.08,3.76-8.58,5.39
			C689.3,327.98,692.3,346.04,693.71,357.02z"/>
		<g>
			
				<rect x="723.97" y="367.33" transform="matrix(-0.973 -0.2307 0.2307 -0.973 1352.6538 899.5923)" class="st51" width="9.91" height="6.76"/>
			
				<rect x="723.62" y="360.73" transform="matrix(-0.973 -0.2307 0.2307 -0.973 1356.9523 887.7813)" class="st52" width="13.53" height="7.65"/>
			<path class="st51" d="M713.06,380.7c1.67-7.06,8.75-11.42,15.81-9.75l0,0c7.06,1.67,11.42,8.75,9.75,15.81l-14.76,62.23l0,0
				c-0.6,2.54-3.15,4.12-5.7,3.52c-1.08-0.26-1.97-0.86-2.61-1.67c-0.6-0.77-1.61-1.01-2.49-0.59c-0.93,0.44-2,0.58-3.08,0.32
				c-1.08-0.26-1.97-0.86-2.61-1.67c-0.6-0.77-1.61-1.01-2.49-0.59c-0.93,0.44-2,0.58-3.08,0.32c-2.55-0.6-4.11-3.16-3.51-5.7l0,0
				L713.06,380.7z"/>
			<path class="st53" d="M702.24,446.81c0.63,0.15,1.26,0.08,1.85-0.2c0.81-0.39,1.73-0.49,2.59-0.28c0.84,0.2,1.62,0.71,2.17,1.41
				c0.4,0.51,0.94,0.85,1.56,1c0.63,0.15,1.26,0.08,1.85-0.2c0.81-0.39,1.73-0.49,2.58-0.28c0.85,0.2,1.63,0.71,2.18,1.41
				c0.4,0.51,0.94,0.85,1.56,1c1.53,0.37,3.08-0.59,3.44-2.12l0.43-1.83l0.01,0l12.01-50.65l-22.52-2.63l-11.41,48.09l-0.42,1.83
				C699.77,444.89,700.72,446.45,702.24,446.81z"/>
		</g>
		<path class="st6" d="M701.99,411.1l6.75-12.23l0.63,8.24c0,0,21.9-0.12,24.37,0.19c2.47,0.31,1.55,0.95,0.84,2.76
			c-0.72,1.81-6.69,3.13-6.69,3.13s3.75-0.57,4.53,0.53c0.77,1.1,0.3,2.75-0.37,3.15c-0.67,0.41-5.69,8.92-7.3,9.74
			c-1.61,0.82-22.34-5.22-23.74-7.95C699.6,415.93,701.99,411.1,701.99,411.1z"/>
		<path class="st6" d="M687.62,261.93c-17.85,44.28-36.95,146.13-32.81,150.29c4.14,4.16,46.19,6.44,46.19,6.44l0.99-7.56
			c0,0-16.02-19.97-25.86-15.39c2.81-17.92,18.63-85.86,21.1-91.66C699.7,298.25,687.62,261.93,687.62,261.93z"/>
		<path class="st6" d="M804.19,270.22c0,0,0.97-3.99,4.59-5.96c3.62-1.97,12.52-3.12,14.89-4.63s5.54-13.3,6.79-13.75
			c1.25-0.45,2.56,0.3,2.56,0.3s0.98-3.27,2.21-3.53c1.23-0.26,2.64,1.3,2.91,2.33c0.28,1.03-5.05,15.95-7.89,19.8
			c-2.84,3.85-17.93,11.01-20.22,11.46S804.19,270.22,804.19,270.22z"/>
		<path class="st6" d="M803.38,164.54c-16.88,37.93-45.99,57.51-62.71,55.87c-16.73-1.64-26.93-23.58-28.69-46.77
			c-1.76-23.19,16.93-46.54,16.93-46.54l67.04-16.42l8.04,7.64L803.38,164.54z"/>
		<path class="st45" d="M803.11,175.04c-10.38-14.94-8.98-51.49-8.98-51.49s-23,35.62-75.51,28.84
			c-10.47-0.59-35.19,6.1-32.33-15.59s20.85-63.64,61.8-67.15c40.95-3.51,53.13,39.73,53.13,39.73s24.64,13.1,22.25,33.57
			S803.11,175.04,803.11,175.04z"/>
		<path class="st31" d="M769.95,164.02c-7.11,14.58-6.24,24.28-6.91,26.61c-0.67,2.32-10.45,0.38-12.94-5.72
			c4.57,3.74,10,5.17,10.85,3.07C761.8,185.88,763.47,169.86,769.95,164.02z"/>
		<path class="st13" d="M738.28,205.97c3.77-1.77,10.09-4.62,13.98-6.37c2.05-0.91,3.42-1.52,3.42-1.52
			c-8.13-4.13-16.45-14.65-17.05-20.71C733.97,188.43,737.04,203.76,738.28,205.97z"/>
		<path class="st14" d="M738.63,177.37c-0.72,7.7,1.96,14.79,13.63,22.24c2.05-0.91,3.42-1.52,3.42-1.52
			C747.55,193.95,739.23,183.43,738.63,177.37z"/>
		<path class="st11" d="M777.38,169.52c-2.37,3.96-2.64,8.17-0.59,9.4c2.05,1.23,5.63-0.99,8.01-4.96c2.37-3.96,2.64-8.17,0.59-9.4
			C783.34,163.34,779.75,165.56,777.38,169.52z"/>
		<path class="st11" d="M786.26,175.08c2.43-11.13-5.56-11.69-8.52-10.36C786.03,157.83,792.46,163.64,786.26,175.08z"/>
		<path class="st11" d="M748.85,154.02c-2.37,3.96-2.64,8.17-0.59,9.4c2.05,1.23,5.63-0.99,8.01-4.96c2.37-3.96,2.64-8.17,0.59-9.4
			C754.81,147.83,751.23,150.05,748.85,154.02z"/>
		<path class="st11" d="M757.19,159.51c2.43-11.13-5.56-11.69-8.52-10.36C759.74,139.95,762.05,150.55,757.19,159.51z"/>
		<path class="st45" d="M795.43,169.84c-0.87-12.15-12.64-17.8-15.54-17.28C787.19,147.61,798.38,156.28,795.43,169.84z"/>
		<path class="st6" d="M719.4,156.63c6.69-24.44-14.68-21.83-18.06-1.15C697.96,176.15,713.53,184.99,719.4,156.63z"/>
	</g>
	<g>
		<polygon class="st6" points="207.86,461.74 212.04,470.78 222.38,472.16 226.06,462.87 218.4,449.03 		"/>
		<path class="st6" d="M283.9,480.19l5.24,51.49c0,0-4.31,9.27-9.54,19.97c-1.1,2.25-2.24,4.56-3.39,6.86
			c-1.63,3.27-3.29,6.53-4.87,9.55c-3.49,6.69-7.1,11.99-8.5,14.56c-18.79,34.53-39.94,39.49-41.26,36.54
			c-1.33-2.95,10.71-37.76,10.71-37.76s11.86-22.73,15.67-32.85c1.07-2.82,2.24-5.89,3.47-9.14c1.02-2.65,2.08-5.42,3.18-8.25
			c9.14-23.64,20.6-51.92,25.51-58.64L283.9,480.19z"/>
		<path class="st54" d="M283.9,480.19l5.24,51.49c0,0-4.31,9.27-9.54,19.97c-1.1,2.25-2.24,4.56-3.39,6.86
			c-6.54-2.81-15.97-8.38-24.77-19.09c1.02-2.65,2.08-5.42,3.18-8.25c9.14-23.64,20.6-51.92,25.51-58.64L283.9,480.19z"/>
		<path class="st55" d="M279.6,551.64c-1.1,2.25-2.24,4.56-3.39,6.86c-6.54-2.81-15.97-8.38-24.77-19.09
			c1.02-2.65,2.08-5.42,3.18-8.25C264.03,542.58,272.54,548.18,279.6,551.64z"/>
		<path class="st54" d="M447.94,618.73c-6.61,2.63-21.19-15.03-29.15-26.25c-1.94-2.74-3.49-5.09-4.43-6.66
			c-1.09-1.83-3.05-6.17-5.43-11.75c-1.26-2.97-2.65-6.3-4.08-9.8c-0.97-2.37-1.96-4.83-2.96-7.3c-0.93-2.29-1.85-4.61-2.76-6.89
			c-3.54-8.88-6.85-17.35-8.93-22.69c-1.38-3.55-2.21-5.72-2.21-5.72s-7.45,43.8-6.53,70.87c0.92,27.07,9.24,96.74,9.24,96.74
			l-95.47,9.72c0,0-0.37-54.59-3.98-78.03c-3.61-23.45-13.74-41.95-12.97-52.4c0.31-4.2,1.14-11.04,2.08-18.17
			c1.38-10.62,3-21.93,3.46-26.35c0.77-7.4-8.6-45.52-3.72-51.51c2.33-2.86,9.33-8.13,16.03-12.86c1.45-1.03,2.88-2.03,4.25-2.98
			c5.58-3.85,10.07-6.79,10.07-6.79l2.43-27.11l24.76-26.64l0.36,48.5c0,0,8.47,2.03,18.88,5.16c1.69,0.51,3.44,1.05,5.21,1.61
			c11.81,3.75,24.66,8.61,30.16,13.35c6.84,5.9,24.62,43.61,38.53,75.55c0.82,1.87,1.62,3.72,2.41,5.55
			c0.96,2.23,1.89,4.41,2.79,6.54c6.79,15.96,11.91,28.85,13.12,32.95C452.85,598.09,456.15,615.46,447.94,618.73z"/>
		<path class="st56" d="M390.21,527.39c-1.38-3.55-2.21-5.72-2.21-5.72s-7.45,43.8-6.53,70.87c0.92,27.07,9.24,96.74,9.24,96.74
			l-8.13,0.83c-8.02-19.35-37.39-86.45-58.88-86.29c-21.43,0.16-24.03,73.3-24.33,94.76l-4.12,0.42c0,0-0.37-54.59-3.98-78.03
			c-3.61-23.45-13.74-41.95-12.97-52.4c0.31-4.2,1.14-11.04,2.08-18.17c0.58,6.46,1.38,12.22,2.46,15.4
			c3.4,10.08,76.41,0.75,86.19-10.2c9.8-10.94,19.83-38.04,19.83-38.04L390.21,527.39z"/>
		<path class="st55" d="M436,552.39l-31.15,11.88c-0.97-2.37-1.96-4.83-2.96-7.3c-0.93-2.29-1.85-4.61-2.76-6.89
			c11.82-0.58,25.81-6.88,31.67-9.77c0.82,1.87,1.62,3.72,2.41,5.55C434.17,548.08,435.1,550.26,436,552.39z"/>
		<path class="st6" d="M447.94,618.73c-6.61,2.63-21.19-15.03-29.15-26.25c-1.94-2.74-3.49-5.09-4.43-6.66
			c-1.09-1.83-3.05-6.17-5.43-11.75c-2.12-4.98-4.58-10.98-7.04-17.1c12.85-1.29,25.08-7.48,31.32-11.11
			c8.14,18.89,14.55,34.84,15.91,39.48C452.85,598.09,456.15,615.46,447.94,618.73z"/>
		<path class="st55" d="M362.11,451.4l-2.21,1.89c-8.28,7.07-20.07,11.99-31.54,13.16c-10.63,1.08-20.76-0.83-30.09-5.69l-2.12-1.11
			c1.45-1.03,2.88-2.03,4.25-2.98c5.58-3.85,10.07-6.79,10.07-6.79l2.43-27.11l24.76-26.64l0.36,48.5c0,0,8.47,2.03,18.88,5.16
			C358.6,450.31,360.35,450.84,362.11,451.4z"/>
		<path class="st1" d="M356.91,449.8c-11.65,9.95-34.78,18.2-56.5,6.88c5.58-3.85,10.07-6.79,10.07-6.79l2.43-27.11l24.76-26.64
			l0.36,48.5C338.02,444.64,346.49,446.67,356.91,449.8z"/>
		<path class="st42" d="M413.04,331.86c2.28,26.36-21.12,47.56-38.73,41.86c-2.04-0.67-4-1.69-5.84-3.11
			c-13.04-31.71-39.88-85.4-39.88-85.4c0.88-1.58,1.8-3.06,2.75-4.43c20.01-28.91,54.6-12.31,64.87,9.32
			C417.85,301.29,418.85,324.97,413.04,331.86z"/>
		<path class="st57" d="M374.31,373.72c-2.04-0.67-4-1.69-5.84-3.11c-13.04-31.71-39.88-85.4-39.88-85.4
			c0.88-1.58,1.8-3.06,2.75-4.43c16.35,1.35,34.54,9.25,45.03,28.96C389.01,333.48,382.83,358.82,374.31,373.72z"/>
		<path class="st6" d="M260.8,331.06c-2.47,23-1.88,57.48,1.22,71.9c3.1,14.42,14.67,42.45,30.9,44.1
			c16.23,1.66,41.15-17.82,47.24-44.34c6.09-26.53,4.79-61.37-1.04-78.78C333.3,306.54,274.25,301.6,260.8,331.06z"/>
		<path class="st42" d="M397.5,345.4c7.33,22-38.18,69.53-57.91,38c-0.19-0.3-0.38-0.61-0.56-0.92c-2.03-3.49-3.75-7.25-5.18-11.19
			c-3.96-10.82-5.87-22.98-6.63-34.49c-1.61-24.31,1.9-45.77,1.9-45.77c1.97-2.01,4.02-3.68,6.11-5.06
			c21.77-14.37,48.82,2.95,51.57,13.69C402.37,307.15,406.25,336.35,397.5,345.4z"/>
		<path class="st57" d="M354.94,390.22c-5.05,4.8-9.01-10.32-15.34-6.82c-0.14,0.08-0.29,0.17-0.44,0.27
			c-3.11-3.99-4.58-8.14-5.3-12.38c-1.86-10.93,1.23-22.48-6.02-33.6c-0.2-0.3-0.39-0.6-0.61-0.89c-1.61-24.31,1.9-45.77,1.9-45.77
			c1.97-2.01,4.02-3.68,6.11-5.06c12.41,1.64,24.87,8.36,33.67,24.89C385.09,341.26,365.87,379.84,354.94,390.22z"/>
		<path class="st42" d="M260.8,331.06c7.12-11.15,43.33-21.46,61.24,6.02c10.05,15.43,0.21,31.7,11.33,45.98
			c6.58-4.46,10.6,11.46,15.77,6.55c10.92-10.38,30.16-48.96,13.97-79.37c-16.18-30.41-44.79-27.58-62.57-21.12
			C274.51,298.57,261.27,316.69,260.8,331.06z"/>
		<path class="st6" d="M331.66,394.78c-0.53-17.09,1.05-22.65,9.36-25.74c13.81-5.13,11.12,32.1,1.98,34.58
			C333.86,406.1,331.66,394.78,331.66,394.78z"/>
		<path class="st12" d="M281.63,370.6c0,0-7.08,23.68-5.5,28.05c1.58,4.37,12.44,0.53,12.44,0.53s-7.28-0.22-9.07-2.18
			C277.71,395.03,281.63,370.6,281.63,370.6z"/>
		<path class="st11" d="M302.41,369.07c1.41,4.45,0.62,8.67-1.78,9.43c-2.39,0.76-5.48-2.23-6.89-6.67
			c-1.41-4.45-0.62-8.67,1.78-9.43C297.91,361.64,301,364.62,302.41,369.07z"/>
		<path class="st11" d="M290.92,369.7c4.35-8.98,11.51-4.24,14.57-0.73C299.82,355.38,290.39,357.6,290.92,369.7z"/>
		<path class="st11" d="M274.32,373.23c1.41,4.45,0.75,8.63-1.49,9.34s-5.2-2.32-6.61-6.76c-1.41-4.45-0.75-8.63,1.49-9.34
			S272.91,368.78,274.32,373.23z"/>
		<path class="st11" d="M263.53,373.64c3.92-8.84,10.74-4,13.69-0.45C271.62,359.57,262.8,361.6,263.53,373.64z"/>
		<path class="st42" d="M287.19,351.21c9.96-2.97,20.58,2.23,25.58,5.7C306.79,343.62,291.09,341.41,287.19,351.21z"/>
		<path class="st42" d="M274.2,352.62c-8.48-2.17-14.85,4.14-15.29,5.83C259.72,346.89,270.02,344.98,274.2,352.62z"/>
		<path class="st13" d="M308.95,395.14c-0.02,1.04-0.07,2.09-0.16,3.15c-0.37,4.53-1.3,9.21-2.72,13.54
			c-2.7,8.24-7.15,15.17-12.63,17.27c-2.86,1.09-5.54-0.55-7.86-3.31c-3.33-3.97-5.93-10.24-7.3-13.97
			c-0.68-1.86-1.05-3.09-1.05-3.09C289.23,407.25,303.06,400.95,308.95,395.14z"/>
		<path class="st14" d="M308.95,395.14c-0.02,1.04-0.07,2.09-0.16,3.15c-6.11,6.54-20.1,14.56-30.51,13.53
			c-0.68-1.86-1.05-3.09-1.05-3.09C289.23,407.25,303.06,400.95,308.95,395.14z"/>
		<path class="st15" d="M306.07,411.83c-2.7,8.24-7.15,15.17-12.63,17.27c-2.86,1.09-5.54-0.55-7.86-3.31
			C289.93,417.9,301.89,413.24,306.07,411.83z"/>
		<g>
			<path class="st8" d="M261.32,435.24c-2.71,8.69-11.95,13.54-20.65,10.83s-13.54-11.95-10.83-20.65
				c2.71-8.69,11.95-13.54,20.65-10.83C259.18,417.31,264.03,426.55,261.32,435.24z"/>
			<path class="st10" d="M236.36,414.76c-2.5,2.15,4.43,2.42,5.52,2.99c1.09,0.57-1.97,2.61-0.75,4.26
				c1.22,1.65,6.97-1.29,8.43,0.67c1.46,1.95-3.8,8.49-0.62,10.87c3.18,2.37,6.21-0.71,8.14-0.23c1.92,0.48-3.11,8.13-2.33,10.45
				c0.78,2.32,5.18-0.35,7.57-8.01c2.39-7.67,1.6-15.86-7.09-20.88C246.53,409.87,237.93,413.41,236.36,414.76z"/>
			<path class="st12" d="M249.27,446.78c0,0-1.92,1.04-5.03,2.68c-0.56,0.3-1.15,0.62-1.78,0.95c-1.55,0.81-3.29,1.73-5.18,2.73
				c-0.29,0.15-0.59,0.31-0.9,0.47c-1.31,0.68-2.68,1.4-4.09,2.12c-0.64,0.34-1.28,0.67-1.93,1.01c-1.64,0.85-3.32,1.71-5.02,2.58
				c-0.31,0.17-0.6,0.31-0.91,0.47c-1.6,0.83-3.21,1.64-4.8,2.45c-0.02,0.01-0.04,0.02-0.06,0.03c-0.71,0.36-1.42,0.72-2.13,1.08
				c-0.53,0.26-1.05,0.52-1.57,0.78c-0.8,0.39-1.59,0.79-2.36,1.17c-0.31,0.15-0.62,0.3-0.92,0.46c-1.73,0.84-3.4,1.65-4.96,2.39
				c-0.31,0.15-0.63,0.3-0.93,0.45c-0.29,0.13-0.58,0.27-0.87,0.4c-0.84,0.39-1.64,0.76-2.4,1.1c-0.58,0.27-1.16,0.52-1.69,0.75
				c-0.32,0.14-0.62,0.28-0.92,0.41c-3.12,1.32-5.12,1.96-5.35,1.55c-0.14-0.25,0.18-1,0.86-2.13c0.17-0.3,0.37-0.62,0.6-0.98
				c0.87-1.36,2.09-3.1,3.55-5.07c0.48-0.64,0.98-1.32,1.5-2.02c0.97-1.29,2.02-2.65,3.12-4.07c0.25-0.32,0.51-0.66,0.76-0.99
				c0.38-0.49,0.76-0.99,1.16-1.48c0.32-0.41,0.64-0.82,0.97-1.23c0.62-0.8,1.25-1.59,1.89-2.39c0.26-0.33,0.53-0.66,0.79-0.99
				c0.78-0.99,1.58-1.98,2.36-2.96c0.33-0.4,0.65-0.81,0.98-1.21c0.26-0.32,0.51-0.64,0.77-0.96c0.28-0.33,0.53-0.66,0.8-0.99
				c1.2-1.48,2.37-2.9,3.47-4.27c0.52-0.63,1.03-1.25,1.52-1.85c1.58-1.93,3.01-3.67,4.21-5.11c0.45-0.55,0.88-1.06,1.26-1.52
				c1.56-1.89,2.49-3,2.49-3l2.34,1.94l0.89,0.74l0.4,0.33l0.07,0.07l0.94,0.78l0.8,0.66l2.48,2.05l0.9,0.75l1.2,0.99l0.01,0
				l1.03,0.85l2.58,2.14l0.91,0.76l2.13,1.77l1.06,0.88L249.27,446.78z"/>
			<path class="st58" d="M243.08,444.41c1.15-0.05,2.21-0.08,3.2-0.1l-1.06-0.88c-0.67,0.01-1.4,0.04-2.14,0.07
				c0-0.59,0.01-1.2,0.01-1.84l-0.91-0.76c-0.01,0.92-0.01,1.8-0.01,2.64c-1.56,0.08-3.23,0.16-4.96,0.26
				c0.02-1.55,0.06-3.2,0.1-4.88c0.77-0.05,1.55-0.11,2.3-0.15l-1.03-0.85l-0.01,0c-0.41,0.03-0.82,0.05-1.23,0.08
				c0.01-0.35,0.02-0.71,0.03-1.08l-0.9-0.75c-0.03,0.63-0.04,1.26-0.06,1.88c-1.61,0.11-3.24,0.23-4.86,0.34
				c0.05-1.61,0.12-3.23,0.18-4.82c0.48-0.03,0.97-0.08,1.46-0.11l-0.94-0.78l-0.07-0.07c-0.14,0.01-0.28,0.03-0.42,0.04
				c0-0.12,0.01-0.24,0.01-0.36l-0.89-0.74c-0.02,0.39-0.03,0.78-0.05,1.18c-1.68,0.13-3.29,0.26-4.81,0.38
				c0.01-0.17,0.02-0.33,0.02-0.49c-0.38,0.46-0.81,0.97-1.26,1.52c0.08-0.01,0.18-0.02,0.27-0.02c-0.07,1.55-0.13,3.16-0.2,4.8
				c-1.49,0.12-2.94,0.23-4.29,0.34c-0.49,0.59-1,1.21-1.52,1.85c-0.06,1.3-0.11,2.65-0.16,4.01c-1.15,0.09-2.27,0.18-3.31,0.26
				c-0.27,0.33-0.53,0.66-0.8,0.99c1.28-0.1,2.64-0.21,4.08-0.33c-0.06,1.6-0.12,3.23-0.16,4.82c-1.67,0.12-3.29,0.26-4.84,0.38
				c0.04-1.32,0.09-2.62,0.15-3.91c-0.32,0.4-0.64,0.8-0.98,1.21c-0.04,0.92-0.07,1.84-0.1,2.78c-0.77,0.06-1.53,0.12-2.26,0.18
				c-0.27,0.33-0.53,0.66-0.79,0.99c0.95-0.08,1.96-0.16,3.01-0.24c-0.05,1.6-0.1,3.21-0.15,4.8c-1.68,0.13-3.31,0.26-4.85,0.39
				c0.02-0.85,0.06-1.71,0.09-2.55c-0.33,0.41-0.65,0.83-0.97,1.23l-0.05,1.39c-0.38,0.03-0.75,0.06-1.11,0.09
				c-0.26,0.33-0.52,0.66-0.76,0.99c0.59-0.06,1.21-0.1,1.84-0.15c-0.05,1.61-0.11,3.22-0.14,4.8c-1.7,0.14-3.33,0.27-4.86,0.4
				c0.01-0.32,0.02-0.65,0.03-0.97c-0.52,0.7-1.02,1.37-1.5,2.02c0.16-0.01,0.33-0.03,0.5-0.04c-0.05,1.62-0.1,3.23-0.13,4.8
				c-1.37,0.11-2.68,0.21-3.92,0.31c-0.23,0.35-0.43,0.68-0.6,0.98c1.41-0.12,2.92-0.24,4.51-0.37c0,0.32-0.02,0.63-0.02,0.95
				c0.3-0.13,0.6-0.27,0.92-0.41c0-0.2,0.01-0.41,0.01-0.61c0.55-0.04,1.1-0.08,1.67-0.13c0.76-0.33,1.57-0.71,2.4-1.1
				c-1.38,0.11-2.74,0.21-4.05,0.31c0.04-1.57,0.09-3.17,0.13-4.8c1.53-0.12,3.16-0.26,4.86-0.39c-0.04,1.53-0.07,3.04-0.08,4.47
				c0.3-0.15,0.62-0.29,0.93-0.45c0.02-1.32,0.04-2.7,0.08-4.1c1.6-0.13,3.25-0.24,4.91-0.37c-0.01,0.71-0.02,1.4-0.02,2.08
				c0.3-0.16,0.61-0.3,0.92-0.46c0-0.55,0.02-1.11,0.03-1.68c1.3-0.09,2.61-0.19,3.9-0.27c0.71-0.35,1.42-0.71,2.13-1.08
				c-0.05,0.01-0.1,0.01-0.15,0.01c0-1.5,0.02-3.14,0.05-4.86c1.66-0.12,3.32-0.23,4.95-0.34c0,0.95,0,1.86,0.01,2.71
				c0.3-0.16,0.6-0.31,0.91-0.47c-0.01-0.72-0.01-1.49-0.01-2.29c1.73-0.11,3.42-0.22,5.02-0.29c0.65-0.34,1.29-0.68,1.93-1.01
				c-0.33,0.01-0.67,0.02-1.01,0.04c-0.03-1.44-0.03-3.09-0.02-4.91c1.74-0.1,3.43-0.2,5.01-0.27c0.02,1.14,0.06,2.15,0.11,3.01
				c0.31-0.17,0.6-0.32,0.9-0.47c-0.05-0.75-0.07-1.62-0.09-2.59c1.95-0.09,3.74-0.15,5.27-0.17c0,0.01,0.01,0.02,0,0.03
				c0.63-0.34,1.22-0.65,1.78-0.95c-0.31,0-0.63,0-0.97,0C243.16,448.24,243.1,446.5,243.08,444.41z M236.38,438.97
				c-0.05,1.68-0.07,3.32-0.1,4.88c-1.6,0.1-3.24,0.2-4.9,0.32c0.04-1.59,0.09-3.21,0.14-4.85
				C233.13,439.2,234.76,439.09,236.38,438.97z M230.45,444.22c-1.62,0.11-3.25,0.23-4.87,0.35c0.05-1.6,0.11-3.22,0.18-4.82
				c1.56-0.12,3.18-0.25,4.83-0.36C230.54,441.02,230.49,442.64,230.45,444.22z M224.5,450.41c-1.63,0.11-3.27,0.23-4.87,0.36
				c0.05-1.6,0.11-3.22,0.16-4.82c1.56-0.13,3.18-0.25,4.84-0.38C224.59,447.21,224.54,448.83,224.5,450.41z M230.8,433.63
				c-0.06,1.59-0.12,3.21-0.18,4.82c-1.64,0.13-3.27,0.25-4.83,0.37c0.07-1.64,0.13-3.25,0.2-4.81
				C227.5,433.89,229.12,433.76,230.8,433.63z M220.02,440.22c1.49-0.12,3.11-0.26,4.81-0.4c-0.06,1.59-0.11,3.21-0.17,4.82
				c-1.65,0.12-3.28,0.25-4.83,0.37C219.89,443.39,219.96,441.78,220.02,440.22z M207.73,463.13c0.04-1.58,0.09-3.19,0.14-4.81
				c1.54-0.13,3.16-0.26,4.85-0.39c-0.04,1.65-0.08,3.27-0.11,4.82C210.96,462.89,209.32,463.01,207.73,463.13z M213.68,456.94
				c0.05-1.58,0.1-3.19,0.15-4.8c1.55-0.12,3.17-0.26,4.84-0.38c-0.04,1.64-0.08,3.26-0.12,4.82
				C216.91,456.7,215.27,456.82,213.68,456.94z M213.54,462.69c0.03-1.55,0.07-3.17,0.11-4.83c1.6-0.13,3.24-0.25,4.89-0.36
				c-0.02,1.71-0.04,3.35-0.05,4.85C216.85,462.46,215.19,462.58,213.54,462.69z M219.48,456.51c0.04-1.56,0.08-3.18,0.13-4.83
				c1.6-0.13,3.24-0.25,4.88-0.36c-0.04,1.69-0.07,3.33-0.07,4.85C222.79,456.28,221.14,456.4,219.48,456.51z M225.43,450.34
				c0.04-1.58,0.08-3.2,0.13-4.85c1.61-0.12,3.25-0.24,4.87-0.36c-0.04,1.7-0.07,3.34-0.08,4.88
				C228.73,450.12,227.09,450.23,225.43,450.34z M225.33,456.12c0.01-1.52,0.04-3.15,0.08-4.85c1.66-0.12,3.31-0.23,4.93-0.33
				c-0.02,1.8-0.01,3.46,0.02,4.9C228.75,455.91,227.06,456.01,225.33,456.12z M231.27,449.96c0.01-1.55,0.04-3.19,0.08-4.88
				c1.67-0.11,3.32-0.22,4.92-0.32c-0.02,1.79-0.03,3.44-0.02,4.93C234.67,449.76,232.99,449.86,231.27,449.96z M237.17,449.65
				c-0.01-1.48-0.01-3.15,0.01-4.94c1.75-0.1,3.43-0.2,4.99-0.26c0.02,2.04,0.07,3.77,0.17,5.02
				C240.83,449.5,239.08,449.57,237.17,449.65z"/>
			<path class="st59" d="M233.98,434.11c-2.66,7.84-10.19,21.07-14.36,28.14c-1.27,0.64-2.53,1.27-3.76,1.89
				c4.24-6.15,13.83-20.86,16.39-31.47L233.98,434.11z"/>
		</g>
		<path class="st6" d="M222.38,472.16l7.74-8.09c0,0,6.38-8.17,7.4-9.38c1.02-1.21-3.35-2.18-5.14,0.41
			c-1.79,2.59-4.55,5.31-4.55,5.31s-5.87,0.71-8.37,4.28S222.38,472.16,222.38,472.16z"/>
		<path class="st6" d="M204.3,455.69c-1.08,2.63,5.89,2.59,6.77,0.54C211.95,454.17,205.2,453.5,204.3,455.69z"/>
		<path class="st6" d="M206.88,450.75c-2.39,5.6,7.3,3.23,8.53,0.68C216.64,448.88,207.32,449.72,206.88,450.75z"/>
		<path class="st6" d="M209.33,447.44c-2.39,5.6,7.3,3.23,8.53,0.68C219.09,445.57,209.77,446.41,209.33,447.44z"/>
		<path class="st6" d="M211.78,444.13c-2.39,5.6,7.3,3.23,8.53,0.68C221.54,442.26,212.22,443.1,211.78,444.13z"/>
		<path class="st27" d="M332.44,553.33c0,0-14.91,33.58-15.13,34.32c-0.13,0.47-15.36-7.71-26.68-13.86l-4.71-19.92l11.66-21.1
			L332.44,553.33z"/>
		<path class="st1" d="M418.8,592.49c-1.94-2.74-3.49-5.09-4.43-6.66c-1.09-1.83-3.05-6.17-5.43-11.75
			c13.5,3.67,22.73,8.96,27.08,17.49C438.87,597.16,427.65,594.97,418.8,592.49z"/>
		<path class="st6" d="M237.58,591.18c-2-24.11-14.49-111.36-15.2-119.02c-0.71-7.66-9.82-2.44-10.34-1.38
			c-0.52,1.06-6.85,70.73-4.62,95.57c2.23,24.84,11.75,51.53,14.27,52.97C224.22,620.76,237.58,591.18,237.58,591.18z"/>
		<g>
			<path class="st6" d="M335.67,559.35c0,0-6.99-11.37-8.22-12.37c-1.23-1.01-6.31-2.75-9.11-2.47c-2.8,0.29-9.5,3.86-10.19,4.22
				c-0.69,0.36-4.68,6.54-5.17,8.76c-0.5,2.22,2.08,3.4,3.59,1.22c1.51-2.18,3.52-6.57,3.52-6.57s8.14-2.27,9.11-2.66
				c0.97-0.39,3.19,10.07,3.54,13.5c0.35,3.43,5.44,7.49,11.44,5.67C338.28,563.86,335.67,559.35,335.67,559.35z"/>
			<path class="st6" d="M320.94,548.15c0,0-9.35,1.82-11.26,2.88c-1.91,1.06-4.97,9.31-5.08,11.06c-0.11,1.74,2.68,2.18,3.65,0.35
				c0.97-1.83,4.23-8.08,4.23-8.08l9.67-2.86L320.94,548.15z"/>
			<path class="st6" d="M323.01,550.11c-0.43,0.04-11.19,2.15-12.22,3.41c-1.03,1.26-2.83,6.21-2.9,6.94
				c-0.07,0.73,0.95,5.1,1.88,5.73c0.93,0.63,3.17-0.03,3.17-1.48c0-1.44-0.95-5.1-0.95-5.1s2.64-3.88,3.62-4.12
				c0.99-0.24,7.89-0.51,7.89-0.51L323.01,550.11z"/>
			<path class="st6" d="M324.33,553.15c0,0-8.72,0.89-9.53,1.4c-0.81,0.52-3.05,2.62-3.12,3.35c-0.07,0.73,3.74,6.98,4.7,6.45
				c0.96-0.53,2.44-1.55,2.35-2.41c-0.09-0.86-2.95-3.45-2.95-3.45l8.23-1.42L324.33,553.15z"/>
		</g>
		<polygon class="st8" points="285.91,553.87 298.94,560.46 290.62,573.79 		"/>
		<polygon class="st27" points="285.91,553.87 297.1,560.83 290.62,573.79 		"/>
		<path class="st6" d="M447.94,618.73c-23.11,3.88-113.77-50.08-113.77-50.08l1.49-9.31c0,0,71.53,18.97,87.91,24.02
			C439.97,588.41,449.84,613.35,447.94,618.73z"/>
	</g>
	<g>
		<path class="st6" d="M802.21,579.1l33.47-79.54l8.62,11.33c0,0-34.33,105.42-40.37,111.71
			C797.89,628.88,802.21,579.1,802.21,579.1z"/>
		<path class="st60" d="M800.74,715c0,0-101.21-19.38-117.01-22.41c2.2-19.3,13.22-144.81,11.62-165.59
			c-0.21-2.65-0.48-5.65-0.78-8.86c-2.12-21.94-5.93-54.16-1.27-58.14c2.9-2.47,18.91-5.18,32.93-7.15c2-0.28,3.96-0.55,5.85-0.79
			c9.17-1.21,16.33-1.97,16.33-1.97l14.2-33.37l21.58,9.72l-6.19,30.44c0,0,9.84,6.84,18.55,14.7c1.14,1.04,2.28,2.1,3.37,3.16
			c4.94,4.82,8.95,9.73,9.65,13.48c0.51,2.66,0.22,17.82-0.49,39.14C806.9,592.46,800.74,715,800.74,715z"/>
		<path class="st61" d="M800.74,715c0,0-101.21-19.38-117.01-22.41c2.2-19.3,13.22-144.81,11.62-165.59
			c-0.21-2.65-0.48-5.65-0.78-8.86l2.34,1.88c0,0,20.63,50.05,66.1,59.25c29.68,6,41.45-27.76,46.05-51.91
			C806.9,592.46,800.74,715,800.74,715z"/>
		<g>
			<g>
				
					<linearGradient id="SVGID_4_" gradientUnits="userSpaceOnUse" x1="772.8605" y1="513.5953" x2="780.0486" y2="520.7834" gradientTransform="matrix(0.9822 0.1881 -0.1881 0.9822 90.7094 -100.1487)">
					<stop  offset="0" style="stop-color:#FFF0A8"/>
					<stop  offset="0.9324" style="stop-color:#E6BE7A"/>
				</linearGradient>
				<path class="st62" d="M750.56,552.36c3.21-4.68,8.05-4.91,9.08-3.39c1.03,1.52,1.94,7.15,1.94,7.15s-5.35,4.6-8.48,2.84
					C749.96,557.2,750.56,552.36,750.56,552.36z"/>
				
					<linearGradient id="SVGID_5_" gradientUnits="userSpaceOnUse" x1="771.2565" y1="514.1412" x2="773.7534" y2="529.2361" gradientTransform="matrix(0.9822 0.1881 -0.1881 0.9822 90.7094 -100.1487)">
					<stop  offset="0" style="stop-color:#FFF0A8"/>
					<stop  offset="0.9324" style="stop-color:#E6BE7A"/>
				</linearGradient>
				<path class="st63" d="M743.95,550.6c1.53-3.68,7.52-3.85,8.08-1.6c0.56,2.26-1.28,6.7,3.12,7.87c4.41,1.17,5.57-4.06,7.86-4.78
					c2.29-0.72,3.49,5.96,1.54,9.22c-1.95,3.26-6.68,4.67-7.16,4.58s-11.16-1.31-15.16-3.73c-4-2.42-6.27-3.52-4.61-6.17
					C739.29,553.34,743.95,550.6,743.95,550.6z"/>
				
					<linearGradient id="SVGID_6_" gradientUnits="userSpaceOnUse" x1="791.2416" y1="509.7324" x2="793.9651" y2="525.3926" gradientTransform="matrix(0.9822 0.1881 -0.1881 0.9822 90.7094 -100.1487)">
					<stop  offset="0" style="stop-color:#FFF0A8"/>
					<stop  offset="0.9324" style="stop-color:#E6BE7A"/>
				</linearGradient>
				<path class="st64" d="M781.14,563.54c-0.82,0.81-1.77,1.56-2.82,2.04c-0.11,0.05-0.23,0.11-0.33,0.16
					c-0.82,0.43-1.42,0.95-1.92,1.52c-1.13,1.29-1.72,2.83-2.99,4.1c-0.16,0.16-0.34,0.33-0.52,0.48c-0.36,0.28-0.76,0.54-1.22,0.78
					c-0.53,0.27-1.1,0.47-1.68,0.59c-2.61,0.62-5.55-0.03-6.67-1.05c-0.23-0.21-0.38-0.43-0.43-0.66c-0.04-0.13-0.04-0.25-0.02-0.39
					c0.12-0.62-0.08-1.39-0.39-2.14c-0.6-1.47-1.62-2.85-1.62-2.85c-0.03-0.12-0.07-0.23-0.1-0.34c-0.03-0.1-0.05-0.19-0.08-0.27
					c-0.05-0.21-0.1-0.39-0.14-0.56c-0.3-1.4,0.01-1.84,0.66-1.92c0.52-0.08,1.26,0.07,2.1,0.14c0,0,0,0,0.01,0
					c0.01,0,0.02,0,0.04,0c0.99,0.08,2.11,0.02,3.14-0.68c3.25-2.21,0.82-5.88,2.91-7.87c0.31-0.29,0.6-0.48,0.87-0.61
					c1.68-0.79,3.16,0.79,5.95,0.76c3.27-0.03,3.68-2.43,5.07-2.23c0.45,0.07,0.98,0.78,1.49,1.71c0.44,0.81,0.73,1.68,0.86,2.56
					C783.68,559.24,782.93,561.76,781.14,563.54z"/>
				
					<linearGradient id="SVGID_7_" gradientUnits="userSpaceOnUse" x1="743.5864" y1="513.7933" x2="746.6508" y2="524.8024" gradientTransform="matrix(0.9822 0.1881 -0.1881 0.9822 90.7094 -100.1487)">
					<stop  offset="0" style="stop-color:#FFF0A8"/>
					<stop  offset="0.9324" style="stop-color:#E6BE7A"/>
				</linearGradient>
				<path class="st65" d="M717.28,552.6c0,0-5.28-2.66-4.15-5.09c1.13-2.43,4.05,0.44,5.69-1.22c1.64-1.67,0.89-4.63,3.01-6.2
					c2.12-1.58,1.89,5.65,5.72,6.39c3.83,0.73,6.77-1.68,8.54,0.31s-4.61,9.37-8.04,10.04S717.28,552.6,717.28,552.6z"/>
				
					<linearGradient id="SVGID_8_" gradientUnits="userSpaceOnUse" x1="754.1799" y1="517.1862" x2="757.2443" y2="535.1186" gradientTransform="matrix(0.9822 0.1881 -0.1881 0.9822 90.7094 -100.1487)">
					<stop  offset="0" style="stop-color:#FFF0A8"/>
					<stop  offset="0.9324" style="stop-color:#E6BE7A"/>
				</linearGradient>
				<path class="st66" d="M722.82,557.3c0.6-4.85,5.05-5.65,6.91-4.13s1.73,5.62,4.33,4.14c2.6-1.49-2.83-7.65,0.5-9.5
					c3.33-1.84,10.22-0.69,10.47,3.16s-5.57,4.89-5.52,6.38c0.04,1.5,4.31,0.82,5.38,3.84c1.08,3.02-3.24,8.31-7.07,8.4
					c-3.82,0.09-14.52-7.08-14.52-7.08L722.82,557.3z"/>
				
					<linearGradient id="SVGID_9_" gradientUnits="userSpaceOnUse" x1="789.4005" y1="513.0699" x2="792.1227" y2="532.4664" gradientTransform="matrix(0.9822 0.1881 -0.1881 0.9822 90.7094 -100.1487)">
					<stop  offset="0" style="stop-color:#FFF0A8"/>
					<stop  offset="0.9324" style="stop-color:#E6BE7A"/>
				</linearGradient>
				<path class="st67" d="M777.61,567.39c-0.66,1.49-2.18,3-4.41,4.13c-0.21,0.11-0.41,0.21-0.64,0.32
					c-0.43,0.19-0.89,0.37-1.37,0.54c-1.3,0.46-2.61,0.56-3.86,0.46l-0.05,0c-0.6-0.05-1.18-0.14-1.73-0.27
					c-1.11-0.26-2.13-0.65-3-1.07c-1.06-0.5-1.91-1.03-2.44-1.39c-0.41-0.28-0.64-0.47-0.64-0.47l0.82-3.87l0.05-0.25l0.15-0.7
					l0.37-1.78l0.31-1.49l0.17-0.81l2.95-5.06c0.31-0.38,0.64-0.7,0.96-0.96c1.69-1.43,3.41-1.45,4.67-0.7
					c1.59,0.95,2.46,3.15,1.6,5.36c-1.48,3.86,2.03,2.33,4.61,3.6c0.31,0.14,0.61,0.34,0.88,0.59c0.67,0.6,0.98,1.35,0.97,2.16
					C778,566.28,777.88,566.84,777.61,567.39z"/>
				
					<linearGradient id="SVGID_10_" gradientUnits="userSpaceOnUse" x1="774.7831" y1="517.5523" x2="777.507" y2="535.3712" gradientTransform="matrix(0.9822 0.1881 -0.1881 0.9822 90.7094 -100.1487)">
					<stop  offset="0" style="stop-color:#FFF0A8"/>
					<stop  offset="0.9324" style="stop-color:#E6BE7A"/>
				</linearGradient>
				<path class="st68" d="M744.11,562.7c1.5-6.99,7.02-6.43,8.13-2.74c1.11,3.69,5.48-0.11,8.8,1.52c3.33,1.63,3.68,5.83,0.45,8.02
					c-3.23,2.19-12.99,0.49-15.14-1.25C744.21,566.52,744.11,562.7,744.11,562.7z"/>
				
					<linearGradient id="SVGID_11_" gradientUnits="userSpaceOnUse" x1="802.8597" y1="511.3108" x2="806.15" y2="532.8678" gradientTransform="matrix(0.9822 0.1881 -0.1881 0.9822 90.7094 -100.1487)">
					<stop  offset="0" style="stop-color:#FFF0A8"/>
					<stop  offset="0.9324" style="stop-color:#E6BE7A"/>
				</linearGradient>
				<path class="st69" d="M788.07,573.55c-0.14,0.05-0.28,0.09-0.42,0.13c-5.73,1.75-13-0.46-14.45-2.15
					c-0.05-0.05-0.09-0.1-0.12-0.16c-0.09-0.11-0.13-0.23-0.14-0.33c-0.08-0.77,0.12-2.43,0.36-4c0-0.05,0.01-0.1,0.02-0.15
					c0.25-1.7,1.33-3.14,2.83-3.9c0.27-0.14,0.54-0.25,0.83-0.34c3.05-0.95,4.59-2.16,5.58-4.66c0.2-0.53,0.46-0.91,0.75-1.16
					c1.44-1.3,3.59,0.77,3.69,3.83c0.09,2.55,1.1,3.19,2.15,3.98c0,0.01,0,0.01,0,0.01c0.46,0.34,0.92,0.72,1.31,1.29
					c0.41,0.6,0.91,1.4,1.21,2.27C792.27,570.05,792,572.21,788.07,573.55z"/>
				
					<linearGradient id="SVGID_12_" gradientUnits="userSpaceOnUse" x1="814.0634" y1="515.1141" x2="812.3605" y2="534.1862" gradientTransform="matrix(0.9822 0.1881 -0.1881 0.9822 90.7094 -100.1487)">
					<stop  offset="0" style="stop-color:#FFF0A8"/>
					<stop  offset="0.9324" style="stop-color:#E6BE7A"/>
				</linearGradient>
				<path class="st70" d="M798.01,566.24c-0.21,0.63-0.44,1.23-0.7,1.81c-1.86,4.16-4.93,6.88-4.93,6.88l-4.31-1.37l-2.24-0.71
					c-1.68-3.01-2.09-4.34-1.79-4.98c0.39-0.84,2.05-0.4,3.59-0.96c1.16-0.43,1.41-1.34,1.52-2.24c0,0,0,0,0-0.01
					c0.13-1.16,0.03-2.3,1.34-2.33C792.81,562.27,799.66,561.1,798.01,566.24z"/>
				
					<linearGradient id="SVGID_13_" gradientUnits="userSpaceOnUse" x1="738.0131" y1="521.9404" x2="741.9857" y2="533.7448" gradientTransform="matrix(0.9822 0.1881 -0.1881 0.9822 90.7094 -100.1487)">
					<stop  offset="0" style="stop-color:#FFF0A8"/>
					<stop  offset="0.9324" style="stop-color:#E6BE7A"/>
				</linearGradient>
				<path class="st71" d="M727.31,561.81c-0.2,0.77-0.66,1.67-1.15,2.52c-0.39,0.67-0.81,1.3-1.15,1.79
					c-0.44,0.62-0.76,1.04-0.76,1.04l-2.16-1.51l-5.82-4.04l-4.91-3.41l-0.24-0.17c0,0-0.23-0.33-0.54-0.89
					c-0.8-1.37-2.15-4.11-1.75-6.17c0.46-2.4,3.43-0.97,5.78-0.17c0.46,0.16,0.9,0.29,1.29,0.37c2.39,0.46,2.85-1.93,5.72-2.21
					c1.79-0.17,2.91,2.12,3.19,4.49c0.11,1.01,0.07,2.04-0.15,2.9c-0.08,0.33-0.2,0.63-0.33,0.91c-1.32,2.56,1.7,1.48,2.89,3.03
					C727.48,560.64,727.48,561.18,727.31,561.81z"/>
				
					<linearGradient id="SVGID_14_" gradientUnits="userSpaceOnUse" x1="729.2368" y1="524.7179" x2="734.7966" y2="538.9012" gradientTransform="matrix(0.9822 0.1881 -0.1881 0.9822 90.7094 -100.1487)">
					<stop  offset="0" style="stop-color:#FFF0A8"/>
					<stop  offset="0.9324" style="stop-color:#E6BE7A"/>
				</linearGradient>
				<path class="st72" d="M716.86,559.77c-0.14,0.66-0.33,1.3-0.6,1.84c-0.38,0.8-0.89,1.42-1.54,1.74
					c-2.92,1.43-11.13-1.47-11.13-1.47c-3.91-4.05-2.85-8.7-0.91-10.04c0.58-0.4,1.25-0.51,1.88-0.19c1.5,0.74,1.71,2.96,2.17,4.59
					c0.37,1.32,0.9,2.26,2.41,1.74c0.25-0.08,0.49-0.2,0.7-0.32c0.26-0.15,0.5-0.32,0.73-0.51c2.23-1.86,3.12-5.41,4.98-4.22
					C716.93,553.81,717.4,557.08,716.86,559.77z"/>
			</g>
			<path class="st73" d="M797.31,568.04c-1.86,4.16-4.93,6.88-4.93,6.88l-4.31-1.37c-0.14,0.05-0.28,0.09-0.42,0.13
				c-5.73,1.75-13-0.46-14.45-2.15c-0.21,0.11-0.41,0.21-0.64,0.32c-0.36,0.28-0.76,0.54-1.22,0.78c-0.53,0.27-1.1,0.47-1.68,0.59
				l-2.33-0.37l-0.05,0l-1.73-0.27l-2.57-0.41l-22.22-3.54l-9.88-1.58l-0.01,0l-5.88-0.93l-2.92-0.47l-5.82-4.04
				c-0.38,0.8-0.89,1.42-1.54,1.74c-2.92,1.43-11.13-1.47-11.13-1.47c-3.91-4.05-2.85-8.7-0.91-10.04c0.27,1.68,1.73,3.14,4.05,4.4
				c0.91,0.5,1.96,0.97,3.11,1.42c0.49,0.19,0.98,0.37,1.51,0.54c1.67,0.57,3.52,1.08,5.51,1.57c1.99,0.47,4.11,0.92,6.32,1.32
				c1.35,0.26,2.73,0.49,4.13,0.72c5.58,0.89,11.48,1.61,16.95,2.23c0.14,0.01,0.27,0.02,0.41,0.04c1.79,0.2,3.53,0.39,5.2,0.58
				c0.57,0.06,1.12,0.12,1.67,0.18c2.32,0.26,4.69,0.52,7.1,0.77c0.55,0.05,1.11,0.11,1.66,0.17c0.05,0,0.08,0.01,0.13,0.02
				c1.09,0.11,2.19,0.22,3.27,0.33c3.25,0.32,6.48,0.63,9.6,0.91c0.94,0.08,1.86,0.15,2.77,0.23c0.52,0.04,1.04,0.09,1.54,0.13
				c2.26,0.18,4.42,0.33,6.43,0.47c2.88,0.19,5.46,0.31,7.62,0.36C794.21,568.28,796.15,568.23,797.31,568.04z"/>
			<polygon class="st8" points="794.66,573.33 773.89,621.9 768.1,635.48 754.4,667.53 753.01,667.35 750.35,666.99 747.47,666.6 
				741.51,665.81 736.47,665.13 733.8,664.78 727.89,663.98 723.04,663.33 718.42,662.72 712.75,661.96 705.93,661.04 
				700.14,660.27 700.39,630.93 700.47,620.24 700.98,560.35 709.12,561.48 716.45,562.5 729.43,564.29 738.85,565.6 746.09,566.61 
				753.12,567.58 761.89,568.79 771.54,570.13 774.76,570.58 781.21,571.47 785.78,572.1 			"/>
			<polygon class="st74" points="794.65,573.33 754.4,667.53 736.47,665.13 761.88,568.79 			"/>
			<path class="st75" d="M712.74,661.95l-6.82-0.91c0.49-15.88,2.39-78.34,3.19-99.56l7.33,1.01L712.74,661.95z"/>
			<path class="st75" d="M723.03,663.33l-4.62-0.61l11.01-98.43l9.43,1.31C735.31,587.09,725.64,645.99,723.03,663.33z"/>
			<polygon class="st75" points="753.12,567.58 733.8,664.77 727.89,663.98 746.09,566.6 			"/>
			<polygon class="st75" points="774.75,570.57 747.47,666.6 741.5,665.8 771.54,570.13 			"/>
			<polygon class="st75" points="785.78,572.1 753,667.34 750.35,666.98 781.21,571.47 			"/>
			<path class="st76" d="M773.89,621.9l-5.8,13.57c-6.4-1.41-28.53-8.23-28.53-8.23s-29.47,2.55-39.18,3.68l0.09-10.69l67.35-8.83
				C767.82,611.42,771.35,617.27,773.89,621.9z"/>
		</g>
		<path class="st77" d="M799.91,474.75c-12.53,11.11-43.25,7.42-73.69-21.89c2-0.28,3.96-0.55,5.85-0.79
			c9.17-1.21,16.33-1.97,16.33-1.97l14.2-33.37l21.58,9.72l-6.19,30.44c0,0,9.84,6.84,18.55,14.7
			C797.69,472.63,798.83,473.68,799.91,474.75z"/>
		<path class="st6" d="M796.55,471.59c-4.89,4.11-13.16,5.39-22.94,3.52c-8.2-1.57-23.61-6.66-41.53-23.04
			c9.17-1.21,16.33-1.97,16.33-1.97l11.41-26.79l2.8-6.58l21.32,9.6l0.26,0.11l-0.02,0.09l-2.57,12.63l-3.61,17.72
			C777.99,456.88,787.83,463.73,796.55,471.59z"/>
		<path class="st1" d="M784.17,426.54l-2.57,12.63c-5.49-2.56-15.69-8.05-21.79-15.86l2.8-6.58l21.32,9.6L784.17,426.54z"/>
		<path class="st6" d="M753.75,386.75c-0.45,0.98,1.49,25.63,4.99,32.44c3.5,6.81,24.14,17.43,36.33,19.23
			c12.19,1.8,25.58-8.17,33.97-31.11c8.39-22.94,12.69-50.93,11.3-70.13c-1.39-19.21-66.9-36.55-77.83-15.71
			C751.59,342.32,753.75,386.75,753.75,386.75z"/>
		<path class="st11" d="M782.52,367.18c6.84,15.72,15.64,8.87,17.75,2.33C793.98,375.51,786.26,371.1,782.52,367.18z"/>
		<path class="st11" d="M816.95,372.98c3.13,11.54,9.86,11.22,12.62,3.75C826.87,379.68,820.49,378.19,816.95,372.98z"/>
		<path class="st30" d="M780.56,352.67c9.21-4.91,27.84-1.87,27.84-1.87s2.39-2.74-0.3-5.39
			C805.4,342.75,785.49,346.41,780.56,352.67z"/>
		<path class="st30" d="M821.39,356.75c10.4,2.79,17.83,5.82,18.72,8.12c-3.83-9.27-14.7-12.42-16.18-11.64
			C822.45,354.02,821.39,356.75,821.39,356.75z"/>
		<path class="st30" d="M755.31,375.84c4.77-13.76,16.21-21.97,17.6-27.84c1.39-5.87,0.29-21.02,0.29-21.02s50.78-4.68,67.14,10.19
			c7.5-25.24,2.62-49.92-15.72-50.23c-18.35-0.31-21.85,11.02-39.65,2.28c-17.8-8.74-36.13,11.75-35.83,24.08
			c-16.92-2.17-24,18.08-21.38,25.25c2.63,7.17,14.06,22.7,15.58,32.86C744.87,381.58,755.31,375.84,755.31,375.84z"/>
		<path class="st12" d="M813.29,358.67c-0.81,13.98-4.59,35.14-6.79,36.85c-2.2,1.71-12.29-1.29-12.29-1.29s8.27,5.58,14.62,3.07
			C815.17,394.78,813.29,358.67,813.29,358.67z"/>
		<path class="st31" d="M806.9,411.03c-1.54,3.93-4.12,6.6-5.75,5.96c-1.63-0.64-1.71-4.35-0.16-8.28c1.54-3.93,4.12-6.6,5.75-5.96
			C808.38,403.39,808.45,407.1,806.9,411.03z"/>
		<polygon class="st30" points="831.42,454.96 822.59,424.7 803.69,411.79 805.01,408.56 825.02,421.68 834.95,453.54 		"/>
		<path class="st6" d="M756.55,383.28c2.3-32.91-16.73-22.68-15.75-2.75C741.65,397.56,755.01,408.07,756.55,383.28z"/>
		<polygon class="st75" points="811.5,469.25 850.23,527.76 867.78,518.58 850.75,454.71 		"/>
		<path class="st6" d="M835.4,505.36c0,0-8.43-3.09-9.42-5c-0.99-1.91-0.53-9.28-1.59-12.74c-1.06-3.45,5.07-1.52,6.5,2.01
			c1.43,3.53,0.92,9.17,0.92,9.17L835.4,505.36z"/>
		<path class="st6" d="M851.56,470.15c-0.5,3.24,1.19,6.4,6.12,11.42c1.06-3.95,1.64-9.22-1.63-12.8
			C854.58,467.16,851.89,467.99,851.56,470.15z"/>
		<path class="st6" d="M853.59,476.28c-0.5,3.24,1.19,6.4,6.12,11.42c1.06-3.95,1.64-9.22-1.63-12.8
			C856.6,473.28,853.92,474.11,853.59,476.28z"/>
		<path class="st6" d="M854.35,483.47c-0.38,2.62,1.41,5.25,6.49,9.5c0.91-3.17,1.3-7.44-2.08-10.46
			C857.23,481.15,854.6,481.73,854.35,483.47z"/>
		<path class="st6" d="M857.82,492.25c-0.38,2.62,0.56,4.61,4.54,5.95c1.63-1.32,3.29-4.46-0.08-7.49
			C860.76,489.35,858.08,490.5,857.82,492.25z"/>
		<polygon class="st27" points="808.22,468.16 811.48,472.97 855.76,455.2 852.82,451.16 		"/>
		<path class="st27" d="M810.38,469.04c-0.1-0.71,1.41-8.56,1.41-8.56l33.4-13.11l6.98,5.98L810.38,469.04z"/>
		<path class="st6" d="M739.72,623.69c0,0-105.72,8.03-106.38-2.15c-0.36-5.63,7.58-40.96,20.53-78.89
			c10.45-30.64,24.18-62.95,39.43-82.65c0,0,8.65,50.04,3.09,61.62c-2.45,5.08-8.88,20.88-15.33,37.01
			c-8.23,20.6-16.5,41.73-16.5,41.73l75.36,12.57L739.72,623.69z"/>
		<path class="st60" d="M696.39,521.63c-2.18,4.54-7.57,17.65-13.29,31.9c-0.68,1.69-1.36,3.39-2.04,5.11
			c-7.62-2.49-20.17-7.62-27.19-15.97c0.61-1.79,1.24-3.59,1.87-5.38c10.19-28.98,23.2-58.72,37.56-77.27
			C693.3,460.01,701.95,510.05,696.39,521.63z"/>
		<path class="st77" d="M683.1,553.53c-0.68,1.69-1.36,3.39-2.04,5.11c-7.62-2.49-20.17-7.62-27.19-15.97
			c0.61-1.79,1.24-3.59,1.87-5.38C664.15,545.16,677.63,551.25,683.1,553.53z"/>
		<path class="st6" d="M778.07,615.89c0,0,2.71,0.14,2.67,1.15c-0.04,1.02-1.2,2.9-1.2,2.9s0,0,0.01,0
			c-2.94,4.7-6.22,9.16-7.75,10.2c-3.3,2.24-32.08-6.44-32.08-6.44s-6.17-5.56,0.2-10.76c0,0,12.84-10.23,16.17-11.6
			c3.34-1.37,7.53-1.27,11.92-1.99c3.95-0.64,6.83-2.27,8.4-1.5c2.63,1.28-4.31,8.84-13.16,8.71c9.88,1.63,20.88-1.23,22,1.07
			c0.13,0.28,0.09,0.78-0.1,1.46C783.89,612.22,778.07,615.89,778.07,615.89z"/>
	</g>
	<g>
		<path class="st10" d="M542.65,379.96c5.95,18.65,24.51,40.02,24.51,40.02l79.9-0.36c0,0,13.68-21.68,17.45-39.79
			c3.77-18.11-22.4-27.76-22.4-27.76l-83.47,12.31L542.65,379.96z"/>
		<path class="st15" d="M699.97,637.36c-3.33,5.83-13.64-14.5-21.97-33.22c-6.38-14.36-11.59-27.77-11.59-27.77l-2.34,42.44
			l-4.14,75.12H554.51l-4.11-74.53l-2.37-43.04c0,0-3.69,9.5-8.67,21.07c-8.65,20.1-21.16,46.45-24.9,39.92
			c-13.37-23.41-4.79-67.12,6.65-104.23c13.12-42.57,43.63-72.06,57.49-78.76c9.82-4.75,19.66-6.99,27.93-7.2v-0.03
			c0.22,0,0.45,0.02,0.67,0.02c0.22,0,0.45-0.02,0.67-0.02v0.03c9.85,0.26,21.94,3.38,33.55,10.21c11.9,6.97,38.37,35.8,51.17,73.55
			C705.25,568.22,713.6,613.48,699.97,637.36z"/>
		<path class="st78" d="M681.92,587.27L678,604.14c-6.38-14.36-11.59-27.77-11.59-27.77l-2.34,42.44
			c-10.37-28.63-32.25-80.63-54.36-80.99c-23.99-0.38-49.47,56.96-59.3,81.58l-2.37-43.04c0,0-3.69,9.5-8.67,21.07l-4.31-20.83
			l22.3-52.84c0,0,15.99-26.17,18.61-25.71c2.61,0.46,58.95,2.45,73,15.05C663.02,525.72,681.92,587.27,681.92,587.27z"/>
		<path class="st6" d="M641.44,457.37c-11.7,3.97-37.36,9.47-62.83-3c5.2-2.51,10.4-4.31,15.37-5.5c0.24-5.54,0.6-13.28,0.91-19.99
			c0.13-2.77,0.26-5.36,0.39-7.55c0.19-3.76,0.34-6.31,0.4-6.49l20.09,5.14l1.64,0.41l1.15,9.86l2.18,18.68
			C627.43,450.56,634.51,453.3,641.44,457.37z"/>
		<path class="st79" d="M618.56,430.26c-5.04,2.35-14.98,3.21-23.67-1.38c0.13-2.77,0.26-5.36,0.39-7.55l0.32-0.31l20.18-1.04
			l1.64,0.41L618.56,430.26z"/>
		<path class="st6" d="M606.89,304.74c-28.51-3.62-43.36,31.79-43.11,62.34c0.27,33.67,20.98,61.45,43.11,61.45
			c22.13,0,42.85-27.77,43.11-61.45C650.25,336.53,635.41,301.12,606.89,304.74z"/>
		<path class="st11" d="M630.3,361.59c-0.61,4.57-3.55,8-6.57,7.66c-3.02-0.34-4.97-4.31-4.36-8.88c0.61-4.57,3.56-8,6.57-7.66
			C628.96,353.05,630.91,357.02,630.3,361.59z"/>
		<path class="st11" d="M617.6,358.46c6.99-7.81,12.7-2.47,15.13,1.95C633.87,350.12,620.59,345.44,617.6,358.46z"/>
		<path class="st10" d="M616.63,344.16c9.42-3.43,16.83,1.64,19.71,6.99C636.54,339.86,617.94,335.13,616.63,344.16z"/>
		<path class="st11" d="M583.49,361.59c0.61,4.57,3.56,8,6.57,7.66s4.97-4.31,4.36-8.88c-0.61-4.57-3.55-8-6.57-7.66
			C584.83,353.05,582.88,357.02,583.49,361.59z"/>
		<path class="st11" d="M596.19,358.46c-6.99-7.81-12.7-2.47-15.13,1.95C579.92,350.12,593.19,345.44,596.19,358.46z"/>
		<path class="st80" d="M598.29,379.96c0,0,3.71,4.83,9.15,5.19c5.44,0.36,10.06-5.19,10.06-5.19s-6.88,2.54-9.6,2.54
			C605.18,382.5,598.29,379.96,598.29,379.96z"/>
		<path class="st10" d="M559.82,371.5c20.42-6.54,61.46-39.06,69.19-52.54c-6.15,12.09-19.23,23.99-19.23,23.99
			s14.47-8.92,20.62-20.22c-0.79,14.47,20.42,49.37,20.42,49.37l13.68,7.73c0,0,10.31-35.29,8.53-62.45
			c-1.78-27.16-36.48-31.52-36.48-31.52s-5.51-33.82-65.23-6.34c-44.81,20.62-32.32,83.86-29.14,98.73
			C545.35,393.11,559.82,371.5,559.82,371.5z"/>
		<path class="st31" d="M628.18,398.85c-4.11-2.14-6.43-4.63-7.88-7.18c0.02-0.02,0.03-0.04,0.03-0.04s-0.01,0.01-0.04,0.02
			c-1.29-2.26-1.89-4.57-2.44-6.73c-0.51,3.08-0.06,5.58,0.91,7.56c-3.01,1.49-10.02,4.18-18.03,2.03c0.51-1.6,1.26-2.79,1.26-2.79
			c-4.01,1.13-3.12,4.99-1.65,6.37c-0.17-1.04-0.02-2.14,0.25-3.12c8.34,6.12,15.58,0.77,18.44-1.97
			C621.32,397.12,625.86,398.83,628.18,398.85z"/>
		<path class="st6" d="M641.71,372c14.92-14.99,19.18,0.74,15.87,15.73c-3.32,14.99-18.47,5.9-18.47,5.9L641.71,372z"/>
		<path class="st6" d="M572.08,372c-14.92-14.99-19.18,0.74-15.87,15.73c3.32,14.99,18.47,5.9,18.47,5.9L572.08,372z"/>
		<g>
			<path class="st81" d="M575.27,500.65c-7.42,5.87-3.97,24.68,23.47,26.75c27.44,2.07,44.01-3.11,38.83-18.29
				C632.39,493.92,575.27,500.65,575.27,500.65z"/>
			<path class="st10" d="M575.96,498.07c-7.59,5.18-0.86,16.74,23.99,20.02c24.85,3.28,36.67-4.86,38.56-9.35
				c1.9-4.49-5.22-11.35-5.22-11.35l-52.67-4.49L575.96,498.07z"/>
			<path class="st82" d="M579.41,501c1.04,0,18.81,12.6,19.33,12.43c0.52-0.17,38.14-6.56,38.14-6.56l-2.93-5.18l-42.8-3.28
				L579.41,501z"/>
			<path class="st48" d="M605.29,493.23c-6.56,6.21-3.28,11.56-0.69,11.22c2.59-0.35,3.62-3.11,6.73,0.52
				c3.11,3.62,4.14-2.24,6.04-2.07c1.9,0.17,4.83,4.83,6.73,2.59c1.9-2.24,1.73-5.35,4.66-3.97c2.93,1.38,7.08,3.97,9.32,1.73
				c2.24-2.24,2.07-5.69,4.83-5.18c2.76,0.52,1.73-6.73-4.83-8.11C631.53,488.57,605.29,493.23,605.29,493.23z"/>
			<path class="st83" d="M577.51,487.88c-10.53,6.04-0.17,16.22,11.74,17.6c11.91,1.38,19.16-7.08,16.91-11.04
				C603.91,490.47,577.51,487.88,577.51,487.88z"/>
			<path class="st84" d="M580.96,489.95c-0.86,0.17-5.35,2.76-5.35,4.83c0,2.07,5.87,5.35,8.28,4.14c2.42-1.21,2.59-6.04,2.59-6.04
				L580.96,489.95z"/>
			<path class="st84" d="M590.97,492.54c0,0-1.38,5.18-0.17,6.9c1.21,1.73,6.73,3.11,8.28,1.21c1.55-1.9-0.69-6.21-0.69-6.21
				L590.97,492.54z"/>
			<path class="st81" d="M575.96,488.4c-1.67,8.25,52.13,9.87,61.44,3.45c7.77-5.35-11.04-22.61-28.99-22.61
				C590.45,469.25,578.37,476.49,575.96,488.4z"/>
		</g>
		<path class="st6" d="M564.8,510.48c0-1.51,6.02-21.08,9.22-26.16c3.2-5.08,12.8-12.42,16.56-13.55c1.33-0.4,2.94-0.16,4.47,0.31
			c1.48,0.46,0.55,5.27-0.67,6.86c1.79-0.07,1.45,1.48-0.24,3.06c-2.39,2.24-9.58,8.95-9.58,8.95l-2.99,13.49
			c-0.97,4.35-3.77,8.07-7.69,10.19l-5.31,2.87L564.8,510.48z"/>
		<g>
			<path class="st15" d="M573.61,523.11c0,0-41.87,124.9-59.15,114.25c-3.53-3.93-5.6-12.81-5.3-24.43
				c0.18-7.02,1.24-15.04,3.35-23.58c0.93-3.75,2.06-7.6,3.42-11.51c0.18-0.54,0.39-1.08,0.6-1.63c9.8-25.9,43.32-64.77,47.47-69.53
				c0.17-0.19,0.29-0.33,0.36-0.4c0.02-0.02,0.04-0.04,0.05-0.05c0.01-0.02,0.02-0.03,0.02-0.03l2.93,5.39l1.87,3.44L573.61,523.11z
				"/>
			<path class="st85" d="M567.35,511.6c-4.78,17.71-16.83,62.66-30.98,84.02c-14.26,21.54-26.39,15.07-23.86-6.27
				c0.93-3.75,2.06-7.6,3.42-11.51c0.18-0.54,0.39-1.08,0.6-1.63c10.46-27.62,47.89-70.01,47.89-70.01L567.35,511.6z"/>
			<path class="st86" d="M516.53,576.22c9.8-25.9,43.32-64.77,47.47-69.53c-3.64,4.26-30.59,36.19-41.11,62.62
				c-8.8,22.12-12.41,34.52-13.72,43.62c0.18-7.02,1.24-15.04,3.35-23.58c0.93-3.75,2.06-7.6,3.42-11.51
				C516.12,577.31,516.32,576.77,516.53,576.22z"/>
		</g>
		<g>
			<path class="st6" d="M650.58,510.48c0-1.51-6.02-21.08-9.22-26.16c-3.2-5.08-12.8-12.42-16.56-13.55
				c-1.33-0.4-2.94-0.16-4.47,0.31c-1.48,0.46-0.55,5.27,0.67,6.86c-1.79-0.07-1.45,1.48,0.24,3.06c2.39,2.24,9.58,8.95,9.58,8.95
				l2.99,13.49c0.97,4.35,3.77,8.07,7.69,10.19l5.31,2.87L650.58,510.48z"/>
			<g>
				<path class="st15" d="M641.77,523.11c0,0,41.87,124.9,59.15,114.25c3.53-3.93,5.6-12.81,5.3-24.43
					c-0.18-7.02-1.24-15.04-3.35-23.58c-0.93-3.75-2.06-7.6-3.42-11.51c-0.18-0.54-0.39-1.08-0.6-1.63
					c-9.8-25.9-43.32-64.77-47.47-69.53c-0.17-0.19-0.29-0.33-0.36-0.4c-0.02-0.02-0.04-0.04-0.05-0.05
					c-0.01-0.02-0.02-0.03-0.02-0.03l-2.93,5.39l-1.87,3.44L641.77,523.11z"/>
				<path class="st85" d="M648.03,511.6c4.78,17.71,16.83,62.66,30.98,84.02c14.26,21.54,26.39,15.07,23.86-6.27
					c-0.93-3.75-2.06-7.6-3.42-11.51c-0.18-0.54-0.39-1.08-0.6-1.63c-10.46-27.62-47.89-70.01-47.89-70.01L648.03,511.6z"/>
				<path class="st86" d="M698.85,576.22c-9.8-25.9-43.32-64.77-47.47-69.53c3.64,4.26,30.59,36.19,41.11,62.62
					c8.8,22.12,12.41,34.52,13.72,43.62c-0.18-7.02-1.24-15.04-3.35-23.58c-0.93-3.75-2.06-7.6-3.42-11.51
					C699.27,577.31,699.06,576.77,698.85,576.22z"/>
			</g>
		</g>
	</g>
	<g>
		<path class="st6" d="M367.17,461.77c-0.07,0.62-2.1,25.58-2.11,26.2c-0.01,0.62,13.71,13.31,13.71,12.68c0-0.62,0-37.43,0-37.43
			L367.17,461.77z"/>
		<path class="st6" d="M375.42,470.69c-3.75-3.36-18.56-20.14-18.36-24.08c0.2-3.95,21.71-14.81,22.5-11.45
			c0.79,3.36,6.71,17.57,7.11,17.77C387.07,453.12,379.96,468.52,375.42,470.69z"/>
		<path class="st87" d="M446.15,513.36l-1.7,4.5l-3.39,8.96c-6.31,14.71-14.9,29.46-23.88,42.66c-17.85,26.27-37.27,46.41-43.44,48
			c-9.87-8.68-1.8-34.71,11.37-52.37c1.15-1.55,2.47-3.61,3.9-6.09c2.59-4.45,5.55-10.22,8.74-16.75
			c15.13-31.06,34.9-79.16,39.03-82.39C442.26,455.62,446.15,513.36,446.15,513.36z"/>
		<path class="st88" d="M444.44,517.86l-3.39,8.96c-6.31,14.71-14.9,29.46-23.88,42.66c7.71-17,18.43-38.64,24.86-61.51
			L444.44,517.86z"/>
		<path class="st88" d="M397.75,542.29c-0.59,18.31-4.86,34.51-4.86,34.51l-3.88-17.76C391.59,554.59,394.56,548.82,397.75,542.29z"
			/>
		<path class="st87" d="M542.13,525.85c-6.08,69.35-15.85,166.36-15.85,166.36H416.15c0,0,19.86-142.89,24.01-175.32
			c0.43-3.31,0.69-5.48,0.74-6.22c0.63-7.93-10.48-39.99-4.13-50.77c2.59-4.39,9.29-8.22,16.31-11.2
			c10.22-4.33,21.14-6.89,21.14-6.89l2.86-23.48l22.22-13.97l6.66,36.5c0,0,9.6,2.9,19.49,6.44c9.72,3.47,19.72,7.55,21.13,10.07
			C547.59,459.13,545.4,488.47,542.13,525.85z"/>
		<path class="st88" d="M542.13,525.85c-6.08,69.35-15.85,166.36-15.85,166.36H416.15c0,0,19.86-142.89,24.01-175.32
			c0.19,1.3,0.33,2.76,0.42,4.41c2.46,42.87,71.4,33.77,86.75-9.37L542.13,525.85z"/>
		<path class="st89" d="M489.15,617.31c-11.11,8.25,1.27,32.37,4.13,33.01c8.57-3.81,18.41-20.63,15.55-25.39
			C505.97,620.17,489.15,617.31,489.15,617.31z"/>
		<path class="st6" d="M525.46,447.29c-10.25,11.65-22.98,17.1-35.52,17.41l-14.86,29.49l-1.07-31.88
			c-7.82-2.61-15.05-7.23-20.93-13.61c10.22-4.33,21.14-6.89,21.14-6.89l1.52-12.46l1.34-11.03l22.22-13.97l1.24,6.77l5.42,29.73
			C505.96,440.85,515.57,443.75,525.46,447.29z"/>
		<path class="st90" d="M501.4,563.21c0-0.6,0-10.61,1.4-11.61c1.4-1-0.6,11.21-0.6,11.21s8.81-4.4,9.21-3.8
			c0.4,0.6-7.61,4.2-7.61,4.2s8.61,2.6,8.21,4.2c-0.4,1.6-10.01-1.6-10.01-1.6L501.4,563.21z"/>
		<path class="st91" d="M508.78,582.19c-4.6,7.61-27.62,8.41-33.42-2c-2.62-4.71-2.88-10.44-1.48-15.7
			c2.34-8.75,9.25-16.23,17.49-15.72c13.21,0.8,7.41,10.61,11.01,14.81c1.27,1.49,3.03,3.3,4.56,5.37
			C509.72,572.71,511.75,577.29,508.78,582.19z"/>
		<path class="st92" d="M508.78,582.19c-4.6,7.61-27.62,8.41-33.42-2c-2.62-4.71-2.88-10.44-1.48-15.7
			c2.32,16.96,32.51,13.6,33.06,4.46C509.72,572.71,511.75,577.29,508.78,582.19z"/>
		<path class="st1" d="M500.54,411.12c-5.29,7.91-14.41,14.97-24.8,18.22l1.34-11.03l22.22-13.97L500.54,411.12z"/>
		<path class="st93" d="M481.57,580.42l-20.01,5.6c0,0-9.08-17.95-11.75-28.77c-1-4.08-1.11-7.15,0.54-7.86
			c2.81-1.21,8.63,3.68,14.03,9.25c6.17,6.35,11.8,13.58,11.8,13.58L481.57,580.42z"/>
		<path class="st94" d="M476.17,572.21c0,0-5.63-7.22-11.8-13.58c4.83,7.7,10.29,17.59,5.74,16.38
			c-5.13-1.36-14.9-11.68-20.31-17.77c2.67,10.82,11.75,28.77,11.75,28.77l20.01-5.6L476.17,572.21z"/>
		<path class="st95" d="M469.27,581.55c-5-12.81-10.21-9.81-13.41-7.61c-3.2,2.2-4.2-6.81-6.81-8.01c-2.6-1.2-3.6,5.2-5.2,4.8
			c-1.6-0.4-5.05-3.94-4.84-10.63c0.11-3.31-6.37,1.63-8.37,0.82c-2-0.8-6.2-3.2-6.81,0.6c-0.6,3.8,3.8,9.41-0.8,8.41
			c-4.6-1-7.81-5.4-9.81-3.2c-2,2.2,2.6,13.61,6,15.41C422.63,583.95,469.27,581.55,469.27,581.55z"/>
		<path class="st25" d="M512.04,578.56c-1.23,26.38-22.52,47.38-48.59,47.38c-26.08,0-47.36-21-48.59-47.38H512.04z"/>
		<path class="st6" d="M489.15,617.31c0,0-4.6-4.87-7.55-5.69c-2.96-0.82-6.74-8.71-7.06-10.84c-3.94,1.15-4.6,6.9-2.79,9.86
			c1.81,2.96,6.74,7.72,6.74,7.72s-14.13,3.12-16.92,3.61c-2.79,0.49-10.02,0-12.16-0.49s-1.31,3.78-1.31,3.78s-3.29-1.15-3.45,0.82
			c-0.16,1.97,0.49,2.14,4.76,5.26c4.27,3.12,23.49,5.91,28.91,5.75c5.42-0.16,24.31-11.66,24.31-11.66l-4.76-6.41L489.15,617.31z"
			/>
		<path class="st96" d="M375.34,467.1c-13.95,7.32-23.73-5.04-22.46-14.42c0.13-0.94,0.83-2.61,1.98-4.84
			c9.58-18.51,50.54-75.5,54.76-71.28c0.04,0.04,0.07,0.07,0.09,0.11C413.99,382.39,389.19,459.82,375.34,467.1z"/>
		<path class="st97" d="M375.34,467.1c-13.95,7.32-23.73-5.04-22.46-14.42c0.13-0.94,0.83-2.61,1.98-4.84
			c4,12.27,29.56,0.56,40.3-24.68c9.97-23.44,14.41-40.73,14.55-46.49C413.99,382.39,389.19,459.82,375.34,467.1z"/>
		<path class="st6" d="M375.42,470.69c0.59-0.39,13.42-3.36,15.79-9.08c2.37-5.72-0.2-10.26,2.96-14.41
			c3.16-4.15,6.51-6.12,5.72-8.88c-0.79-2.76-6.12-1.97-9.48,3.95C387.07,448.19,375.42,470.69,375.42,470.69z"/>
		<path class="st6" d="M357.06,443.86c0,0,7.11-3.96,7.9-7.12c0.79-3.16-2.96-4.54-4.94-3.75
			C358.05,433.78,357.06,443.86,357.06,443.86z"/>
		<path class="st6" d="M362.24,435.39c0,0-0.49-5.57,2.33-10.88c2.77-5.22,9.47-4.54,8.88-1.68
			C372.85,425.68,362.24,435.39,362.24,435.39z"/>
		<path class="st6" d="M369.68,424.12c0,0,1.56-7.66,2.19-9.39c0.63-1.72,10.06-2.18,10.29-0.8c0.23,1.38,0.69,2.99-1.38,4.25
			c-2.07,1.26-6.78,1.25-6.78,1.25L369.68,424.12z"/>
		<path class="st6" d="M375.02,416.42c0,0-0.3-8.48,1.08-10.89c1.38-2.41,7.47-4.83,6.32,0.8
			C381.27,411.96,375.02,416.42,375.02,416.42z"/>
		<path class="st93" d="M355.96,468.52c2.66,2.17,11.54,2.05,11.73-2.23c0.19-4.28-6.89-8-10.42-7.63
			C353.72,459.02,353.91,466.84,355.96,468.52z"/>
		<path class="st93" d="M359.3,464.81c-0.42,0.41-16.04,13.89-17.01,16.95c-0.97,3.06,3.46,2.22,3.46,2.22s-12.51,11.53-13.3,13.85
			c-0.79,2.32,6.61-1.81,6.61-1.81s-9.82,9.99-10.18,11.9c-0.36,1.91,4.58-0.34,4.58-0.34s-5.5,5.74-6.05,8.81
			c-0.55,3.07,2.4,0.62,2.4,0.62s-4.62,7.67-3.23,9.44c1.39,1.77,6.39-9.05,6.39-9.05s3.47,6.63,7.86-7.45
			c1.55,1.86,4.88-8.16,6.04-13.22c1.22,6.93,4.14-3.51,4.98-9.16c2.59,9.53,7.76-21.77,7.76-21.77L359.3,464.81z"/>
		<path class="st98" d="M532.4,293.45c2.7-6.36,17.73-17.15,26.78-14.45c9.06,2.7,10.21,34.1,2.7,43.35
			c-7.51,9.25-27.55,1.93-27.55,1.93L532.4,293.45z"/>
		<path class="st6" d="M450.79,300.2c-13.46,15.66-17.87,57.76-16.15,79.78c1.71,22.03,14.19,41.6,23,45.52
			c8.81,3.92,42.09-4.65,53.84-34.02c11.75-29.37,14.44-72.44,13.22-85.41C523.48,293.11,474.29,272.79,450.79,300.2z"/>
		<path class="st13" d="M488.97,380.96c-0.64,4.32-1.88,7.98-3.46,11.1v0.01c-6.88,13.48-20.27,16.55-20.27,16.55
			s-2.08-2.87-4.36-6.99c-1.53-2.74-3.14-6.03-4.28-9.41c-0.47-1.39-0.87-2.79-1.14-4.17C455.44,388.06,480.16,386.1,488.97,380.96z
			"/>
		<path class="st14" d="M488.97,380.96c-3.45,6.22-19.49,12.23-32.38,11.27c-0.47-1.39-0.87-2.79-1.14-4.17
			C455.44,388.06,480.16,386.1,488.97,380.96z"/>
		<path class="st15" d="M485.5,392.07c-6.88,13.48-20.27,16.55-20.27,16.55s-2.08-2.87-4.36-6.99
			C468.66,393.99,480.77,392.4,485.5,392.07z"/>
		<path class="st12" d="M464.38,338.73c-2.5,18.69-11.56,28.13-11.95,32.18c-0.39,4.05,14.07,4.05,14.07,4.05s-10.4-3.28-10.98-4.62
			C454.94,368.98,465.54,354.92,464.38,338.73z"/>
		<path class="st42" d="M483.16,307.55l-2.99,10.39c0,0,21.39,4.36,24.51,12.07C505,319.05,487.06,307.54,483.16,307.55z"/>
		<path class="st42" d="M458.22,310.6l3.47,8.48c0,0-19.07,1.93-23.12,10.79C445.89,312.91,458.22,310.6,458.22,310.6z"/>
		<path class="st11" d="M443.77,342.39c4.24-9.25,11.95,0.96,14.45,4.62C455.13,330.83,444.15,329.48,443.77,342.39z"/>
		<path class="st11" d="M476.33,345.86c5.2-12.14,12.33-14.26,19.85-1.16C487.12,337.96,479.8,341.43,476.33,345.86z"/>
		<path class="st42" d="M537.71,319.14c-1.71,15.93-7.63,43.29-7.63,43.29l-15.41,3.08c0,0,1.5-25.89-0.37-44.11
			c-0.64-6.22-1.67-11.57-3.29-14.65c-6.36-12.13-48.94-15.8-60.22-6.54c0,0,1.65-10.61,5.89-15.81
			c4.23-5.2,44.89-21.58,59.34-16.38c14.45,5.2,21.96,31.4,22.15,43.74C538.2,313.68,538.04,316.22,537.71,319.14z"/>
		<path class="st42" d="M537.71,319.14c-1.71,15.93-7.63,43.29-7.63,43.29l-15.41,3.08c0,0,1.5-25.89-0.37-44.11L537.71,319.14z"/>
		<path class="st6" d="M513.51,365.32c9.44-20.81,22.93-20.81,19.46-1.16c-3.47,19.65-16.76,27.94-19.07,17.92
			C511.59,372.06,513.51,365.32,513.51,365.32z"/>
		<path class="st87" d="M546.59,457.36c12.06,21.58,27.3,147.58,25.71,160.27c-1.59,12.69-79.03,32.69-79.03,32.69
			s23.49-18.41-4.13-33.01c19.36-2.54,50.78-13.33,50.78-13.33s-13.33-78.71-14.6-92.67C524.06,497.34,546.59,457.36,546.59,457.36z
			"/>
		<path class="st87" d="M373.74,617.49c-6.28,1.5-13.16-18.55-14.36-34.11c-1.2-15.56,3.59-111.9,3.59-111.9
			s20.65,19.15,24.83,22.74c4.19,3.59,5.68,73.31,5.09,82.58S373.74,617.49,373.74,617.49z"/>
		<g>
			<path class="st97" d="M371.26,448.51c0.52,2.08,6.34,3.33,6.34,3.33S374.17,448.3,371.26,448.51z"/>
			<path class="st97" d="M367.1,432.81c0.52,2.08,6.34,3.33,6.34,3.33S370.01,432.6,367.1,432.81z"/>
			<path class="st97" d="M385.4,426.98c0.52,2.08,6.34,3.33,6.34,3.33S388.31,426.78,385.4,426.98z"/>
			<path class="st97" d="M384.05,406.09c0.52,2.08,6.34,3.33,6.34,3.33S386.96,405.88,384.05,406.09z"/>
			<path class="st97" d="M397.05,397.66c0.52,2.08,6.34,3.33,6.34,3.33S399.96,397.46,397.05,397.66z"/>
		</g>
	</g>
</g>
<path class="st14" d="M270,576.17V724h560v-62.73c-59.57,17.31-123.3,26.69-189.55,26.69C500.61,687.96,371.95,646.18,270,576.17z"
	/>
</svg>
