<?xml version="1.0" encoding="utf-8"?>
<!-- Generator: Adobe Illustrator 25.3.1, SVG Export Plug-In . SVG Version: 6.00 Build 0)  -->
<svg version="1.1" id="Layer_1" xmlns="http://www.w3.org/2000/svg" xmlns:xlink="http://www.w3.org/1999/xlink" x="0px" y="0px"
	 viewBox="0 0 753 685" style="enable-background:new 0 0 753 685;" xml:space="preserve">
<style type="text/css">
	.st0{fill:#E9E9DF;}
	.st1{fill:#EBA87F;}
	.st2{fill:#416080;}
	.st3{opacity:0.2;fill:#416080;enable-background:new    ;}
	.st4{opacity:0.3;fill:#416080;enable-background:new    ;}
	.st5{fill:#273A4D;}
	.st6{fill:#FFC393;}
	.st7{fill:#C26939;}
	.st8{fill:#F1DEC1;}
	.st9{fill:#9C836F;}
	.st10{fill:#844B34;}
	.st11{fill:#2C3352;}
	.st12{fill:#E0875E;}
	.st13{fill:#82172A;}
	.st14{fill:#FFFFFF;}
	.st15{fill:#F95B6C;}
	.st16{opacity:0.4;fill:#C26939;enable-background:new    ;}
	.st17{fill:#2DC5D3;}
	.st18{opacity:0.3;fill:#2DC5D3;enable-background:new    ;}
	.st19{fill:#EDB856;}
	.st20{fill:#F2A883;}
	.st21{fill:#F0CAB2;}
	.st22{fill:url(#SVGID_1_);}
	.st23{fill:url(#SVGID_2_);}
	.st24{fill:url(#SVGID_3_);}
	.st25{fill:#D6753F;}
	.st26{fill:#D6BE9E;}
	.st27{fill:#FFF0DD;}
	.st28{opacity:0.3;fill:#D6BE9E;enable-background:new    ;}
	.st29{fill:#FFF7EB;}
	.st30{fill:#E55757;}
	.st31{fill:#ED8869;}
	.st32{fill:#EE7474;}
	.st33{fill:#56A3BA;}
	.st34{opacity:0.3;fill:#56A3BA;enable-background:new    ;}
	.st35{fill:#498B9E;}
	.st36{fill:#C75C52;}
	.st37{opacity:0.3;fill:#C75C52;enable-background:new    ;}
	.st38{fill:#75BCD1;}
	.st39{fill:#D1DCE3;}
	.st40{fill:#E0BC79;}
	.st41{fill:#FFDC9E;}
	.st42{fill:#96492C;}
	.st43{fill:#DBA546;}
	.st44{opacity:0.4;fill:#DBA546;enable-background:new    ;}
	.st45{fill:#64413F;}
	.st46{fill:#95C738;}
	.st47{opacity:0.4;fill:#95C738;enable-background:new    ;}
	.st48{fill:#8C802A;}
	.st49{fill:#D9593D;}
	.st50{opacity:0.4;fill:#D9593D;enable-background:new    ;}
	.st51{fill:#CDE2E7;}
	.st52{fill:#F2FFFE;}
	.st53{fill:#86B6D6;}
	.st54{fill:#B2AA42;}
	.st55{fill:#FFE563;}
	.st56{opacity:0.5;fill:#F1DEC1;enable-background:new    ;}
	.st57{opacity:0.3;fill:#96492C;enable-background:new    ;}
	.st58{opacity:0.3;fill:#E0875E;enable-background:new    ;}
	.st59{fill:#C46437;}
	.st60{fill:#3DD9AD;}
	.st61{opacity:0.2;fill:#CFA28B;enable-background:new    ;}
	.st62{fill:url(#SVGID_4_);}
	.st63{fill:url(#SVGID_5_);}
	.st64{fill:url(#SVGID_6_);}
	.st65{fill:url(#SVGID_7_);}
	.st66{fill:url(#SVGID_8_);}
	.st67{fill:url(#SVGID_9_);}
	.st68{fill:url(#SVGID_10_);}
	.st69{fill:url(#SVGID_11_);}
	.st70{fill:url(#SVGID_12_);}
	.st71{fill:url(#SVGID_13_);}
	.st72{fill:url(#SVGID_14_);}
	.st73{opacity:0.3;fill:#CFA28B;enable-background:new    ;}
	.st74{fill:#CFA28B;}
	.st75{fill:#CC4468;}
	.st76{opacity:0.5;fill:#CFA28B;enable-background:new    ;}
	.st77{fill:#DAEEFD;}
	.st78{opacity:0.2;fill:#B33295;enable-background:new    ;}
	.st79{opacity:0.5;fill:#FAA66C;enable-background:new    ;}
	.st80{opacity:0.5;fill:#ED8869;enable-background:new    ;}
	.st81{fill:#FAA66C;}
	.st82{fill:#FFB655;}
	.st83{fill:#D93D3D;}
	.st84{opacity:0.6;fill:#D93D3D;enable-background:new    ;}
	.st85{opacity:0.3;fill:#F95B6C;enable-background:new    ;}
	.st86{opacity:0.6;fill:#F95B6C;enable-background:new    ;}
	.st87{fill:#F4DDCB;}
	.st88{opacity:0.1;fill:#8C7C76;enable-background:new    ;}
	.st89{fill:#948975;}
	.st90{fill:#4E6900;}
	.st91{fill:#DE4051;}
	.st92{opacity:0.4;fill:#CC4468;enable-background:new    ;}
	.st93{fill:#7B9926;}
	.st94{opacity:0.2;fill:#7B9926;enable-background:new    ;}
	.st95{fill:#AEC038;}
	.st96{fill:#F78D46;}
	.st97{opacity:0.2;fill:#CC4468;enable-background:new    ;}
	.st98{fill:#6E321A;}
</style>
<ellipse class="st0" cx="377.6" cy="560.4" rx="371" ry="85.5"/>
<g>
	<g>
		<path class="st1" d="M415.1,297.1c-2-0.8-4.2-1.9-6.8-3.4c-8-4.6-18.3-12.3-28-20.5c-3.9-3.3-7.7-6.7-11.2-10.1
			c0,0-3.9-11.9-8-25.5c-5.7-19.4-11.7-42.3-7-39.4c5.1,3.2,26.2,24.7,41.9,41.7c9,9.7,16.1,18,17.4,20.4
			C417.1,266.9,425.8,301.3,415.1,297.1z"/>
		<path class="st2" d="M380.3,273.1c-3.9-3.3-7.7-6.7-11.2-10.1c0,0-27.4-73.4-19.4-68.5c5.1,3.2,30.7,28.3,46.3,45.3
			C386.6,245.4,376,259.6,380.3,273.1z"/>
		<path class="st3" d="M408.4,293.7c-8-4.6-18.3-12.3-28-20.5c-3.9-3.3-7.7-6.7-11.2-10.1c0,0-3.9-11.9-8-25.5V237
			c15.4,25.6,39.6,40.2,39.6,40.2S405.2,286.5,408.4,293.7z"/>
		<path class="st1" d="M291.2,156.9l-0.7,30.8c0,0,29.2,32.3,28.9,31.1c-0.3-1.3,8.6-32.2,8.6-32.2l-6.8-31.5L291.2,156.9z"/>
		<path class="st2" d="M282.6,436c0,0,1.5-52.6-1.4-89.2c-1-12.5-5.7-27.9-11-43.7c-10.2-30.5-22.5-62.9-14.3-80.2
			c17.3-36.4,35.7-40.1,35.7-40.1l15.2,7.8l11.2,20.8l0.2-23.6l9.7-7.6c0,0,21.5,10.9,28.7,21.3c7.1,10.5,9.3,36.8,11.6,46.7
			c0.8,3.3,2,7,3.6,11.5c3.2,9.2,7.4,21.5,10.2,39.5c4.3,26.8,17.4,131.6,17.4,131.6L282.6,436z"/>
		<path class="st3" d="M282.6,436c0,0,1.4-47.9-1.1-84.8c-0.1-1.5-0.2-2.9-0.3-4.3c-0.1-1-0.2-1.9-0.3-2.9c-0.4-3.5-1.1-7.1-1.9-11
			c-1.1-5-2.6-10.3-4.3-15.8c-1.4-4.6-2.9-9.3-4.5-14.1l0.1-45.1c0,0,37.5,29.7,71.8,25c30-4,29.7-14.9,29.7-23.3
			c3.2,9.2,7.4,21.5,10.2,39.5c0,0.3,0.1,0.6,0.2,0.9c0.6,3.6,1.3,8.6,2.1,14.5c0.6,4.6,1.3,9.9,2,15.5c0.3,2,0.5,4.1,0.8,6.3
			c5.6,43.4,12.3,94.4,12.3,94.4L282.6,436z"/>
		<path class="st4" d="M384.2,314.7L278.9,333c-1.1-5-2.6-10.3-4.3-15.8l107.5-17C382.7,303.8,383.4,308.8,384.2,314.7z"/>
		<path class="st4" d="M387.1,336.4l-105.6,14.8c-0.1-1.5-0.2-2.9-0.3-4.3c-0.1-1-0.2-1.9-0.3-2.9l105.4-13.8
			C386.5,332.2,386.8,334.3,387.1,336.4z"/>
		<polygon class="st5" points="306.8,190.6 294.6,204.8 281.2,185.6 287.1,179.5 		"/>
		<polygon class="st5" points="318.2,187.8 330.1,200.1 340.2,184.5 328.8,177.8 		"/>
		<path class="st6" d="M369.9,207.4c2.6-0.1,7.7,15.6,7.7,15.6s-5.3,2.8-7.6,2.1c-2.3-0.6-9.5-13.3-9.5-13.3L369.9,207.4z"/>
		<path class="st7" d="M350.9,218.7c0,0-7.9,7.3-17.8,10c-9.9,2.8-28.2,7.4-34.3-2.8c-2.1-3.5-3.4-7.4-3.5-10.8
			c0-6.6,4.6-12,17.3-12.4c13.9-0.4,26.4,4.5,32.5,7.4c2.5,1.2,3.9,2,3.9,2L350.9,218.7z"/>
		<path class="st6" d="M353.6,217.4c1.4,3,4.7,2,7.1,4.8s7.8,3.3,9.3,2.9c1.5-0.4-2.2-6.1-2.2-6.1s-4.7-0.2-7.4-1.8
			C357.8,215.6,353.6,217.4,353.6,217.4z"/>
		<path class="st8" d="M350.9,218.7c0,0-8.6,1.1-9.1,0c-0.4-1.1,6-2.8,6-2.8s-4.6,0.5-3.9-1c0.2-0.4,1.3-2.2,5.2-2.6
			c8.7-0.9,24.3-0.2,24.3-0.2s4.2-11,9.2-6.8c5.1,4.2-5.1,9.8-5.1,9.8s7.9,3.5,5.3,6.7c-2.6,3.3-9.4-5.7-9.4-5.7L350.9,218.7z"/>
		<path class="st6" d="M350.9,215.1c-0.2,3.3,2.7,1.9,4.5,0.1c1.8-1.8,3.9-6,2.8-7.4C357.2,206.3,352.7,205.7,350.9,215.1z"/>
		<path class="st6" d="M355.2,214.3c-0.2,3.3,2.7,1.9,4.5,0.1c1.8-1.8,3.9-6,2.8-7.4C361.5,205.5,357.1,204.9,355.2,214.3z"/>
		<path class="st6" d="M359.6,213.6c-0.2,3.1,2.5,1.8,4.2,0.1c1.7-1.7,3.6-5.6,2.6-6.9C365.5,205.4,361.3,204.8,359.6,213.6z"/>
		<path class="st6" d="M365.4,212.9c-0.2,2.6,2.1,1.5,3.5,0.1s3.2-4.6,2.4-5.7C370.5,206.2,367.1,205.6,365.4,212.9z"/>
		<path class="st6" d="M413.7,297.4c-20.9-8.9-44-73-44-73l8-1.3c0,0,31.6,31.6,39.7,40c14.2,14.7,15.6,27.4,12.1,33.1
			C426,301.7,419.2,299.7,413.7,297.4z"/>
		<path class="st6" d="M305.5,352.8c0,0-22,16.8-38.9,20c-7.8,1.5-15.6-1.5-18.2-13.7c-1.4-6.7-8.5-36.7-7.5-68.2
			c0.9-26,10.2-51.2,16.1-65.8c0,0,23.1,10.6,21.6,27.6c-0.7,7.7-0.9,24.4-2.9,42.3c-2.5,21.5-4.9,42.2-4.9,42.2l33.7,6.3
			L305.5,352.8z"/>
		<path class="st2" d="M280.5,250.8c-0.7,7.7-2.7,26.2-4.8,44.1c-7.3,0.1-25.4-0.3-34.8-4.1c0.9-26,9-53.3,15-67.9
			C255.9,222.9,282,233.7,280.5,250.8z"/>
		<polygon class="st9" points="312.9,338.3 308.5,321.6 341,319.3 339.4,330.1 335.6,360.3 318,361.1 		"/>
		<path class="st8" d="M305.6,319.4c0,0.3,1.2,4.7,1.2,4.5c0-0.2,36.9-2.5,36.8-2.7s-0.1-4.5-0.4-4.4
			C342.7,316.8,305.6,319.4,305.6,319.4z"/>
		<path class="st8" d="M307.1,320.1c0-0.2,4-5,4-5l22.4-0.9l2.1-2.4l3,0.1l1.8,6L307.1,320.1z"/>
		<path class="st6" d="M257.7,94.3c-0.2,1.2,4.1,71.6,49.8,71c45.7-0.5,44.5-68.1,44.8-80.9c0.3-12.9-4.7-44.6-13.8-48.1
			s-65.4,1.1-73,5.3C258,45.9,257.7,94.3,257.7,94.3z"/>
		<path class="st10" d="M260.1,109.5c-2.2-21.5,3.2-54.7,7.8-62.3c22.7,13,69.7-5.2,69.7-5.2s11.9,33,14.4,61.3
			c5.2-18.5,2.8-59.1,1.3-66.5c-1.5-7.4-15.3-14.3-15.3-14.3s-3.9-7.6-11.2-10c-7.3-2.4-14,1.5-14,1.5s-2.1-5.3-8.6-4.7
			s-48.2,24.9-52.4,31.3C247.6,47.3,257,98.1,260.1,109.5z"/>
		<path class="st6" d="M348.3,106.8c12.6-4.8,17.8,3.7,12.2,18.9c-5.6,15.2-16.6,8.8-16.6,8.8L348.3,106.8z"/>
		<path class="st6" d="M263.3,110.5c-13-3.6-17.4,5.3-10.5,19.9s17.4,7.3,17.4,7.3L263.3,110.5z"/>
		<path class="st11" d="M273.5,94c0,0,3.9,5.5,8.5,5.4c4.6-0.1,8.7-7.8,8.7-7.8s-5.6,4.4-8.6,4.7C279.1,96.6,273.5,94,273.5,94z"/>
		<path class="st11" d="M331.1,88.6c0,0-2.4,6.3-7,7.3c-4.5,1.1-10.4-5.4-10.4-5.4s6.5,2.9,9.5,2.4S331.1,88.6,331.1,88.6z"/>
		<path class="st12" d="M292,108.7c0,0,5.6,3.5,11.1,3.4c5.5-0.1,11.9-5.9,11.9-5.9s-8.5,2.9-12,3.2
			C299.5,109.7,292,108.7,292,108.7z"/>
		<path class="st13" d="M323,118.6c0,0-0.2,5.9-1.8,12.5c-1.8,7.4-5.6,15.7-13.1,17.1c-6.3,1.2-11.1-3.9-14.4-9.9
			c-4.1-7.4-6-16.1-6-16.1c1.8,0,3.5-0.2,5.2-0.6c6-1.3,11.5-4.4,16.5-5.1c5.4-0.7,11.3,1.2,13.1,1.9
			C322.8,118.6,323,118.6,323,118.6z"/>
		<path class="st14" d="M322.5,118.4c-5.4,3.3-16.4,6-29.6,3.3c6-1.3,11.5-4.4,16.5-5.1C314.9,115.8,320.7,117.8,322.5,118.4z"/>
		<path class="st15" d="M321.2,131.1c-1.8,7.4-5.6,15.7-13.1,17.1c-6.3,1.2-11.1-3.9-14.4-9.9c7.2-7.3,13.4-4.8,13.4-4.8
			S315.1,127.5,321.2,131.1z"/>
		<path class="st10" d="M265.9,83c12.6-9.6,27.2-5.7,27.2-5.7s0.9-6.3-5-8.7C282.2,66.3,264.6,76,265.9,83z"/>
		<path class="st10" d="M336.2,74c-13.4-8.5-27.6-3.2-27.6-3.2s-1.5-6.2,4.2-9.1C318.5,58.7,337,66.8,336.2,74z"/>
		<path class="st6" d="M305.5,352.8c0,0,15,6.6,18.6,5.7c3.6-0.9,13.4-10.2,14.1-11.2c0.7-1.1,0.2-5,0.2-5s2.4-5.3,2.5-6.7
			c0.2-1.4-1.5-5.4-1.5-5.4s-3.8,4.4-6,5.7s-20.6,2.5-20.6,2.5l-1.5-7.7c0,0-6.2,10.2-6.9,12.8C303.8,345.9,303.6,351.3,305.5,352.8
			z"/>
		<path class="st16" d="M345.2,210.1c-8.5,7.1-43.1,15.9-49.8,5c0-6.6,4.6-12,17.3-12.4C326.6,202.3,339.2,207.2,345.2,210.1z"/>
	</g>
	<g>
		<path class="st10" d="M60.2,128.3c-1.4,5.8-8.3,11.3-10.6,20.3c-2.2,8.9,7.2,16.4,14.2,16.3c7-0.2,0.2,7.6,0.7,13.2
			c0.4,5.6,8.9,2.3,13,1.7c4.1-0.6,5.8,5.9,11.6,4.1c5.8-1.9,5.7-7.2,12.6-3.7s38.8,6.7,43,12.7c4.2,6,15.6-4.9,20.3-2.5
			c4.7,2.4,7.6,5.7,12.7-0.6c5.1-6.3,11.4,5.7,18.1-1.5c6.7-7.2,3.6-21.3,12-23.2s8.9-13.3,4.9-18.8c-4.1-5.6-5.9-5.1-7-13.3
			C204.4,124.5,60.2,128.3,60.2,128.3z"/>
		<path class="st17" d="M230,364.4c-5.4,6-17.2-5.8-22.2-13c-1.2-1.7-2-3.1-2.2-4c-0.2-0.8-1-2.5-2-4.7c-2-4.3-5.2-10.5-8.2-16.2
			c-4-7.6-7.6-14.2-7.6-14.2s-4.1-20.4-7.7-37.3c-1.8-8.6-3.5-16.3-4.5-20c-2.9-11,2.1-26.4,2.1-26.4c19.5,20.6,38.1,71.5,45.2,91.3
			C229.8,339.8,236.7,357,230,364.4z"/>
		<path class="st18" d="M196,294.9c2.1,6.2,0.4,23-0.6,31.6c-4-7.6-7.6-14.2-7.6-14.2s-4.1-20.4-7.7-37.3l-0.1-13.1
			C179.9,261.9,193.2,286.4,196,294.9z"/>
		<path class="st18" d="M207.8,351.4c-1.2-1.7-2-3.1-2.2-4c-0.2-0.8-1-2.5-2-4.7c3.7-0.2,10.4-3,14,0.8
			C220.3,346.2,214.7,350.5,207.8,351.4z"/>
		<path class="st6" d="M63.7,223.7c-0.2,0.6-1.7,21.9-1.7,21.9l12.5,0l-1.9-23.5L63.7,223.7z"/>
		<path class="st17" d="M125.4,421.3c0.4-12.8-20.1-122.2-20.1-122.2s-29.7,74.5-34,75c-4.4,0.5-4.1-48.6-4.1-48.6s1.2-3.8,3.2-9.8
			c2.5-7.7,6.4-19,10.6-30.7c6.4-17.7,13.6-36.3,18.7-44.9c5.4-9,11.7-15.2,16.8-19.2c1.2-0.9,2.3-1.8,3.4-2.5
			c3.9-2.7,6.5-3.8,6.5-3.8l-2.5-29.8l19.5,0.1l6.7,26.3c0,0,3.7,1.6,8.5,4.1c1.2,0.6,2.4,1.3,3.7,2c5.5,3.1,11.6,7.2,15.2,11.3
			c7.8,9,0.7,21.8,2.4,28.8c0.9,3.5,2.4,7.5,4.2,12.3c0.5,1.2,0.9,2.5,1.4,3.8c1.3,3.8,2.7,8.1,3.9,13.1c0.8,3.1,1.3,6.4,1.7,9.6
			c1.2,10.8,0.6,22.1,1.1,32.6c0.7,13.8,18.6,133,18.6,133l-91.3,4.5C119.6,466.3,125,434.1,125.4,421.3z"/>
		<path class="st18" d="M210.9,461.9l-4.5,0.2c-1.3-17.5-8.6-84.6-43.8-85.4c-35.9-0.8-33.6,72.4-32.6,89.1l-10.4,0.5
			c0,0,5.5-32.2,5.9-45c0.4-12.8-20.1-122.2-20.1-122.2s-29.7,74.5-34,75l33.7-83.3c0,0,14.9,10.1,48.6,8.5
			c28.3-1.4,30.6-22.8,30.6-29.6c0.5,1.2,0.9,2.5,1.4,3.8c1.3,3.8,2.7,8.1,3.9,13.1c0.8,3.1,1.3,6.4,1.7,9.6
			c1.2,10.8,0.6,22.1,1.1,32.6C192.9,342.6,210.9,461.9,210.9,461.9z"/>
		<path class="st18" d="M73.3,350.8l-2.8-35.1c2.5-7.7,6.4-19,10.6-30.7C84.6,313.4,73.3,350.8,73.3,350.8z"/>
		<path class="st17" d="M71.3,374.1c-8.9,2.8-21.1-12.1-22.6-28.9c-1.5-16.8,13.6-108,13.6-108l15.5,0.9c0,0-1,89.6-2.1,102.1
			C74.6,352.8,71.3,374.1,71.3,374.1z"/>
		<path class="st19" d="M162.4,217.3l-18.6,30.8c0,0-19.1-18.5-27.2-27.2c1.2-0.9,2.3-1.8,3.4-2.5c3.9-2.7,6.5-3.8,6.5-3.8
			l-2.5-29.8l19.5,0.1l6.7,26.3c0,0,3.7,1.6,8.5,4.1C159.9,215.9,161.1,216.6,162.4,217.3z"/>
		<path class="st6" d="M158.7,215.3l-15.8,26.2c0,0-16.8-16.3-22.9-23c3.9-2.7,6.5-3.8,6.5-3.8l-1.1-13.4l-0.4-5.1l-0.9-11.4
			l19.5,0.1l2.4,9.6l1.7,6.6l2.6,10.1C150.2,211.1,153.9,212.7,158.7,215.3z"/>
		<path class="st1" d="M147.6,201.1c-3.1,1.5-7.8,3.5-10.9,3.4c-3.2-0.2-8.2-1.9-11.4-3.2l-0.4-5.1l21-1.7L147.6,201.1z"/>
		<g>
			<g>
				<path class="st20" d="M71.9,224.6c2.5-1.7,4.7-4.2,5.1-7.4c0.4-3.2,9.6-9.5,10.4-11.4c0.8-1.9,0-2.9-3-2.7
					c-3,0.1-9.2,9-11.7,9.5c-2.5,0.5-6.7-4.4-7.9-5.1c-1.1-0.7,0.1,14.4,1.4,15.8C67.6,224.6,71.9,224.6,71.9,224.6z"/>
				<polygon class="st21" points="64.1,191.3 107.5,219.4 108,218.7 65.4,189.1 				"/>
				<polygon class="st21" points="105.3,222 61.2,195.4 59.8,198.1 104.8,222.9 				"/>
				
					<radialGradient id="SVGID_1_" cx="1996.8177" cy="444.3394" r="28.2594" gradientTransform="matrix(0.9988 -4.870000e-02 -4.870000e-02 -0.9988 -1886.2211 733.3704)" gradientUnits="userSpaceOnUse">
					<stop  offset="0" style="stop-color:#FA967B"/>
					<stop  offset="3.766358e-03" style="stop-color:#FA967B"/>
					<stop  offset="0.377" style="stop-color:#FDAF88"/>
					<stop  offset="0.7194" style="stop-color:#FEBE90"/>
					<stop  offset="1" style="stop-color:#FFC393"/>
				</radialGradient>
				<path class="st22" d="M59.3,203.4c0,0,8-7.1,10.6-8.2s15.5,5.6,16.5,6.5c0.9,0.9-2.1,3.2-4.6,3.2c-2.5,0-12-4.2-12-4.2l-9.7,8.2
					L59.3,203.4z"/>
				
					<radialGradient id="SVGID_2_" cx="1991.0988" cy="426.1239" r="19.0201" gradientTransform="matrix(0.9988 -4.870000e-02 -4.870000e-02 -0.9988 -1886.2211 733.3704)" gradientUnits="userSpaceOnUse">
					<stop  offset="0" style="stop-color:#FCA784"/>
					<stop  offset="0.2255" style="stop-color:#FDB28A"/>
					<stop  offset="0.6273" style="stop-color:#FFBF91"/>
					<stop  offset="1" style="stop-color:#FFC393"/>
				</radialGradient>
				<path class="st23" d="M60.9,206.5c0,0,6.6-6.9,8.9-7.6s16.4,9.3,16.4,9.3s-2.6,3.2-5.2,3c-2.6-0.3-11-6.1-11-6.1l-9.3,7.9
					L60.9,206.5z"/>
				
					<radialGradient id="SVGID_3_" cx="1984.1798" cy="416.0316" r="13.5108" gradientTransform="matrix(0.9988 -4.870000e-02 -4.870000e-02 -0.9988 -1886.2211 733.3704)" gradientUnits="userSpaceOnUse">
					<stop  offset="0" style="stop-color:#FA967B"/>
					<stop  offset="1" style="stop-color:#FFC393"/>
				</radialGradient>
				<path class="st24" d="M59.2,210.5c0,0,12.1-3.9,14.2-3.8c2.1,0.1,12.4,7.4,12.4,7.4s-0.6,1.7-3.1,1.9c-2.5,0.2-9.8-3-9.8-3
					l-12.1,3.4L59.2,210.5z"/>
				<path class="st6" d="M65.4,214.1c0,0,6.3-1.4,7.4-1.6s9,2.9,9,2.9s0.2,1.7-1.5,2.4c-1.6,0.6-7.1-0.2-7.1-0.2l-4.6,2.5
					c0,0,3.3,3.3,3.3,4.5c0.1,1.3-4.2,4-7.9,1.4s-8-15.7-8.2-17.6c-0.2-1.9,3.5-5,3.5-5L65.4,214.1z"/>
			</g>
			<path class="st25" d="M98.1,218c-0.7,0.6,0.1,1.2,0.8,1.1c-0.1,1.6,2.8,2.8,3.4,1.8c0.3,1,1.2,2,2.2,0.7c0.6,0.6,1.9-0.9,1.6-2.2
				c1.4,0.8,1.4-1,0.3-2.4c-1.1-1.5-2.2-0.7-2.2-0.7s-0.4-1.7-1.1-1.5c-0.8,0.1-1,1.3-1,1.3s-0.2-1.5-1.4-1.1s-0.9,2.2-0.9,2.2
				S96.8,215.5,98.1,218z"/>
		</g>
		<g>
			<path class="st26" d="M126.7,310.3c-0.6,0.5-6.6,6.5-6.6,6.5s6.1,4.6,6.1,4.1s3.8-7.9,3.8-7.9L126.7,310.3z"/>
			<polygon class="st26" points="178.2,307.4 175.9,310.6 180.8,319.6 185.6,312.6 			"/>
			<path class="st25" d="M129.8,311.5c-3.1-4.9,0.1-4.7,1.6-4.3c2.3-5.3,7.6-3.7,8.5-1.4c2.3-2,3.4,0.7,3.4,0.7s2.1-8.4,6.9-3.4
				c4.8-1.4,5.4,0.4,5.5,2.9c4.3-5.6,8-1.6,8.2-0.7c2.2-5.8,3.2-0.2,3.2-0.2s4-3.2,5.6,1.1c2.9-3.5,4.9-0.1,4.3,2.6
				C176.6,311.5,129.8,311.5,129.8,311.5z"/>
			<polygon class="st27" points="178.2,307.4 176,324.2 171,362.6 139.1,361.1 132.8,335.1 126.7,310.3 			"/>
			<path class="st28" d="M178.2,307.4l-2.2,16.7c-10.7-5.8-37.8-6.3-43.3,10.9l-6.1-24.8L178.2,307.4z"/>
			<path class="st29" d="M178.2,307.4l-3.3,8.1l-12.5,1.1c-2.8-5.2-15.7-6.1-16.6,1.5l-12.7,1.2l-6.5-9.1L178.2,307.4z"/>
			<path class="st30" d="M141,326.1c0,0.8,4.2,20.3,4.2,20.3l17.6-1.4l3.8-21.2L141,326.1z"/>
		</g>
		<path class="st6" d="M160.2,359.2c0,0-1.9-4-3.5-5.2c-1.7-1.1-2.4-6.9-2.1-8.3c-2.7-0.1-4.3,3.4-3.8,5.6s2.6,6.3,2.6,6.3
			s-9.5-1-11.4-1.3c-1.9-0.3-6.3-2.1-7.5-2.9c-1.2-0.8-1.6,2.1-1.6,2.1s-1.8-1.4-2.3-0.2s-0.1,1.4,1.9,4.3c2,2.9,13.5,8.7,16.9,9.7
			s17.7-2.2,17.7-2.2l-1.6-5L160.2,359.2z"/>
		<path class="st17" d="M163.5,358.8l2.6,10.7c0,0,61,0.8,63.9-5.1s-6.3-21.1-13.2-21.4C209.8,342.6,163.5,358.8,163.5,358.8z"/>
		<path class="st6" d="M86.2,123.6c0.2,1,8.1,50.2,14.7,58.7c6.6,8.5,27.7,19.6,36.6,18.9c8.9-0.7,27.2-14.1,31.1-23.2
			c3.9-9.1,7.8-52,7.8-52l4.4-24.8c0,0-31.9-39.6-44.8-39.3C123.1,62.3,80.2,92.7,86.2,123.6z"/>
		<path class="st11" d="M156.9,129.8c0.1,5-2,9.2-4.7,9.2c-2.7,0.1-4.9-4-5-9c-0.1-5,2-9.2,4.7-9.2
			C154.6,120.8,156.8,124.8,156.9,129.8z"/>
		<path class="st11" d="M159,128.3c-4.9-5.4-10.8-5.4-13.4,0.7C147.7,115.3,155.8,117.3,159,128.3z"/>
		<path class="st11" d="M109.4,132.2c0.5,5,3,8.8,5.7,8.6c2.7-0.3,4.4-4.6,4-9.6c-0.5-5-3-8.8-5.7-8.6
			C110.7,122.9,108.9,127.2,109.4,132.2z"/>
		<path class="st11" d="M107.1,130.9c4.2-6,10.1-6.8,13.3-1C116.9,116.6,109.1,119.6,107.1,130.9z"/>
		<path class="st31" d="M124.8,146.6c0,0,4.9,5.3,10.7,4.4c5.9-0.9,8.7-6.3,8.7-6.3s-4.5,2.8-9.7,3.2
			C129.3,148.3,124.8,146.6,124.8,146.6z"/>
		<path class="st10" d="M141.9,110.3c7.6-2,19,0,24.1,6.4C160.9,103.8,144,104,141.9,110.3z"/>
		<path class="st10" d="M123.8,114.1c-7.6-1.9-19.1,0.2-24.1,6.8C104.8,107.8,121.7,107.8,123.8,114.1z"/>
		<path class="st13" d="M150.4,157.8c-0.8,3.6-1.8,7.5-3.2,10.9c-0.4,0.9-0.8,1.8-1.2,2.6c-2.5,5-5.9,8.6-10.3,8.6
			c-5.1,0-9-2.8-11.9-6.5c-0.5-0.6-1-1.2-1.4-1.9c-3.5-5.1-5.3-11.3-6.1-14.2c-0.3-1-0.4-1.6-0.4-1.6c10.5,4.2,27.9,3.4,35.1-0.7
			C150.8,155.9,150.6,156.8,150.4,157.8z"/>
		<path class="st14" d="M150.4,157.8c-7.2,5.4-21.6,7.6-34.2-0.4c-0.3-1-0.4-1.6-0.4-1.6c10.5,4.2,27.9,3.4,35.1-0.7
			C150.8,155.9,150.6,156.8,150.4,157.8z"/>
		<path class="st10" d="M135.3,81.3c-1.7,11.3-19,5.5-27.4,8.7c-8.4,3.1,2.3,10.3-5.3,18.9c-17.8,20.3-1.4,32.3-12.6,38.1
			c1.8,13.5-31.4-11.4-29.7-18.8s-11.5-11.2-9.3-21.8S60.4,89.1,67,85.1c10-5.9,3.8-19.8,10.8-29c8.5-11.3,18.1-1.8,25-3.1
			c6.9-1.2,10.3-10.2,17.9-12.2s15.1,7.4,15.1,7.4s1.7-13.3,21.8-3.8c8.2,3.9,5.5,8.1,14.3,8.1s26.6-1,27.4,10.4
			c0.9,11.4-6.1,13-1.8,19.7c4.2,6.6,15.4,6.7,15.9,24c0.5,17.3-8.3,16.1-7.8,26.2c0.5,10.1-28.8,19.7-32.3,14.1s0-9.6,0.9-14.1
			c0.9-4.5,0.9-12.3-4.9-18c-5.8-5.7-7.4-10.9-5.5-16.9c1.8-6-10.6-11.1-17.6-10.4C134.4,88.5,135.3,81.3,135.3,81.3z"/>
		<path class="st32" d="M147.2,168.7c-0.4,0.9-0.8,1.8-1.2,2.6c-2.5,5-5.9,8.6-10.3,8.6c-5.1,0-9-2.8-11.9-6.5
			c-0.5-0.6-1-1.2-1.4-1.9c8.9-7,14.2-0.3,14.2-0.3S141.6,164.5,147.2,168.7z"/>
		<path class="st6" d="M172,143.2c0.2-0.4,14.9-5.4,13.8,13.5s-16.8,12.5-16.8,12.5L172,143.2z"/>
		<path class="st6" d="M93,145.5c-0.2-0.3-15.4-3.7-12.4,15c2.9,18.8,17.9,10.5,17.9,10.5L93,145.5z"/>
	</g>
	<g>
		<path class="st33" d="M427.1,345.7c0,0-1.7,1-4.3,2.6c-1.3,0.8-2.9,1.8-4.7,2.9c-7.7,4.7-18.6,11.5-26.4,16.7
			c-13.2-21.9-9.7-102,10.6-139.7c0,0,4.5,10.5,9.4,24c3.4,9.4,7,20.3,9.5,30.3c0.8,3,1.4,6.2,2,9.6
			C427.3,316,427.1,345.7,427.1,345.7z"/>
		<path class="st34" d="M423.3,292.2c-0.1,20.5-0.3,43.8-0.4,56.1c-1.3,0.8-2.9,1.8-4.7,2.9c-4.2-4.5-9.8-10-9.8-10
			c6.3-13.5,4.7-62.7,1.9-79.3c-0.8-5.1,0-8.1,1.5-9.7c3.4,9.4,7,20.3,9.5,30.3C422,285.6,422.7,288.8,423.3,292.2z"/>
		<path class="st35" d="M435.2,196.7c6.5-2.9,47-3.7,53.4,0.7c6.5,4.4,1.2,13.5,1.2,13.5l-56.8-0.4L435.2,196.7z"/>
		<path class="st36" d="M505.3,442.9h-71.8l-6.4-233l4.4-2.9l5.4-3.5l1.6-1l5.3-3.5c0,0,2.9-33.5,2.9-34.4l26.7,7.1l3.2,26.4
			l9.2,3.9l2,0.8l9.3,3.9l3.1,32.7l2.4,25.5l0.2,15.8L505.3,442.9z"/>
		<path class="st37" d="M505.3,442.9h-71L431.6,207l5.4-3.5c0.8,39.9,9.5,191.8,27.8,196.8c18.8,5.1,23.9-183.2,23.2-195.5
			c0-0.7,0-1.4,0-2l9.3,3.9l3.1,32.7l2.6,41.3L505.3,442.9z"/>
		<path class="st33" d="M415.5,442.9c0,0,3.2-63.1,1.9-116.5c-1.3-53.4-16.4-91.7-15.1-98.1c0.6-3.1,8.5-10.8,16.4-17.8
			c8-7,15.9-13.4,16.4-13.8l0,0c0,0.3,0.6,28.6,1.4,65.9c1.5,72.9,3.8,180.3,3.8,180.3H415.5z"/>
		<path class="st33" d="M528.5,337.9c0,0-4.5-19.5-16.7-53.6c1.6,22.3,10.2,158.5,10.2,158.5h-20.7L491,243.7l-2.4-46.2l9.9,6.4
			c0,0,1.5,0.4,3.7,1c5.4,1.6,11.2,5.5,15.9,12.2c4.7,6.7,21.5,45.5,21.5,45.5l10.8,52.9L528.5,337.9z"/>
		<path class="st1" d="M485.9,201.9c-10.1,8.8-29.7,12.5-47.4,0.6l5.3-3.5c0,0,2.9-33.5,2.9-34.4l26.7,7.1l3.2,26.4L485.9,201.9z"/>
		<path class="st38" d="M436.5,262.6l-7.5-43c0,0-10.3,16.7-10.3,15.8v-24.9c0-3,0-5.1,0-5.1l16.4-8.7l0,0
			C435.2,197,435.8,225.3,436.5,262.6z"/>
		<path class="st38" d="M422.5,342.9c-12.1-10.4-31.5-4.5-33.6,11.3c-2,15.8,9.7,30.5,19.9,30s17.2-11.5,17.2-11.5L422.5,342.9z"/>
		<polygon class="st38" points="506.1,228.9 494.6,215.6 491,243.7 488.6,197.4 501.6,201.9 502.1,204.8 		"/>
		<path class="st38" d="M534.4,301.2c-18.8,29.9-3.5,51.9,8.9,52.2C549.7,339.1,534.4,301.2,534.4,301.2z"/>
		<path class="st6" d="M533.4,187.4c0,0-26-5.8-28.5-6c-2.5-0.2,3.3-3.7,7.4-3.9s5.6,1.2,8.3,1.9c2.7,0.8,3.9-1,7.4-1
			C531.5,178.5,534,181.2,533.4,187.4z"/>
		<path class="st6" d="M541.1,181.5c0.4-10-9.3-26.5-12-26.1S515.5,170,515.5,170s6.6,6.4,8.2,9.7c1.5,3.3,7.8,7,9.7,7.8
			C535.3,188.2,541.1,181.5,541.1,181.5z"/>
		<path class="st39" d="M494.3,187.3c0,0-4.8,7.8-10.7,10c-3.7,1.4-9.7,1.5-13.7,1.5c-2.4,0-4.1-0.2-4.1-0.2l-0.9-1.6
			c0,0,1.8,0.1,4.4,0c3.9-0.1,9.5-0.5,13.3-1.9c6.3-2.2,10-8.7,10-8.7s49.3-48.3,52-39.9C546.4,151.8,494.3,187.3,494.3,187.3z"/>
		<path class="st6" d="M498.1,179.3c2.1,2.9,8.9-2,10.4-5.4c0.8-1.9,4.3-7.1,4.3-7.1s-5-1.5-5.7-1.6c-1.6-0.3-3.5,5.4-5.2,7.9
			C500.1,175.6,497.3,178.2,498.1,179.3z"/>
		<path class="st6" d="M503.7,174.8c2.1,2.9,7.9-0.9,10.4-5.4c1-1.9,3.2-6.3,3.2-6.3s-3.9-2.3-4.6-2.4c-1.6-0.3-3.5,5.4-5.2,7.9
			C505.7,171.1,502.9,173.7,503.7,174.8z"/>
		<path class="st6" d="M512.4,169.3c2.1,2.9,5.7-1.9,8.2-6.4c1-1.9,2.2-4,2.2-4s-3.9-2.3-4.6-2.4c-1.6-0.3-3.5,5.4-5.2,7.9
			C511.3,166.9,511.7,168.2,512.4,169.3z"/>
		<path class="st40" d="M485.7,198.5c0.4,2.6,0.1,5.2-0.5,7.6c-0.7,2.4-1.6,4.6-2.5,6.8c-1.9,4.3-3.8,8.6-4.7,13.1
			c-0.4,2.2-0.4,4.5-0.1,6.8c0.2,2.3,0.7,4.6,1.2,6.9c0.5,2.3,1.2,4.5,2,6.8c0.7,2.2,1.5,4.5,2.4,6.6l-1.2,0.6
			c-2-4.4-3.7-8.9-5-13.5c-0.7-2.3-1.2-4.7-1.5-7.1c-0.3-2.4-0.5-4.9-0.1-7.5c0.8-4.9,2.8-9.4,4.6-13.7c0.9-2.2,1.8-4.3,2.3-6.5
			c0.6-2.2,0.8-4.4,0.5-6.5L485.7,198.5z"/>
		<path class="st6" d="M525.9,158.2c1-1.9,2.2-4,2.2-4s-3.9-2.3-4.6-2.4c-1.6-0.3-2.3,2.4-3.5,5.2
			C516.6,164.6,523.5,162.6,525.9,158.2z"/>
		<path class="st41" d="M483,206.8c0.5,1.8,0.9,3.6,1.2,5.4c0.5,2.9,0.7,5.8,0.6,8.8c0,1.7-0.2,3.4-0.4,5.1c-0.2,1.7-0.5,3.4-1,5
			c-1,3.3-2.6,6.3-4.2,9.3c-1.5,3-3,6-4,9.2c-1,3.2-1.7,6.5-1.7,9.8c0,6.7,2.3,13.3,6.1,18.7l-1.4,1.1c-1.3-1.4-2.2-2.8-3.1-4.4
			c-0.9-1.5-1.6-3.1-2.3-4.8c-1.3-3.3-2-7-2-10.6c0-7.3,3.1-14.1,6.3-20.1c1.6-3,3.2-5.9,4.2-8.9c0.3-0.8,0.5-1.5,0.7-2.3
			c0.2-0.8,0.3-1.6,0.5-2.4c0.3-1.6,0.5-3.2,0.5-4.9c0.1-1.6,0.1-3.3,0-4.9c0-0.4,0-0.7,0-1.1c-0.1-1.3-0.2-2.6-0.4-3.9
			c-0.2-1.5-0.5-2.9-0.9-4.4c-0.9-0.4-1.6-1.2-1.8-2c-0.7,6.1-2.2,1.1-2.7-0.5c-1.2,6.5-3.9,5.3-4.4,2.1c-0.4,1.3-0.9,1.9-1.4,2.2
			c0.2,0.4,0.5,0.8,0.7,1.2c1.2,1.7,2.6,3.7,3.2,6.1c0.1,0.5,0.2,0.9,0.2,1.4c0.1,0.8,0.1,1.5,0,2.3c-0.2,1.3-0.8,2.5-1.5,3.5
			c-0.7,1-1.6,1.9-2.5,2.6c-1,0.7-1.9,1.4-3,1.9l-0.5-1.2c1.9-1,3.6-2.5,4.7-4.2c0.5-0.9,0.9-1.9,1-2.8c0.1-1-0.1-2-0.4-3
			c-0.6-2-1.8-3.6-3.2-5.3c-0.7-0.9-1.3-1.9-1.8-3c-0.4-0.9-0.5-1.9-0.6-2.9c-0.1-0.2-0.1-0.4-0.2-0.6c-0.8-2.7-0.4-9.9-0.4-9.9
			c0.5-9.5,4.6-5.9,5.5-3.4c1.2-3.6,2.4-0.2,2.4-0.2s0.2-3.9,2.9-4.8c2.6-0.9,3.9,5.2,3.9,5.6c0-0.2,0.1-2,2.6-1.1
			c1.1,0.4,1.6,2,1.7,4.1v0c0.2,3.2-0.5,7.5-1.4,9.8C484.4,206,483.7,206.6,483,206.8z"/>
		<path class="st6" d="M460.2,50.1c-7.4-13.6-43.4,0.3-44.2,35.6c0.2,0.8,7.8,56.8,10.3,67.1s16.9,25.3,33.1,25.7
			c0.2,0,0.5,0,0.7-0.1c0.2,0.1,0.5,0.1,0.7,0.1c16.3-0.4,30.7-15.4,33.1-25.7c2.5-10.3,10.1-66.3,10.3-67.1
			C503.6,50.4,467.6,36.5,460.2,50.1z"/>
		<path class="st11" d="M483.6,104.6c0,5-1.9,9.1-4.3,9.1s-4.3-4.1-4.3-9.1s1.9-9.1,4.3-9.1S483.6,99.6,483.6,104.6z"/>
		<path class="st42" d="M496,88c-9.3-5.1-27.4-3.5-27.4-3.5s1.2-2.9,3.1-4.5S491,78.9,496,88z"/>
		<path class="st11" d="M436.9,104.6c0,5,1.9,9.1,4.3,9.1s4.3-4.1,4.3-9.1s-1.9-9.1-4.3-9.1C438.8,95.5,436.9,99.6,436.9,104.6z"/>
		<path class="st42" d="M424.5,88c9.3-5.1,27.4-3.5,27.4-3.5s-1.2-2.9-3.1-4.5S429.5,78.9,424.5,88z"/>
		<path class="st13" d="M481.9,134.1c0,1-0.2,2-0.3,2.9c-2.1,10.8-13.1,19.5-21.4,19.5c-8.9,0-18.6-10.2-19.3-22.3
			c0-0.3,0-0.5,0-0.8C449.3,138.2,478.6,137.3,481.9,134.1z"/>
		<path class="st14" d="M481.9,134.1c0,1-0.2,2-0.3,2.9c-8.5,6.9-28.8,9.5-40.7-2.7c0-0.3,0-0.5,0-0.8
			C449.3,138.2,478.6,137.3,481.9,134.1z"/>
		<path class="st1" d="M457.6,100.3c0.6,9.4-3.7,24.7-3.8,27.1c-0.1,2.4,13.7,1.4,13.7,1.4s-9-1.6-10.3-2.9
			C455.8,124.7,461.3,115.3,457.6,100.3z"/>
		<path class="st42" d="M416,115.3c-0.2-0.8-10.4-25.6-12.7-38c-2.3-12.3,4.2-37.6,14.5-33.3c12-21.8,42.6-29,60.1-25.6
			c8.1,1.5,5.6,9.8,17,16.2c11.4,6.4,18.5,11.9,19.8,24.1s-9.1,55.1-9.1,55.1l-4.8,0.2c0,0-0.2-33.5-1.7-41.8
			c-17,6.7-62.8,2.7-74.4-7.9c-4.2,6-3.7,49.5-3.7,49.5L416,115.3z"/>
		<path class="st6" d="M497.8,113.9c8.8-8.4,14-2.7,12.5,13.8c-1.4,16.5-15,20.6-15.8,15S497.8,113.9,497.8,113.9z"/>
		<path class="st6" d="M422.7,113.9c-8.8-8.4-14-2.7-12.5,13.8c1.4,16.5,15,20.6,15.8,15S422.7,113.9,422.7,113.9z"/>
		<path class="st6" d="M538.9,351.5c11,7.7,26.4-3.5,24.5-46.2c-1.9-42.7-22.3-123.9-22.3-123.9s-7,2.6-7.6,6.7
			c-0.6,4.1-2.9,129.6-1.6,142.4C533.2,343.3,535.7,349.3,538.9,351.5z"/>
		<g>
			<path class="st41" d="M449.5,317.5c0.2-1.2,0.4-2.3,0.8-3.5c0.3-1.2,0.8-2.3,1.5-3.4c0.7-1.1,1.6-2.2,2.9-2.9
				c1.3-0.7,2.9-0.8,4.2-0.5c2.7,0.7,4.6,2.4,6.3,4.1c1.6,1.8,3,3.9,3.9,6.1l-2.5,1c-0.2-2.1-1.2-4.3-2.6-6
				c-1.4-1.8-3.2-3.3-5.4-3.9c-1.1-0.2-2.3-0.1-3.3,0.4s-1.7,1.5-2.1,2.5c-0.5,1-0.8,2.1-0.9,3.2c-0.2,1.1-0.2,2.2-0.1,3.3
				L449.5,317.5z"/>
			<path class="st41" d="M468.7,317.5c-0.1-3.6,0-7.2,0.6-10.9c0.4-1.8,0.8-3.7,2-5.5c0.3-0.4,0.7-0.9,1.2-1.3
				c0.5-0.4,1.2-0.7,1.9-0.7c0.7,0,1.5,0.1,2,0.4c0.5,0.3,1,0.7,1.4,1.1c0.8,0.8,1.3,1.7,1.7,2.6c0.2,0.5,0.4,0.9,0.5,1.4l0.4,1.2
				c0.6,1.6,1.2,3.3,1.9,4.8c0.4,0.7,0.8,1.4,1.2,2c0.5,0.5,1,1,1.7,1.4c1.3,0.7,2.9,0.9,4.5,1l-0.1,2.7l-1.4-0.2
				c-0.5-0.1-0.9-0.2-1.4-0.3c-0.9-0.2-1.9-0.6-2.7-1.1c-0.9-0.5-1.6-1.2-2.2-2c-0.6-0.8-1-1.6-1.4-2.5c-0.8-1.7-1.3-3.4-1.8-5.1
				c-0.3-0.9-0.5-1.7-0.8-2.5c-0.3-0.8-0.8-1.5-1.3-2.2c-0.5-0.6-1.3-1.1-2.1-1.1s-1.5,0.6-2,1.3c-1,1.4-1.5,3.1-1.8,4.9
				c-0.3,1.7-0.5,3.5-0.6,5.2c0,0.9-0.1,1.8-0.1,2.6c0,0.4,0,0.9,0,1.3l0,0.7v0.3c-0.1,0.1,0.1,0.2,1.4,0.3L468.7,317.5z"/>
			<path class="st41" d="M474.7,317.8c0.7-2.9,1.6-5.8,3-8.5c0.7-1.3,1.6-2.6,2.7-3.8c1.1-1.1,2.4-2.1,4-2.5
				c0.8-0.2,1.6-0.3,2.4-0.2c0.8,0.1,1.6,0.4,2.3,0.7c1.4,0.8,2.5,1.9,3.3,3.1c1.7,2.5,2.5,5.4,3.1,8.2l-1.3,0.3
				c-0.6-2.7-1.5-5.4-3.1-7.5c-0.8-1-1.7-1.9-2.8-2.4c-1-0.5-2.2-0.6-3.2-0.2c-1.1,0.3-2.1,1.1-2.9,2.1c-0.9,1-1.6,2.1-2.2,3.4
				c-1.2,2.5-1.9,5.2-2.5,8L474.7,317.8z"/>
			<path class="st41" d="M491,316.4c-1.3-1.1-2.5-2.4-3.5-4c-0.9-1.6-1.5-3.6-1-5.6c0.5-2,1.8-3.6,3.4-4.6c1.5-1,3.3-1.6,5-2
				c0.8-0.2,1.8-0.3,2.8-0.2c1,0.1,2.1,0.6,2.9,1.2c0.8,0.7,1.4,1.6,1.8,2.5c0.4,0.9,0.6,1.8,0.7,2.7c0.2,1.8,0,3.6-0.6,5.3
				c-0.3,0.9-0.7,1.7-1.2,2.5c-0.5,0.8-1.2,1.6-2.2,2.1l-1.2-2.4c0.5-0.1,1.1-0.5,1.5-1c0.5-0.5,0.9-1.2,1.2-1.9
				c0.6-1.4,0.9-3,0.8-4.5c0-0.8-0.2-1.6-0.5-2.3s-0.7-1.4-1.3-1.9c-0.6-0.5-1.3-0.8-2.1-0.9c-0.8-0.1-1.6,0-2.3,0.2
				c-1.6,0.3-3.1,0.9-4.4,1.8c-0.6,0.5-1.2,1-1.7,1.6c-0.2,0.3-0.4,0.6-0.5,1c-0.1,0.2-0.2,0.3-0.2,0.5l-0.1,0.5
				c-0.3,1.5,0.2,3,1.1,4.1c0.9,1.2,2.1,2.2,3.3,3L491,316.4z"/>
			<path class="st41" d="M478.9,314.6c1.9-2.5,4.2-4.9,6.9-6.6c1.3-0.9,2.8-1.6,4.3-2.2c1.5-0.6,3.1-1,4.8-1.2
				c1.7-0.2,3.3-0.2,5,0.3c0.4,0.1,1,0.3,1.4,0.6l0.6,0.5c0.2,0.2,0.3,0.3,0.5,0.5c0.6,0.7,1.1,1.4,1.5,2.1c0.8,1.4,1.5,2.7,2.3,3.8
				c0.4,0.6,0.8,1,1.3,1.4c0.4,0.3,0.9,0.4,1.3,0.4l0.1,2.7c-1.1-0.2-2-0.6-2.7-1.3c-0.7-0.6-1.1-1.4-1.5-2.1
				c-0.4-0.7-0.7-1.4-1.1-2.1c-0.3-0.7-0.7-1.4-1-2.1c-0.3-0.7-0.7-1.3-1.2-1.9c-0.2-0.3-0.5-0.5-0.8-0.8c-0.3-0.2-0.7-0.4-1-0.5
				c-1.5-0.4-3-0.4-4.5-0.2c-1.5,0.2-3,0.6-4.4,1.2c-0.3,0.1-0.7,0.3-1,0.5c-0.3,0.2-0.7,0.3-1,0.5c-0.6,0.4-1.3,0.8-1.9,1.3
				c-2.4,1.8-4.3,4.2-5.7,6.8L478.9,314.6z"/>
			<path class="st41" d="M496.2,313.7c1.6-1.8,3.2-3.6,5.2-5c0.5-0.3,1.1-0.6,1.7-0.9l0.9-0.3c0.3-0.1,0.6-0.2,1-0.3
				c1.3-0.3,2.8-0.2,4.1,0.2c1.3,0.4,2.4,1.1,3.4,1.7c0.5,0.3,1,0.6,1.4,0.9c0.4,0.3,0.8,0.4,1,0.5c0.3,0,0.7,0,1-0.1
				c0.3-0.1,0.7-0.4,1-0.6c0.6-0.6,1.2-1.5,1.6-2.3l1.2,0.5c-0.4,1.1-1,2.1-1.8,2.9c-0.4,0.4-0.9,0.8-1.5,1
				c-0.6,0.2-1.2,0.3-1.8,0.3c-1.3-0.2-2.2-1-3.2-1.5c-1-0.6-1.9-1.1-3-1.3c-2-0.5-4,0.1-5.7,1.4c-1.7,1.3-3.1,3-4.5,4.7
				L496.2,313.7z"/>
			<path class="st43" d="M519.8,313.6c-13.5,50.1-58,43.8-72,3.5c0.8-0.3,2.2-0.5,3.8-0.8c12.3-1.8,45-2.9,66-2.7
				C518.4,313.6,519.1,313.6,519.8,313.6z"/>
			<path class="st44" d="M519.8,313.6c-13.5,50.1-58,43.8-72,3.5c0.8-0.3,2.2-0.5,3.8-0.8c4.5,6.6,16,20,34.3,20.3
				c18.1,0.3,27.8-15,31.6-23C518.4,313.6,519.1,313.6,519.8,313.6z"/>
			<path class="st41" d="M461.2,326.7c0-0.9,0.1-1.9-0.2-2.7c-0.2-0.8-0.7-1.4-1.5-2c-0.8-0.6-1.8-1-2.7-1.8c-1-0.8-1.6-2-1.8-3.2
				c-0.1-0.4-0.1-0.8-0.1-1.2c0-0.8,0-1.6,0.4-2.4c0.3-0.6,0.7-1.1,1.3-1.3c0.3-0.2,0.6-0.2,0.9-0.2c0.3,0,0.6,0,0.9,0
				c2.2,0.3,3.9,1.7,5.3,3.1c-0.7,0-1.3,0.1-2,0.1c-0.3-0.3-0.7-0.5-1.1-0.7c-0.8-0.5-1.7-0.8-2.4-0.9c-0.2,0-0.3,0-0.5,0
				c-0.1,0.1-0.3,0-0.3,0.1c-0.2,0.1-0.3,0.2-0.4,0.5c-0.1,0.3-0.2,0.9-0.1,1.4c0,0.3,0.1,0.6,0.1,0.9c0.2,0.8,0.6,1.4,1.2,1.9
				c0.6,0.5,1.6,0.9,2.7,1.6c1.1,0.6,2.1,1.8,2.6,3.1c0.5,1.3,0.5,2.5,0.5,3.7L461.2,326.7z"/>
		</g>
		<path class="st6" d="M408.5,343.1c-17.6,4.4-12.5,36.4,1.3,37c13.8,0.6,52.1-28,52.1-28l-1.6-9.6
			C460.3,342.4,420,340.2,408.5,343.1z"/>
		<path class="st6" d="M460.3,342.4c0,0,8.7-2,11.8-3.1c3.1-1.1,14.6,2.5,18.6,1.5s5.8,3.1,0.7,4.9c-5.1,1.8-12.8,1.8-12.8,1.8
			s-12.3,5.5-16.7,4.6C457.5,351.2,460.3,342.4,460.3,342.4z"/>
		<path class="st6" d="M461.9,352.1c0,0,28.6,3.2,31.3,1.8c2.7-1.5,11.1-11.5,11.8-14.2c0.7-2.7-6.6,0.9-9.3,3.6
			c-2.7,2.7-5.1,6.2-5.1,6.2s-11.8,0.2-16.2-1.5C470,346.4,461.9,352.1,461.9,352.1z"/>
		<path class="st6" d="M467.3,352.1c0,0,28.6,3.2,31.3,1.8c2.7-1.5,11.1-11.5,11.8-14.2c0.7-2.7-6.6,0.9-9.3,3.6
			c-2.7,2.7-5.1,6.2-5.1,6.2s-14-0.9-18.4-2.5C473.3,345.3,467.3,352.1,467.3,352.1z"/>
		<path class="st39" d="M469.9,198.7c-2.4,0-4.1-0.2-4.1-0.2l-0.9-1.6c0,0,1.8,0.1,4.4,0C469.6,197.6,469.8,198.2,469.9,198.7z"/>
		<path class="st40" d="M468.3,194.8c1.5,1.6,1.1,6.7,1.1,6.7S472.2,196.6,468.3,194.8z"/>
		<path class="st40" d="M484.9,204.7c-0.4,1-0.8,1.5-1.4,1.8c-0.5,0.1-1.3,0.2-1.8,0.1c-0.9-0.4-1.6-1.2-1.8-2
			c-0.7,6.1-2.2,1.1-2.7-0.5c-1.2,6.5-3.9,5.3-4.4,2.1c-0.4,1.3-0.9,1.9-1.4,2.2c0.2,0.4,0.5,0.8,0.7,1.2c1.2,1.7,2.6,3.7,3.2,6.1
			c0.1,0.5,0.2,0.9,0.2,1.4l0,0c-0.8-3.7-5.2-9.2-5.2-9.2s0.8-0.3,1.7-2.7c0.9-2.4,0-8.9-1.2-11.2c1.6,1.6,2.4,8.5,2.2,10.8
			s0.7,2.9,1.6,2.9c0.8,0.1,0.1-7.2-1.1-9.5c1.2,0.2,2.4,5.9,2.4,6.6s1-1.8,1-1.8s-0.3-8.7-1.3-11.3c1.6,2.2,1.8,9.7,2,10.9
			c0.1,1.2,0.7,2.4,1.2,2.4c0.4,0.1,2.1-4.4,2.6-7.1c-0.7,4.4-0.5,6.4-0.3,7.1c0.2,0.7,1.2,1.4,2.9-1.4c1.4-2.3,2.2-6.4,2.3-9.1
			C486.4,198.2,485.8,202.5,484.9,204.7z"/>
	</g>
	<g>
		<polygon class="st10" points="681.7,188.4 696.2,185.5 693,180.7 679.4,187.5 		"/>
		<path class="st45" d="M541.1,96.5c-2.5,18.5,1.2,33.7,3.3,50.8s-17.1,53.5-17.1,53.5s50,19.9,112.8,15.4
			c-7.5-26.1,1.8-67.5,17.8-81.6c16-14.1-6.7-57.3-6.7-57.3L541.1,96.5z"/>
		<path class="st6" d="M541.2,262.9c2.1,19.7,5.7,41.3,7.3,53.8c3.1,24.1-2.2,107.2-7.8,132.4c9.4,1.1,91.1,10.6,91.1,10.6
			s0.7-128.6-2.1-192.9c-0.8-18.3-1.9-31.4-3.3-34.8c-7-16.6-28.5-27.7-28.5-27.7l-1.6-27.2l-16-12.6l-5.8,37c0,0-24.3,7.2-32,20
			C538.8,227.7,539.3,244.5,541.2,262.9z"/>
		<path class="st6" d="M625.7,345c2.9,13.4,13.1,25.5,16.5,26.5c3.5,1,7.6-4.2,8.7-5.8c0.4-0.6-1.7-16.4-5-37.1
			c-1.3-7.9-2.7-16.6-4.2-25.5c-5-28.5-10.9-58.6-15.2-71.1C626.4,232,614.8,293.9,625.7,345z"/>
		<path class="st1" d="M639.7,354.7c1.3,3.7,4.1-12.1,6.2-26.1c-1.3-7.9-2.7-16.6-4.2-25.5C633.7,332.5,637.5,348.6,639.7,354.7z"/>
		<path class="st6" d="M642.2,371.5c5.1,2.1,15.2-5.7,19.3-18.2c5.9-17.7,3.3-117.4,3.3-117.4l-5.8-6c0,0-18.6,93.3-19.9,107.1
			C637.8,350.8,642.2,371.5,642.2,371.5z"/>
		<path class="st46" d="M644.3,200.1c-0.2,1.8-0.2,3.5,0,5.2c1.2,10.1,9.1,18.4,19.6,19.6c12.3,1.4,23.4-7.3,24.8-19.6
			c0.7-6.2-1.2-12.1-4.8-16.6c-3.5-4.4-8.7-7.5-14.8-8.2C656.8,179.1,645.7,187.9,644.3,200.1z"/>
		<path class="st47" d="M644.3,205.3c1.2,10.1,9.1,18.4,19.6,19.6c12.3,1.4,23.4-7.3,24.8-19.6c0.7-6.2-1.2-12.1-4.8-16.6
			C694,208.7,652.7,224.9,644.3,205.3z"/>
		<path class="st48" d="M683.3,185.2c11.7-12.8,4.6-27.6,4.6-27.6S674.8,169,683.3,185.2z"/>
		<path class="st49" d="M541.2,262.9c0.2,2.4,0.5,4.7,0.8,7.1c2.1,17.6,5.1,35.7,6.5,46.7c3.1,24.1-2.2,107.2-7.8,132.4
			c9.4,1.1,91.1,10.6,91.1,10.6s0.3-63.8-0.4-124c-0.3-25.2-0.8-49.9-1.7-68.9c-3.3,0.7-7.6,1.2-12.5,1.5l-5.7-57.1l-5.2-4.2
			l3.8,61.5c-11.2,0.2-24.4-0.3-36.7-1.3c-1.1-12.3-6.6-64.8-6.6-64.8l-6.7,2.4l6.7,61.8c-5.2-0.5-10.2-1.1-14.7-1.8
			c-0.5-0.1-1-0.1-1.5-0.2C547.1,264.1,544,263.5,541.2,262.9z"/>
		<path class="st50" d="M548.6,316.7c3.1,24.1-2.2,107.2-7.8,132.4c9.4,1.1,91.1,10.6,91.1,10.6s0.3-63.8-0.4-124
			c-19.8,91.1-78.8-12.1-79.3-70.8c0-0.4,0-0.8,0-1.1c0,0-0.6,0.4-1.5,0.9c-2.1,1.3-6.1,3.8-8.6,5.4
			C544.1,287.6,547.1,305.7,548.6,316.7z"/>
		<g>
			
				<rect x="580.4" y="325.4" transform="matrix(0.2307 -0.973 0.973 0.2307 127.6267 822.1989)" class="st51" width="6.8" height="9.9"/>
			
				<rect x="581.4" y="317.5" transform="matrix(0.2307 -0.973 0.973 0.2307 134.7411 818.8793)" class="st52" width="7.6" height="13.5"/>
			<path class="st51" d="M567.9,340.4c1.7-7.1,8.8-11.4,15.8-9.8l0,0c7.1,1.7,11.4,8.8,9.8,15.8l-14.8,62.2l0,0
				c-0.6,2.5-3.2,4.1-5.7,3.5c-1.1-0.3-2-0.9-2.6-1.7c-0.6-0.8-1.6-1-2.5-0.6c-0.9,0.4-2,0.6-3.1,0.3c-1.1-0.3-2-0.9-2.6-1.7
				c-0.6-0.8-1.6-1-2.5-0.6c-0.9,0.4-2,0.6-3.1,0.3c-2.5-0.6-4.1-3.2-3.5-5.7l0,0L567.9,340.4z"/>
			<path class="st53" d="M557.1,406.5c0.6,0.1,1.3,0.1,1.8-0.2c0.8-0.4,1.7-0.5,2.6-0.3c0.8,0.2,1.6,0.7,2.2,1.4
				c0.4,0.5,0.9,0.9,1.6,1c0.6,0.1,1.3,0.1,1.8-0.2c0.8-0.4,1.7-0.5,2.6-0.3c0.8,0.2,1.6,0.7,2.2,1.4c0.4,0.5,0.9,0.9,1.6,1
				c1.5,0.4,3.1-0.6,3.4-2.1l0.4-1.8h0l12-50.6l-22.5-2.6l-11.4,48.1L555,403C554.6,404.5,555.6,406.1,557.1,406.5z"/>
		</g>
		<path class="st6" d="M556.8,370.8l6.8-12.2l0.6,8.2c0,0,21.9-0.1,24.4,0.2s1.5,1,0.8,2.8c-0.7,1.8-6.7,3.1-6.7,3.1
			s3.8-0.6,4.5,0.5c0.8,1.1,0.3,2.8-0.4,3.1c-0.7,0.4-5.7,8.9-7.3,9.7c-1.6,0.8-22.3-5.2-23.7-8
			C554.4,375.6,556.8,370.8,556.8,370.8z"/>
		<path class="st6" d="M542.5,221.6c-17.8,44.3-37,146.1-32.8,150.3c4.1,4.2,46.2,6.4,46.2,6.4l1-7.6c0,0-16-20-25.9-15.4
			c2.8-17.9,18.6-85.9,21.1-91.7C554.5,257.9,542.5,221.6,542.5,221.6z"/>
		<path class="st6" d="M659,229.9c0,0,1-4,4.6-6c3.6-2,12.5-3.1,14.9-4.6s5.5-13.3,6.8-13.8s2.6,0.3,2.6,0.3s1-3.3,2.2-3.5
			c1.2-0.3,2.6,1.3,2.9,2.3c0.3,1-5,16-7.9,19.8c-2.8,3.9-17.9,11-20.2,11.5S659,229.9,659,229.9z"/>
		<path class="st6" d="M658.2,124.2c-16.9,37.9-46,57.5-62.7,55.9c-16.7-1.6-26.9-23.6-28.7-46.8s16.9-46.5,16.9-46.5l67-16.4l8,7.6
			L658.2,124.2z"/>
		<path class="st45" d="M658,134.7c-10.4-14.9-9-51.5-9-51.5s-23,35.6-75.5,28.8c-10.5-0.6-35.2,6.1-32.3-15.6s20.8-63.6,61.8-67.2
			S656.1,69,656.1,69s24.6,13.1,22.2,33.6S658,134.7,658,134.7z"/>
		<path class="st31" d="M624.8,123.7c-7.1,14.6-6.2,24.3-6.9,26.6c-0.7,2.3-10.5,0.4-12.9-5.7c4.6,3.7,10,5.2,10.8,3.1
			C616.6,145.5,618.3,129.5,624.8,123.7z"/>
		<path class="st13" d="M593.1,165.6c3.8-1.8,10.1-4.6,14-6.4c2-0.9,3.4-1.5,3.4-1.5c-8.1-4.1-16.5-14.6-17-20.7
			C588.8,148.1,591.9,163.4,593.1,165.6z"/>
		<path class="st14" d="M593.5,137c-0.7,7.7,2,14.8,13.6,22.2c2-0.9,3.4-1.5,3.4-1.5C602.4,153.6,594.1,143.1,593.5,137z"/>
		<path class="st11" d="M632.2,129.2c-2.4,4-2.6,8.2-0.6,9.4s5.6-1,8-5c2.4-4,2.6-8.2,0.6-9.4C638.2,123,634.6,125.2,632.2,129.2z"
			/>
		<path class="st11" d="M641.1,134.7c2.4-11.1-5.6-11.7-8.5-10.4C640.9,117.5,647.3,123.3,641.1,134.7z"/>
		<path class="st11" d="M603.7,113.7c-2.4,4-2.6,8.2-0.6,9.4s5.6-1,8-5c2.4-4,2.6-8.2,0.6-9.4S606.1,109.7,603.7,113.7z"/>
		<path class="st11" d="M612,119.2c2.4-11.1-5.6-11.7-8.5-10.4C614.6,99.6,616.9,110.2,612,119.2z"/>
		<path class="st45" d="M650.3,129.5c-0.9-12.1-12.6-17.8-15.5-17.3C642,107.3,653.2,115.9,650.3,129.5z"/>
		<path class="st6" d="M574.2,116.3c6.7-24.4-14.7-21.8-18.1-1.1C552.8,135.8,568.4,144.6,574.2,116.3z"/>
	</g>
	<g>
		<polygon class="st6" points="62.7,421.4 66.9,430.4 77.2,431.8 80.9,422.5 73.2,408.7 		"/>
		<path class="st6" d="M138.7,439.8l5.2,51.5c0,0-4.3,9.3-9.5,20c-1.1,2.2-2.2,4.6-3.4,6.9c-1.6,3.3-3.3,6.5-4.9,9.5
			c-3.5,6.7-7.1,12-8.5,14.6c-18.8,34.5-39.9,39.5-41.3,36.5c-1.3-3,10.7-37.8,10.7-37.8s11.9-22.7,15.7-32.8
			c1.1-2.8,2.2-5.9,3.5-9.1c1-2.7,2.1-5.4,3.2-8.2c9.1-23.6,20.6-51.9,25.5-58.6L138.7,439.8z"/>
		<path class="st54" d="M138.7,439.8l5.2,51.5c0,0-4.3,9.3-9.5,20c-1.1,2.2-2.2,4.6-3.4,6.9c-6.5-2.8-16-8.4-24.8-19.1
			c1-2.7,2.1-5.4,3.2-8.2c9.1-23.6,20.6-51.9,25.5-58.6L138.7,439.8z"/>
		<path class="st55" d="M134.4,511.3c-1.1,2.2-2.2,4.6-3.4,6.9c-6.5-2.8-16-8.4-24.8-19.1c1-2.7,2.1-5.4,3.2-8.2
			C118.9,502.2,127.4,507.8,134.4,511.3z"/>
		<path class="st54" d="M302.8,578.4c-6.6,2.6-21.2-15-29.1-26.2c-1.9-2.7-3.5-5.1-4.4-6.7c-1.1-1.8-3-6.2-5.4-11.8
			c-1.3-3-2.6-6.3-4.1-9.8c-1-2.4-2-4.8-3-7.3c-0.9-2.3-1.9-4.6-2.8-6.9c-3.5-8.9-6.9-17.3-8.9-22.7c-1.4-3.5-2.2-5.7-2.2-5.7
			s-7.5,43.8-6.5,70.9s9.2,96.7,9.2,96.7l-95.5,9.7c0,0-0.4-54.6-4-78c-3.6-23.5-13.7-42-13-52.4c0.3-4.2,1.1-11,2.1-18.2
			c1.4-10.6,3-21.9,3.5-26.3c0.8-7.4-8.6-45.5-3.7-51.5c2.3-2.9,9.3-8.1,16-12.9c1.5-1,2.9-2,4.2-3c5.6-3.9,10.1-6.8,10.1-6.8
			l2.4-27.1l24.8-26.6l0.4,48.5c0,0,8.5,2,18.9,5.2c1.7,0.5,3.4,1,5.2,1.6c11.8,3.8,24.7,8.6,30.2,13.4c6.8,5.9,24.6,43.6,38.5,75.5
			c0.8,1.9,1.6,3.7,2.4,5.5c1,2.2,1.9,4.4,2.8,6.5c6.8,16,11.9,28.8,13.1,33C307.7,557.7,311,575.1,302.8,578.4z"/>
		<path class="st56" d="M245.1,487c-1.4-3.5-2.2-5.7-2.2-5.7s-7.5,43.8-6.5,70.9s9.2,96.7,9.2,96.7l-8.1,0.8
			c-8-19.3-37.4-86.5-58.9-86.3c-21.4,0.2-24,73.3-24.3,94.8l-4.1,0.4c0,0-0.4-54.6-4-78c-3.6-23.5-13.7-42-13-52.4
			c0.3-4.2,1.1-11,2.1-18.2c0.6,6.5,1.4,12.2,2.5,15.4c3.4,10.1,76.4,0.8,86.2-10.2c9.8-10.9,19.8-38,19.8-38L245.1,487z"/>
		<path class="st55" d="M290.8,512l-31.1,11.9c-1-2.4-2-4.8-3-7.3c-0.9-2.3-1.9-4.6-2.8-6.9c11.8-0.6,25.8-6.9,31.7-9.8
			c0.8,1.9,1.6,3.7,2.4,5.5C289,507.7,289.9,509.9,290.8,512z"/>
		<path class="st6" d="M302.8,578.4c-6.6,2.6-21.2-15-29.1-26.2c-1.9-2.7-3.5-5.1-4.4-6.7c-1.1-1.8-3-6.2-5.4-11.8
			c-2.1-5-4.6-11-7-17.1c12.9-1.3,25.1-7.5,31.3-11.1c8.1,18.9,14.5,34.8,15.9,39.5C307.7,557.7,311,575.1,302.8,578.4z"/>
		<path class="st55" d="M217,411.1l-2.2,1.9c-8.3,7.1-20.1,12-31.5,13.2c-10.6,1.1-20.8-0.8-30.1-5.7l-2.1-1.1c1.5-1,2.9-2,4.2-3
			c5.6-3.9,10.1-6.8,10.1-6.8l2.4-27.1l24.8-26.6l0.4,48.5c0,0,8.5,2,18.9,5.2C213.4,410,215.2,410.5,217,411.1z"/>
		<path class="st1" d="M211.8,409.5c-11.6,10-34.8,18.2-56.5,6.9c5.6-3.9,10.1-6.8,10.1-6.8l2.4-27.1l24.8-26.6l0.4,48.5
			C192.9,404.3,201.3,406.3,211.8,409.5z"/>
		<path class="st42" d="M267.9,291.5c2.3,26.4-21.1,47.6-38.7,41.9c-2-0.7-4-1.7-5.8-3.1c-13-31.7-39.9-85.4-39.9-85.4
			c0.9-1.6,1.8-3.1,2.8-4.4c20-28.9,54.6-12.3,64.9,9.3C272.7,260.9,273.7,284.6,267.9,291.5z"/>
		<path class="st57" d="M229.2,333.4c-2-0.7-4-1.7-5.8-3.1c-13-31.7-39.9-85.4-39.9-85.4c0.9-1.6,1.8-3.1,2.8-4.4
			c16.4,1.4,34.5,9.2,45,29C243.9,293.1,237.7,318.5,229.2,333.4z"/>
		<path class="st6" d="M115.6,290.7c-2.5,23-1.9,57.5,1.2,71.9c3.1,14.4,14.7,42.5,30.9,44.1c16.2,1.7,41.1-17.8,47.2-44.3
			c6.1-26.5,4.8-61.4-1-78.8C188.1,266.2,129.1,261.3,115.6,290.7z"/>
		<path class="st42" d="M252.3,305.1c7.3,22-38.2,69.5-57.9,38c-0.2-0.3-0.4-0.6-0.6-0.9c-2-3.5-3.8-7.2-5.2-11.2
			c-4-10.8-5.9-23-6.6-34.5c-1.6-24.3,1.9-45.8,1.9-45.8c2-2,4-3.7,6.1-5.1c21.8-14.4,48.8,3,51.6,13.7
			C257.2,266.8,261.1,296,252.3,305.1z"/>
		<path class="st57" d="M209.8,349.9c-5,4.8-9-10.3-15.3-6.8c-0.1,0.1-0.3,0.2-0.4,0.3c-3.1-4-4.6-8.1-5.3-12.4
			c-1.9-10.9,1.2-22.5-6-33.6c-0.2-0.3-0.4-0.6-0.6-0.9c-1.6-24.3,1.9-45.8,1.9-45.8c2-2,4-3.7,6.1-5.1c12.4,1.6,24.9,8.4,33.7,24.9
			C239.9,300.9,220.7,339.5,209.8,349.9z"/>
		<path class="st42" d="M115.6,290.7c7.1-11.1,43.3-21.5,61.2,6c10,15.4,0.2,31.7,11.3,46c6.6-4.5,10.6,11.5,15.8,6.5
			c10.9-10.4,30.2-49,14-79.4c-16.2-30.4-44.8-27.6-62.6-21.1C129.4,258.2,116.1,276.3,115.6,290.7z"/>
		<path class="st6" d="M186.5,354.4c-0.5-17.1,1-22.6,9.4-25.7c13.8-5.1,11.1,32.1,2,34.6C188.7,365.8,186.5,354.4,186.5,354.4z"/>
		<path class="st12" d="M136.5,330.3c0,0-7.1,23.7-5.5,28s12.4,0.5,12.4,0.5s-7.3-0.2-9.1-2.2C132.6,354.7,136.5,330.3,136.5,330.3z
			"/>
		<path class="st11" d="M157.3,328.7c1.4,4.5,0.6,8.7-1.8,9.4c-2.4,0.8-5.5-2.2-6.9-6.7c-1.4-4.5-0.6-8.7,1.8-9.4
			C152.8,321.3,155.8,324.3,157.3,328.7z"/>
		<path class="st11" d="M145.8,329.4c4.4-9,11.5-4.2,14.6-0.7C154.7,315,145.2,317.3,145.8,329.4z"/>
		<path class="st11" d="M129.2,332.9c1.4,4.5,0.8,8.6-1.5,9.3s-5.2-2.3-6.6-6.8c-1.4-4.5-0.8-8.6,1.5-9.3S127.8,328.4,129.2,332.9z"
			/>
		<path class="st11" d="M118.4,333.3c3.9-8.8,10.7-4,13.7-0.5C126.5,319.2,117.6,321.3,118.4,333.3z"/>
		<path class="st42" d="M142,310.9c10-3,20.6,2.2,25.6,5.7C161.6,303.3,145.9,301.1,142,310.9z"/>
		<path class="st42" d="M129,312.3c-8.5-2.2-14.9,4.1-15.3,5.8C114.6,306.5,124.9,304.6,129,312.3z"/>
		<path class="st13" d="M163.8,354.8c0,1-0.1,2.1-0.2,3.1c-0.4,4.5-1.3,9.2-2.7,13.5c-2.7,8.2-7.1,15.2-12.6,17.3
			c-2.9,1.1-5.5-0.5-7.9-3.3c-3.3-4-5.9-10.2-7.3-14c-0.7-1.9-1-3.1-1-3.1C144.1,366.9,157.9,360.6,163.8,354.8z"/>
		<path class="st14" d="M163.8,354.8c0,1-0.1,2.1-0.2,3.1c-6.1,6.5-20.1,14.6-30.5,13.5c-0.7-1.9-1-3.1-1-3.1
			C144.1,366.9,157.9,360.6,163.8,354.8z"/>
		<path class="st15" d="M160.9,371.5c-2.7,8.2-7.1,15.2-12.6,17.3c-2.9,1.1-5.5-0.5-7.9-3.3C144.8,377.6,156.7,372.9,160.9,371.5z"
			/>
		<g>
			<path class="st8" d="M116.2,394.9c-2.7,8.7-11.9,13.5-20.6,10.8s-13.5-12-10.8-20.6c2.7-8.7,11.9-13.5,20.6-10.8
				C114,377,118.9,386.2,116.2,394.9z"/>
			<path class="st10" d="M91.2,374.4c-2.5,2.1,4.4,2.4,5.5,3c1.1,0.6-2,2.6-0.8,4.3c1.2,1.6,7-1.3,8.4,0.7c1.5,2-3.8,8.5-0.6,10.9
				c3.2,2.4,6.2-0.7,8.1-0.2c1.9,0.5-3.1,8.1-2.3,10.5s5.2-0.4,7.6-8c2.4-7.7,1.6-15.9-7.1-20.9C101.4,369.5,92.8,373.1,91.2,374.4z
				"/>
			<path class="st12" d="M104.1,406.4c0,0-1.9,1-5,2.7c-0.6,0.3-1.1,0.6-1.8,1c-1.6,0.8-3.3,1.7-5.2,2.7c-0.3,0.1-0.6,0.3-0.9,0.5
				c-1.3,0.7-2.7,1.4-4.1,2.1c-0.6,0.3-1.3,0.7-1.9,1c-1.6,0.9-3.3,1.7-5,2.6c-0.3,0.2-0.6,0.3-0.9,0.5c-1.6,0.8-3.2,1.6-4.8,2.5
				c0,0,0,0-0.1,0c-0.7,0.4-1.4,0.7-2.1,1.1c-0.5,0.3-1.1,0.5-1.6,0.8c-0.8,0.4-1.6,0.8-2.4,1.2c-0.3,0.1-0.6,0.3-0.9,0.5
				c-1.7,0.8-3.4,1.6-5,2.4c-0.3,0.1-0.6,0.3-0.9,0.5c-0.3,0.1-0.6,0.3-0.9,0.4c-0.8,0.4-1.6,0.8-2.4,1.1c-0.6,0.3-1.2,0.5-1.7,0.8
				c-0.3,0.1-0.6,0.3-0.9,0.4c-3.1,1.3-5.1,2-5.4,1.5c-0.1-0.2,0.2-1,0.9-2.1c0.2-0.3,0.4-0.6,0.6-1c0.9-1.4,2.1-3.1,3.6-5.1
				c0.5-0.6,1-1.3,1.5-2c1-1.3,2-2.6,3.1-4.1c0.2-0.3,0.5-0.7,0.8-1c0.4-0.5,0.8-1,1.2-1.5c0.3-0.4,0.6-0.8,1-1.2
				c0.6-0.8,1.2-1.6,1.9-2.4c0.3-0.3,0.5-0.7,0.8-1c0.8-1,1.6-2,2.4-3c0.3-0.4,0.6-0.8,1-1.2c0.3-0.3,0.5-0.6,0.8-1
				c0.3-0.3,0.5-0.7,0.8-1c1.2-1.5,2.4-2.9,3.5-4.3c0.5-0.6,1-1.2,1.5-1.9c1.6-1.9,3-3.7,4.2-5.1c0.4-0.5,0.9-1.1,1.3-1.5
				c1.6-1.9,2.5-3,2.5-3l2.3,1.9l0.9,0.7l0.4,0.3l0.1,0.1l0.9,0.8l0.8,0.7l2.5,2l0.9,0.8l1.2,1h0l1,0.9l2.6,2.1l0.9,0.8l2.1,1.8
				l1.1,0.9L104.1,406.4z"/>
			<path class="st58" d="M97.9,404.1c1.1,0,2.2-0.1,3.2-0.1l-1.1-0.9c-0.7,0-1.4,0-2.1,0.1c0-0.6,0-1.2,0-1.8l-0.9-0.8
				c0,0.9,0,1.8,0,2.6c-1.6,0.1-3.2,0.2-5,0.3c0-1.5,0.1-3.2,0.1-4.9c0.8,0,1.6-0.1,2.3-0.1l-1-0.9h0c-0.4,0-0.8,0-1.2,0.1
				c0-0.4,0-0.7,0-1.1l-0.9-0.8c0,0.6,0,1.3-0.1,1.9c-1.6,0.1-3.2,0.2-4.9,0.3c0.1-1.6,0.1-3.2,0.2-4.8c0.5,0,1-0.1,1.5-0.1
				l-0.9-0.8l-0.1-0.1c-0.1,0-0.3,0-0.4,0c0-0.1,0-0.2,0-0.4l-0.9-0.7c0,0.4,0,0.8-0.1,1.2c-1.7,0.1-3.3,0.3-4.8,0.4
				c0-0.2,0-0.3,0-0.5c-0.4,0.5-0.8,1-1.3,1.5c0.1,0,0.2,0,0.3,0c-0.1,1.5-0.1,3.2-0.2,4.8c-1.5,0.1-2.9,0.2-4.3,0.3
				c-0.5,0.6-1,1.2-1.5,1.9c-0.1,1.3-0.1,2.6-0.2,4c-1.1,0.1-2.3,0.2-3.3,0.3c-0.3,0.3-0.5,0.7-0.8,1c1.3-0.1,2.6-0.2,4.1-0.3
				c-0.1,1.6-0.1,3.2-0.2,4.8c-1.7,0.1-3.3,0.3-4.8,0.4c0-1.3,0.1-2.6,0.1-3.9c-0.3,0.4-0.6,0.8-1,1.2c0,0.9-0.1,1.8-0.1,2.8
				c-0.8,0.1-1.5,0.1-2.3,0.2c-0.3,0.3-0.5,0.7-0.8,1c0.9-0.1,2-0.2,3-0.2c-0.1,1.6-0.1,3.2-0.1,4.8c-1.7,0.1-3.3,0.3-4.9,0.4
				c0-0.9,0.1-1.7,0.1-2.5c-0.3,0.4-0.6,0.8-1,1.2l-0.1,1.4c-0.4,0-0.8,0.1-1.1,0.1c-0.3,0.3-0.5,0.7-0.8,1c0.6-0.1,1.2-0.1,1.8-0.1
				c-0.1,1.6-0.1,3.2-0.1,4.8c-1.7,0.1-3.3,0.3-4.9,0.4c0-0.3,0-0.6,0-1c-0.5,0.7-1,1.4-1.5,2c0.2,0,0.3,0,0.5,0
				c-0.1,1.6-0.1,3.2-0.1,4.8c-1.4,0.1-2.7,0.2-3.9,0.3c-0.2,0.4-0.4,0.7-0.6,1c1.4-0.1,2.9-0.2,4.5-0.4c0,0.3,0,0.6,0,1
				c0.3-0.1,0.6-0.3,0.9-0.4c0-0.2,0-0.4,0-0.6c0.6,0,1.1-0.1,1.7-0.1c0.8-0.3,1.6-0.7,2.4-1.1c-1.4,0.1-2.7,0.2-4.1,0.3
				c0-1.6,0.1-3.2,0.1-4.8c1.5-0.1,3.2-0.3,4.9-0.4c0,1.5-0.1,3-0.1,4.5c0.3-0.1,0.6-0.3,0.9-0.5c0-1.3,0-2.7,0.1-4.1
				c1.6-0.1,3.2-0.2,4.9-0.4c0,0.7,0,1.4,0,2.1c0.3-0.2,0.6-0.3,0.9-0.5c0-0.5,0-1.1,0-1.7c1.3-0.1,2.6-0.2,3.9-0.3
				c0.7-0.4,1.4-0.7,2.1-1.1c-0.1,0-0.1,0-0.1,0c0-1.5,0-3.1,0.1-4.9c1.7-0.1,3.3-0.2,4.9-0.3c0,1,0,1.9,0,2.7
				c0.3-0.2,0.6-0.3,0.9-0.5c0-0.7,0-1.5,0-2.3c1.7-0.1,3.4-0.2,5-0.3c0.6-0.3,1.3-0.7,1.9-1c-0.3,0-0.7,0-1,0c0-1.4,0-3.1,0-4.9
				c1.7-0.1,3.4-0.2,5-0.3c0,1.1,0.1,2.1,0.1,3c0.3-0.2,0.6-0.3,0.9-0.5c-0.1-0.8-0.1-1.6-0.1-2.6c1.9-0.1,3.7-0.1,5.3-0.2
				c0,0,0,0,0,0c0.6-0.3,1.2-0.6,1.8-1c-0.3,0-0.6,0-1,0C98,407.9,97.9,406.2,97.9,404.1z M91.2,398.6c-0.1,1.7-0.1,3.3-0.1,4.9
				c-1.6,0.1-3.2,0.2-4.9,0.3c0-1.6,0.1-3.2,0.1-4.9C88,398.9,89.6,398.7,91.2,398.6z M85.3,403.9c-1.6,0.1-3.2,0.2-4.9,0.4
				c0.1-1.6,0.1-3.2,0.2-4.8c1.6-0.1,3.2-0.2,4.8-0.4C85.4,400.7,85.3,402.3,85.3,403.9z M79.3,410.1c-1.6,0.1-3.3,0.2-4.9,0.4
				c0.1-1.6,0.1-3.2,0.2-4.8c1.6-0.1,3.2-0.2,4.8-0.4C79.4,406.9,79.4,408.5,79.3,410.1z M85.6,393.3c-0.1,1.6-0.1,3.2-0.2,4.8
				c-1.6,0.1-3.3,0.2-4.8,0.4c0.1-1.6,0.1-3.2,0.2-4.8C82.3,393.5,84,393.4,85.6,393.3z M74.9,399.9c1.5-0.1,3.1-0.3,4.8-0.4
				c-0.1,1.6-0.1,3.2-0.2,4.8c-1.6,0.1-3.3,0.2-4.8,0.4C74.7,403,74.8,401.4,74.9,399.9z M62.6,422.8c0-1.6,0.1-3.2,0.1-4.8
				c1.5-0.1,3.2-0.3,4.9-0.4c0,1.6-0.1,3.3-0.1,4.8C65.8,422.5,64.2,422.7,62.6,422.8z M68.5,416.6c0.1-1.6,0.1-3.2,0.1-4.8
				c1.6-0.1,3.2-0.3,4.8-0.4c0,1.6-0.1,3.3-0.1,4.8C71.8,416.4,70.1,416.5,68.5,416.6z M68.4,422.3c0-1.5,0.1-3.2,0.1-4.8
				c1.6-0.1,3.2-0.2,4.9-0.4c0,1.7,0,3.4-0.1,4.9C71.7,422.1,70,422.2,68.4,422.3z M74.3,416.2c0-1.6,0.1-3.2,0.1-4.8
				c1.6-0.1,3.2-0.2,4.9-0.4c0,1.7-0.1,3.3-0.1,4.9C77.6,415.9,76,416.1,74.3,416.2z M80.3,410c0-1.6,0.1-3.2,0.1-4.9
				c1.6-0.1,3.2-0.2,4.9-0.4c0,1.7-0.1,3.3-0.1,4.9C83.6,409.8,81.9,409.9,80.3,410z M80.2,415.8c0-1.5,0-3.1,0.1-4.9
				c1.7-0.1,3.3-0.2,4.9-0.3c0,1.8,0,3.5,0,4.9C83.6,415.6,81.9,415.7,80.2,415.8z M86.1,409.6c0-1.5,0-3.2,0.1-4.9
				c1.7-0.1,3.3-0.2,4.9-0.3c0,1.8,0,3.4,0,4.9C89.5,409.4,87.8,409.5,86.1,409.6z M92,409.3c0-1.5,0-3.1,0-4.9
				c1.8-0.1,3.4-0.2,5-0.3c0,2,0.1,3.8,0.2,5C95.7,409.2,93.9,409.2,92,409.3z"/>
			<path class="st59" d="M88.8,393.8c-2.7,7.8-10.2,21.1-14.4,28.1c-1.3,0.6-2.5,1.3-3.8,1.9c4.2-6.1,13.8-20.9,16.4-31.5
				L88.8,393.8z"/>
		</g>
		<path class="st6" d="M77.2,431.8l7.7-8.1c0,0,6.4-8.2,7.4-9.4c1-1.2-3.4-2.2-5.1,0.4s-4.6,5.3-4.6,5.3s-5.9,0.7-8.4,4.3
			S77.2,431.8,77.2,431.8z"/>
		<path class="st6" d="M59.1,415.3c-1.1,2.6,5.9,2.6,6.8,0.5C66.8,413.8,60,413.2,59.1,415.3z"/>
		<path class="st6" d="M61.7,410.4c-2.4,5.6,7.3,3.2,8.5,0.7C71.5,408.5,62.2,409.4,61.7,410.4z"/>
		<path class="st6" d="M64.2,407.1c-2.4,5.6,7.3,3.2,8.5,0.7C73.9,405.2,64.6,406.1,64.2,407.1z"/>
		<path class="st6" d="M66.6,403.8c-2.4,5.6,7.3,3.2,8.5,0.7C76.4,401.9,67.1,402.8,66.6,403.8z"/>
		<path class="st27" d="M187.3,513c0,0-14.9,33.6-15.1,34.3c-0.1,0.5-15.4-7.7-26.7-13.9l-4.7-19.9l11.7-21.1L187.3,513z"/>
		<path class="st1" d="M273.6,552.1c-1.9-2.7-3.5-5.1-4.4-6.7c-1.1-1.8-3-6.2-5.4-11.8c13.5,3.7,22.7,9,27.1,17.5
			C293.7,556.8,282.5,554.6,273.6,552.1z"/>
		<path class="st6" d="M92.4,550.8c-2-24.1-14.5-111.4-15.2-119c-0.7-7.7-9.8-2.4-10.3-1.4c-0.5,1.1-6.9,70.7-4.6,95.6
			c2.2,24.8,11.8,51.5,14.3,53C79.1,580.4,92.4,550.8,92.4,550.8z"/>
		<g>
			<path class="st6" d="M190.5,519c0,0-7-11.4-8.2-12.4c-1.2-1-6.3-2.8-9.1-2.5c-2.8,0.3-9.5,3.9-10.2,4.2s-4.7,6.5-5.2,8.8
				c-0.5,2.2,2.1,3.4,3.6,1.2c1.5-2.2,3.5-6.6,3.5-6.6s8.1-2.3,9.1-2.7c1-0.4,3.2,10.1,3.5,13.5s5.4,7.5,11.4,5.7
				C193.1,523.5,190.5,519,190.5,519z"/>
			<path class="st6" d="M175.8,507.8c0,0-9.4,1.8-11.3,2.9s-5,9.3-5.1,11.1c-0.1,1.7,2.7,2.2,3.6,0.3s4.2-8.1,4.2-8.1l9.7-2.9
				L175.8,507.8z"/>
			<path class="st6" d="M177.9,509.8c-0.4,0-11.2,2.2-12.2,3.4c-1,1.3-2.8,6.2-2.9,6.9s1,5.1,1.9,5.7s3.2,0,3.2-1.5
				c0-1.4-1-5.1-1-5.1s2.6-3.9,3.6-4.1c1-0.2,7.9-0.5,7.9-0.5L177.9,509.8z"/>
			<path class="st6" d="M179.2,512.8c0,0-8.7,0.9-9.5,1.4c-0.8,0.5-3,2.6-3.1,3.3s3.7,7,4.7,6.5c1-0.5,2.4-1.5,2.4-2.4s-3-3.5-3-3.5
				l8.2-1.4L179.2,512.8z"/>
		</g>
		<polygon class="st8" points="140.8,513.5 153.8,520.1 145.5,533.4 		"/>
		<polygon class="st27" points="140.8,513.5 151.9,520.5 145.5,533.4 		"/>
		<path class="st6" d="M302.8,578.4c-23.1,3.9-113.8-50.1-113.8-50.1l1.5-9.3c0,0,71.5,19,87.9,24
			C294.8,548.1,304.7,573,302.8,578.4z"/>
	</g>
	<g>
		<path class="st6" d="M657.1,538.8l33.5-79.5l8.6,11.3c0,0-34.3,105.4-40.4,111.7C652.7,588.5,657.1,538.8,657.1,538.8z"/>
		<path class="st60" d="M655.6,674.7c0,0-101.2-19.4-117-22.4c2.2-19.3,13.2-144.8,11.6-165.6c-0.2-2.7-0.5-5.7-0.8-8.9
			c-2.1-21.9-5.9-54.2-1.3-58.1c2.9-2.5,18.9-5.2,32.9-7.1c2-0.3,4-0.5,5.8-0.8c9.2-1.2,16.3-2,16.3-2l14.2-33.4l21.6,9.7l-6.2,30.4
			c0,0,9.8,6.8,18.5,14.7c1.1,1,2.3,2.1,3.4,3.2c4.9,4.8,9,9.7,9.7,13.5c0.5,2.7,0.2,17.8-0.5,39.1
			C661.8,552.1,655.6,674.7,655.6,674.7z"/>
		<path class="st61" d="M655.6,674.7c0,0-101.2-19.4-117-22.4c2.2-19.3,13.2-144.8,11.6-165.6c-0.2-2.7-0.5-5.7-0.8-8.9l2.3,1.9
			c0,0,20.6,50,66.1,59.2c29.7,6,41.5-27.8,46-51.9C661.8,552.1,655.6,674.7,655.6,674.7z"/>
		<g>
			<g>
				
					<linearGradient id="SVGID_4_" gradientUnits="userSpaceOnUse" x1="657.0002" y1="242.6426" x2="664.1867" y2="235.4562" gradientTransform="matrix(0.9822 0.1881 0.1881 -0.9822 -82.9022 624.0872)">
					<stop  offset="0" style="stop-color:#FFF0A8"/>
					<stop  offset="0.9324" style="stop-color:#E6BE7A"/>
				</linearGradient>
				<path class="st62" d="M605.4,512c3.2-4.7,8-4.9,9.1-3.4c1,1.5,1.9,7.2,1.9,7.2s-5.3,4.6-8.5,2.8
					C604.8,516.9,605.4,512,605.4,512z"/>
				
					<linearGradient id="SVGID_5_" gradientUnits="userSpaceOnUse" x1="655.3679" y1="242.1" x2="657.8648" y2="227.0051" gradientTransform="matrix(0.9822 0.1881 0.1881 -0.9822 -82.9022 624.0872)">
					<stop  offset="0" style="stop-color:#FFF0A8"/>
					<stop  offset="0.9324" style="stop-color:#E6BE7A"/>
				</linearGradient>
				<path class="st63" d="M598.8,510.3c1.5-3.7,7.5-3.8,8.1-1.6c0.6,2.3-1.3,6.7,3.1,7.9c4.4,1.2,5.6-4.1,7.9-4.8
					c2.3-0.7,3.5,6,1.5,9.2c-2,3.3-6.7,4.7-7.2,4.6s-11.2-1.3-15.2-3.7s-6.3-3.5-4.6-6.2C594.1,513,598.8,510.3,598.8,510.3z"/>
				
					<linearGradient id="SVGID_6_" gradientUnits="userSpaceOnUse" x1="675.3531" y1="246.5085" x2="678.0767" y2="230.8483" gradientTransform="matrix(0.9822 0.1881 0.1881 -0.9822 -82.9022 624.0872)">
					<stop  offset="0" style="stop-color:#FFF0A8"/>
					<stop  offset="0.9324" style="stop-color:#E6BE7A"/>
				</linearGradient>
				<path class="st64" d="M636,523.2c-0.8,0.8-1.8,1.6-2.8,2c-0.1,0-0.2,0.1-0.3,0.2c-0.8,0.4-1.4,1-1.9,1.5c-1.1,1.3-1.7,2.8-3,4.1
					c-0.2,0.2-0.3,0.3-0.5,0.5c-0.4,0.3-0.8,0.5-1.2,0.8c-0.5,0.3-1.1,0.5-1.7,0.6c-2.6,0.6-5.5,0-6.7-1c-0.2-0.2-0.4-0.4-0.4-0.7
					c0-0.1,0-0.2,0-0.4c0.1-0.6-0.1-1.4-0.4-2.1c-0.6-1.5-1.6-2.8-1.6-2.8c0-0.1-0.1-0.2-0.1-0.3c0-0.1,0-0.2-0.1-0.3
					c0-0.2-0.1-0.4-0.1-0.6c-0.3-1.4,0-1.8,0.7-1.9c0.5-0.1,1.3,0.1,2.1,0.1c0,0,0,0,0,0s0,0,0,0c1,0.1,2.1,0,3.1-0.7
					c3.2-2.2,0.8-5.9,2.9-7.9c0.3-0.3,0.6-0.5,0.9-0.6c1.7-0.8,3.2,0.8,6,0.8c3.3,0,3.7-2.4,5.1-2.2c0.5,0.1,1,0.8,1.5,1.7
					c0.4,0.8,0.7,1.7,0.9,2.6C638.5,518.9,637.8,521.4,636,523.2z"/>
				
					<linearGradient id="SVGID_7_" gradientUnits="userSpaceOnUse" x1="627.7086" y1="242.4466" x2="630.7729" y2="231.4374" gradientTransform="matrix(0.9822 0.1881 0.1881 -0.9822 -82.9022 624.0872)">
					<stop  offset="0" style="stop-color:#FFF0A8"/>
					<stop  offset="0.9324" style="stop-color:#E6BE7A"/>
				</linearGradient>
				<path class="st65" d="M572.1,512.3c0,0-5.3-2.7-4.2-5.1c1.1-2.4,4,0.4,5.7-1.2c1.6-1.7,0.9-4.6,3-6.2c2.1-1.6,1.9,5.7,5.7,6.4
					c3.8,0.7,6.8-1.7,8.5,0.3s-4.6,9.4-8,10S572.1,512.3,572.1,512.3z"/>
				
					<linearGradient id="SVGID_8_" gradientUnits="userSpaceOnUse" x1="638.2881" y1="239.0542" x2="641.3526" y2="221.1218" gradientTransform="matrix(0.9822 0.1881 0.1881 -0.9822 -82.9022 624.0872)">
					<stop  offset="0" style="stop-color:#FFF0A8"/>
					<stop  offset="0.9324" style="stop-color:#E6BE7A"/>
				</linearGradient>
				<path class="st66" d="M577.7,517c0.6-4.8,5-5.7,6.9-4.1s1.7,5.6,4.3,4.1c2.6-1.5-2.8-7.7,0.5-9.5c3.3-1.8,10.2-0.7,10.5,3.2
					s-5.6,4.9-5.5,6.4c0,1.5,4.3,0.8,5.4,3.8c1.1,3-3.2,8.3-7.1,8.4c-3.8,0.1-14.5-7.1-14.5-7.1L577.7,517z"/>
				
					<linearGradient id="SVGID_9_" gradientUnits="userSpaceOnUse" x1="673.4991" y1="243.1704" x2="676.2213" y2="223.7739" gradientTransform="matrix(0.9822 0.1881 0.1881 -0.9822 -82.9022 624.0872)">
					<stop  offset="0" style="stop-color:#FFF0A8"/>
					<stop  offset="0.9324" style="stop-color:#E6BE7A"/>
				</linearGradient>
				<path class="st67" d="M632.5,527c-0.7,1.5-2.2,3-4.4,4.1c-0.2,0.1-0.4,0.2-0.6,0.3c-0.4,0.2-0.9,0.4-1.4,0.5
					c-1.3,0.5-2.6,0.6-3.9,0.5h0c-0.6,0-1.2-0.1-1.7-0.3c-1.1-0.3-2.1-0.7-3-1.1c-1.1-0.5-1.9-1-2.4-1.4c-0.4-0.3-0.6-0.5-0.6-0.5
					l0.8-3.9l0-0.2l0.2-0.7l0.4-1.8l0.3-1.5l0.2-0.8l3-5.1c0.3-0.4,0.6-0.7,1-1c1.7-1.4,3.4-1.5,4.7-0.7c1.6,1,2.5,3.2,1.6,5.4
					c-1.5,3.9,2,2.3,4.6,3.6c0.3,0.1,0.6,0.3,0.9,0.6c0.7,0.6,1,1.3,1,2.2C632.8,525.9,632.7,526.5,632.5,527z"/>
				
					<linearGradient id="SVGID_10_" gradientUnits="userSpaceOnUse" x1="658.8896" y1="238.6886" x2="661.6136" y2="220.8697" gradientTransform="matrix(0.9822 0.1881 0.1881 -0.9822 -82.9022 624.0872)">
					<stop  offset="0" style="stop-color:#FFF0A8"/>
					<stop  offset="0.9324" style="stop-color:#E6BE7A"/>
				</linearGradient>
				<path class="st68" d="M599,522.4c1.5-7,7-6.4,8.1-2.7s5.5-0.1,8.8,1.5c3.3,1.6,3.7,5.8,0.5,8s-13,0.5-15.1-1.2
					C599.1,526.2,599,522.4,599,522.4z"/>
				
					<linearGradient id="SVGID_11_" gradientUnits="userSpaceOnUse" x1="686.9689" y1="244.9305" x2="690.2592" y2="223.3735" gradientTransform="matrix(0.9822 0.1881 0.1881 -0.9822 -82.9022 624.0872)">
					<stop  offset="0" style="stop-color:#FFF0A8"/>
					<stop  offset="0.9324" style="stop-color:#E6BE7A"/>
				</linearGradient>
				<path class="st69" d="M642.9,533.2c-0.1,0-0.3,0.1-0.4,0.1c-5.7,1.8-13-0.5-14.5-2.2c0,0-0.1-0.1-0.1-0.2
					c-0.1-0.1-0.1-0.2-0.1-0.3c-0.1-0.8,0.1-2.4,0.4-4c0,0,0-0.1,0-0.2c0.2-1.7,1.3-3.1,2.8-3.9c0.3-0.1,0.5-0.2,0.8-0.3
					c3-1,4.6-2.2,5.6-4.7c0.2-0.5,0.5-0.9,0.8-1.2c1.4-1.3,3.6,0.8,3.7,3.8c0.1,2.5,1.1,3.2,2.2,4c0,0,0,0,0,0
					c0.5,0.3,0.9,0.7,1.3,1.3c0.4,0.6,0.9,1.4,1.2,2.3C647.1,529.7,646.8,531.9,642.9,533.2z"/>
				
					<linearGradient id="SVGID_12_" gradientUnits="userSpaceOnUse" x1="698.1699" y1="241.1371" x2="696.467" y2="222.065" gradientTransform="matrix(0.9822 0.1881 0.1881 -0.9822 -82.9022 624.0872)">
					<stop  offset="0" style="stop-color:#FFF0A8"/>
					<stop  offset="0.9324" style="stop-color:#E6BE7A"/>
				</linearGradient>
				<path class="st70" d="M652.9,525.9c-0.2,0.6-0.4,1.2-0.7,1.8c-1.9,4.2-4.9,6.9-4.9,6.9l-4.3-1.4l-2.2-0.7c-1.7-3-2.1-4.3-1.8-5
					c0.4-0.8,2-0.4,3.6-1c1.2-0.4,1.4-1.3,1.5-2.2c0,0,0,0,0,0c0.1-1.2,0-2.3,1.3-2.3C647.7,521.9,654.5,520.8,652.9,525.9z"/>
				
					<linearGradient id="SVGID_13_" gradientUnits="userSpaceOnUse" x1="622.1393" y1="234.2992" x2="626.1119" y2="222.4948" gradientTransform="matrix(0.9822 0.1881 0.1881 -0.9822 -82.9022 624.0872)">
					<stop  offset="0" style="stop-color:#FFF0A8"/>
					<stop  offset="0.9324" style="stop-color:#E6BE7A"/>
				</linearGradient>
				<path class="st71" d="M582.2,521.5c-0.2,0.8-0.7,1.7-1.2,2.5c-0.4,0.7-0.8,1.3-1.2,1.8c-0.4,0.6-0.8,1-0.8,1l-2.2-1.5l-5.8-4
					l-4.9-3.4l-0.2-0.2c0,0-0.2-0.3-0.5-0.9c-0.8-1.4-2.2-4.1-1.8-6.2c0.5-2.4,3.4-1,5.8-0.2c0.5,0.2,0.9,0.3,1.3,0.4
					c2.4,0.5,2.8-1.9,5.7-2.2c1.8-0.2,2.9,2.1,3.2,4.5c0.1,1,0.1,2-0.2,2.9c-0.1,0.3-0.2,0.6-0.3,0.9c-1.3,2.6,1.7,1.5,2.9,3
					C582.3,520.3,582.3,520.8,582.2,521.5z"/>
				
					<linearGradient id="SVGID_14_" gradientUnits="userSpaceOnUse" x1="613.3609" y1="231.5196" x2="618.9207" y2="217.3363" gradientTransform="matrix(0.9822 0.1881 0.1881 -0.9822 -82.9022 624.0872)">
					<stop  offset="0" style="stop-color:#FFF0A8"/>
					<stop  offset="0.9324" style="stop-color:#E6BE7A"/>
				</linearGradient>
				<path class="st72" d="M571.7,519.4c-0.1,0.7-0.3,1.3-0.6,1.8c-0.4,0.8-0.9,1.4-1.5,1.7c-2.9,1.4-11.1-1.5-11.1-1.5
					c-3.9-4-2.8-8.7-0.9-10c0.6-0.4,1.2-0.5,1.9-0.2c1.5,0.7,1.7,3,2.2,4.6c0.4,1.3,0.9,2.3,2.4,1.7c0.2-0.1,0.5-0.2,0.7-0.3
					c0.3-0.2,0.5-0.3,0.7-0.5c2.2-1.9,3.1-5.4,5-4.2C571.8,513.5,572.2,516.7,571.7,519.4z"/>
			</g>
			<path class="st73" d="M652.2,527.7c-1.9,4.2-4.9,6.9-4.9,6.9l-4.3-1.4c-0.1,0-0.3,0.1-0.4,0.1c-5.7,1.8-13-0.5-14.5-2.2
				c-0.2,0.1-0.4,0.2-0.6,0.3c-0.4,0.3-0.8,0.5-1.2,0.8c-0.5,0.3-1.1,0.5-1.7,0.6l-2.3-0.4h0l-1.7-0.3l-2.6-0.4l-22.2-3.5l-9.9-1.6
				h0l-5.9-0.9l-2.9-0.5l-5.8-4c-0.4,0.8-0.9,1.4-1.5,1.7c-2.9,1.4-11.1-1.5-11.1-1.5c-3.9-4-2.8-8.7-0.9-10c0.3,1.7,1.7,3.1,4,4.4
				c0.9,0.5,2,1,3.1,1.4c0.5,0.2,1,0.4,1.5,0.5c1.7,0.6,3.5,1.1,5.5,1.6c2,0.5,4.1,0.9,6.3,1.3c1.3,0.3,2.7,0.5,4.1,0.7
				c5.6,0.9,11.5,1.6,17,2.2c0.1,0,0.3,0,0.4,0c1.8,0.2,3.5,0.4,5.2,0.6c0.6,0.1,1.1,0.1,1.7,0.2c2.3,0.3,4.7,0.5,7.1,0.8
				c0.5,0,1.1,0.1,1.7,0.2c0,0,0.1,0,0.1,0c1.1,0.1,2.2,0.2,3.3,0.3c3.2,0.3,6.5,0.6,9.6,0.9c0.9,0.1,1.9,0.2,2.8,0.2
				c0.5,0,1,0.1,1.5,0.1c2.3,0.2,4.4,0.3,6.4,0.5c2.9,0.2,5.5,0.3,7.6,0.4C649.1,527.9,651,527.9,652.2,527.7z"/>
			<polygon class="st8" points="649.5,533 628.7,581.6 622.9,595.1 609.2,627.2 607.9,627 605.2,626.6 602.3,626.3 596.4,625.5 
				591.3,624.8 588.6,624.4 582.7,623.6 577.9,623 573.3,622.4 567.6,621.6 560.8,620.7 555,619.9 555.2,590.6 555.3,579.9 
				555.8,520 564,521.1 571.3,522.2 584.3,523.9 593.7,525.3 600.9,526.3 608,527.2 616.7,528.4 626.4,529.8 629.6,530.2 
				636.1,531.1 640.6,531.8 			"/>
			<polygon class="st74" points="649.5,533 609.2,627.2 591.3,624.8 616.7,528.4 			"/>
			<path class="st75" d="M567.6,621.6l-6.8-0.9c0.5-15.9,2.4-78.3,3.2-99.6l7.3,1L567.6,621.6z"/>
			<path class="st75" d="M577.9,623l-4.6-0.6l11-98.4l9.4,1.3C590.2,546.7,580.5,605.6,577.9,623z"/>
			<polygon class="st75" points="608,527.2 588.6,624.4 582.7,623.6 600.9,526.3 			"/>
			<polygon class="st75" points="629.6,530.2 602.3,626.3 596.3,625.5 626.4,529.8 			"/>
			<polygon class="st75" points="640.6,531.8 607.8,627 605.2,626.6 636.1,531.1 			"/>
			<path class="st76" d="M628.7,581.6l-5.8,13.6c-6.4-1.4-28.5-8.2-28.5-8.2s-29.5,2.5-39.2,3.7l0.1-10.7l67.3-8.8
				C622.7,571.1,626.2,576.9,628.7,581.6z"/>
		</g>
		<path class="st77" d="M654.8,434.4c-12.5,11.1-43.2,7.4-73.7-21.9c2-0.3,4-0.5,5.8-0.8c9.2-1.2,16.3-2,16.3-2l14.2-33.4l21.6,9.7
			l-6.2,30.4c0,0,9.8,6.8,18.5,14.7C652.5,432.3,653.7,433.3,654.8,434.4z"/>
		<path class="st6" d="M651.4,431.2c-4.9,4.1-13.2,5.4-22.9,3.5c-8.2-1.6-23.6-6.7-41.5-23c9.2-1.2,16.3-2,16.3-2l11.4-26.8l2.8-6.6
			l21.3,9.6l0.3,0.1l0,0.1l-2.6,12.6l-3.6,17.7C632.8,416.5,642.7,423.4,651.4,431.2z"/>
		<path class="st1" d="M639,386.2l-2.6,12.6c-5.5-2.6-15.7-8-21.8-15.9l2.8-6.6l21.3,9.6L639,386.2z"/>
		<path class="st6" d="M608.6,346.4c-0.5,1,1.5,25.6,5,32.4s24.1,17.4,36.3,19.2c12.2,1.8,25.6-8.2,34-31.1s12.7-50.9,11.3-70.1
			c-1.4-19.2-66.9-36.5-77.8-15.7C606.4,302,608.6,346.4,608.6,346.4z"/>
		<path class="st11" d="M637.4,326.8c6.8,15.7,15.6,8.9,17.8,2.3C648.8,335.2,641.1,330.8,637.4,326.8z"/>
		<path class="st11" d="M671.8,332.6c3.1,11.5,9.9,11.2,12.6,3.8C681.7,339.3,675.3,337.8,671.8,332.6z"/>
		<path class="st30" d="M635.4,312.3c9.2-4.9,27.8-1.9,27.8-1.9s2.4-2.7-0.3-5.4C660.2,302.4,640.3,306.1,635.4,312.3z"/>
		<path class="st30" d="M676.2,316.4c10.4,2.8,17.8,5.8,18.7,8.1c-3.8-9.3-14.7-12.4-16.2-11.6C677.3,313.7,676.2,316.4,676.2,316.4
			z"/>
		<path class="st30" d="M610.2,335.5c4.8-13.8,16.2-22,17.6-27.8c1.4-5.9,0.3-21,0.3-21s50.8-4.7,67.1,10.2
			c7.5-25.2,2.6-49.9-15.7-50.2c-18.3-0.3-21.8,11-39.7,2.3c-17.8-8.7-36.1,11.8-35.8,24.1c-16.9-2.2-24,18.1-21.4,25.2
			c2.6,7.2,14.1,22.7,15.6,32.9C599.7,341.2,610.2,335.5,610.2,335.5z"/>
		<path class="st12" d="M668.1,318.3c-0.8,14-4.6,35.1-6.8,36.9c-2.2,1.7-12.3-1.3-12.3-1.3s8.3,5.6,14.6,3.1
			C670,354.4,668.1,318.3,668.1,318.3z"/>
		<path class="st31" d="M661.8,370.7c-1.5,3.9-4.1,6.6-5.8,6s-1.7-4.4-0.2-8.3c1.5-3.9,4.1-6.6,5.8-6
			C663.2,363,663.3,366.8,661.8,370.7z"/>
		<polygon class="st30" points="686.3,414.6 677.4,384.4 658.5,371.4 659.9,368.2 679.9,381.3 689.8,413.2 		"/>
		<path class="st6" d="M611.4,342.9c2.3-32.9-16.7-22.7-15.8-2.8C596.5,357.2,609.9,367.7,611.4,342.9z"/>
		<polygon class="st75" points="666.3,428.9 705.1,487.4 722.6,478.2 705.6,414.4 		"/>
		<path class="st6" d="M690.2,465c0,0-8.4-3.1-9.4-5s-0.5-9.3-1.6-12.7c-1.1-3.5,5.1-1.5,6.5,2s0.9,9.2,0.9,9.2L690.2,465z"/>
		<path class="st6" d="M706.4,429.8c-0.5,3.2,1.2,6.4,6.1,11.4c1.1-4,1.6-9.2-1.6-12.8C709.4,426.8,706.7,427.6,706.4,429.8z"/>
		<path class="st6" d="M708.4,435.9c-0.5,3.2,1.2,6.4,6.1,11.4c1.1-4,1.6-9.2-1.6-12.8C711.4,432.9,708.8,433.8,708.4,435.9z"/>
		<path class="st6" d="M709.2,443.1c-0.4,2.6,1.4,5.2,6.5,9.5c0.9-3.2,1.3-7.4-2.1-10.5C712.1,440.8,709.4,441.4,709.2,443.1z"/>
		<path class="st6" d="M712.7,451.9c-0.4,2.6,0.6,4.6,4.5,6c1.6-1.3,3.3-4.5-0.1-7.5C715.6,449,712.9,450.2,712.7,451.9z"/>
		<polygon class="st27" points="663.1,427.8 666.3,432.6 710.6,414.9 707.7,410.8 		"/>
		<path class="st27" d="M665.2,428.7c-0.1-0.7,1.4-8.6,1.4-8.6L700,407l7,6L665.2,428.7z"/>
		<path class="st6" d="M594.6,583.3c0,0-105.7,8-106.4-2.2c-0.4-5.6,7.6-41,20.5-78.9c10.5-30.6,24.2-63,39.4-82.6
			c0,0,8.7,50,3.1,61.6c-2.5,5.1-8.9,20.9-15.3,37c-8.2,20.6-16.5,41.7-16.5,41.7l75.4,12.6L594.6,583.3z"/>
		<path class="st60" d="M551.2,481.3c-2.2,4.5-7.6,17.7-13.3,31.9c-0.7,1.7-1.4,3.4-2,5.1c-7.6-2.5-20.2-7.6-27.2-16
			c0.6-1.8,1.2-3.6,1.9-5.4c10.2-29,23.2-58.7,37.6-77.3C548.1,419.7,556.8,469.7,551.2,481.3z"/>
		<path class="st77" d="M537.9,513.2c-0.7,1.7-1.4,3.4-2,5.1c-7.6-2.5-20.2-7.6-27.2-16c0.6-1.8,1.2-3.6,1.9-5.4
			C519,504.8,532.5,510.9,537.9,513.2z"/>
		<path class="st6" d="M632.9,575.5c0,0,2.7,0.1,2.7,1.2c0,1-1.2,2.9-1.2,2.9s0,0,0,0c-2.9,4.7-6.2,9.2-7.8,10.2
			c-3.3,2.2-32.1-6.4-32.1-6.4s-6.2-5.6,0.2-10.8c0,0,12.8-10.2,16.2-11.6c3.3-1.4,7.5-1.3,11.9-2c4-0.6,6.8-2.3,8.4-1.5
			c2.6,1.3-4.3,8.8-13.2,8.7c9.9,1.6,20.9-1.2,22,1.1c0.1,0.3,0.1,0.8-0.1,1.5C638.7,571.9,632.9,575.5,632.9,575.5z"/>
	</g>
	<g>
		<path class="st10" d="M397.5,339.6c6,18.6,24.5,40,24.5,40l79.9-0.4c0,0,13.7-21.7,17.5-39.8S497,311.7,497,311.7L413.5,324
			L397.5,339.6z"/>
		<path class="st15" d="M554.8,597c-3.3,5.8-13.6-14.5-22-33.2c-6.4-14.4-11.6-27.8-11.6-27.8l-2.3,42.4l-4.1,75.1H409.4l-4.1-74.5
			l-2.4-43c0,0-3.7,9.5-8.7,21.1c-8.7,20.1-21.2,46.5-24.9,39.9c-13.4-23.4-4.8-67.1,6.7-104.2c13.1-42.6,43.6-72.1,57.5-78.8
			c9.8-4.8,19.7-7,27.9-7.2v0c0.2,0,0.5,0,0.7,0s0.5,0,0.7,0v0c9.8,0.3,21.9,3.4,33.5,10.2c11.9,7,38.4,35.8,51.2,73.6
			C560.1,527.9,568.4,573.1,554.8,597z"/>
		<path class="st78" d="M536.8,546.9l-3.9,16.9c-6.4-14.4-11.6-27.8-11.6-27.8l-2.3,42.4c-10.4-28.6-32.2-80.6-54.4-81
			c-24-0.4-49.5,57-59.3,81.6l-2.4-43c0,0-3.7,9.5-8.7,21.1l-4.3-20.8l22.3-52.8c0,0,16-26.2,18.6-25.7c2.6,0.5,59,2.5,73,15.1
			C517.9,485.4,536.8,546.9,536.8,546.9z"/>
		<path class="st6" d="M496.3,417c-11.7,4-37.4,9.5-62.8-3c5.2-2.5,10.4-4.3,15.4-5.5c0.2-5.5,0.6-13.3,0.9-20
			c0.1-2.8,0.3-5.4,0.4-7.5c0.2-3.8,0.3-6.3,0.4-6.5l20.1,5.1l1.6,0.4l1.2,9.9l2.2,18.7C482.3,410.2,489.4,413,496.3,417z"/>
		<path class="st79" d="M473.4,389.9c-5,2.4-15,3.2-23.7-1.4c0.1-2.8,0.3-5.4,0.4-7.5l0.3-0.3l20.2-1l1.6,0.4L473.4,389.9z"/>
		<path class="st6" d="M461.7,264.4c-28.5-3.6-43.4,31.8-43.1,62.3c0.3,33.7,21,61.5,43.1,61.5s42.8-27.8,43.1-61.5
			C505.1,296.2,490.3,260.8,461.7,264.4z"/>
		<path class="st11" d="M485.1,321.2c-0.6,4.6-3.5,8-6.6,7.7s-5-4.3-4.4-8.9s3.6-8,6.6-7.7C483.8,312.7,485.8,316.7,485.1,321.2z"/>
		<path class="st11" d="M472.4,318.1c7-7.8,12.7-2.5,15.1,2C488.7,309.8,475.4,305.1,472.4,318.1z"/>
		<path class="st10" d="M471.5,303.8c9.4-3.4,16.8,1.6,19.7,7C491.4,299.5,472.8,294.8,471.5,303.8z"/>
		<path class="st11" d="M438.3,321.2c0.6,4.6,3.6,8,6.6,7.7s5-4.3,4.4-8.9s-3.5-8-6.6-7.7C439.7,312.7,437.7,316.7,438.3,321.2z"/>
		<path class="st11" d="M451,318.1c-7-7.8-12.7-2.5-15.1,2C434.8,309.8,448,305.1,451,318.1z"/>
		<path class="st80" d="M453.1,339.6c0,0,3.7,4.8,9.2,5.2c5.4,0.4,10.1-5.2,10.1-5.2s-6.9,2.5-9.6,2.5
			C460,342.2,453.1,339.6,453.1,339.6z"/>
		<path class="st10" d="M414.7,331.2c20.4-6.5,61.5-39.1,69.2-52.5c-6.2,12.1-19.2,24-19.2,24s14.5-8.9,20.6-20.2
			c-0.8,14.5,20.4,49.4,20.4,49.4l13.7,7.7c0,0,10.3-35.3,8.5-62.5c-1.8-27.2-36.5-31.5-36.5-31.5s-5.5-33.8-65.2-6.3
			c-44.8,20.6-32.3,83.9-29.1,98.7C400.2,352.8,414.7,331.2,414.7,331.2z"/>
		<path class="st31" d="M483,358.5c-4.1-2.1-6.4-4.6-7.9-7.2c0,0,0,0,0,0s0,0,0,0c-1.3-2.3-1.9-4.6-2.4-6.7
			c-0.5,3.1-0.1,5.6,0.9,7.6c-3,1.5-10,4.2-18,2c0.5-1.6,1.3-2.8,1.3-2.8c-4,1.1-3.1,5-1.7,6.4c-0.2-1,0-2.1,0.2-3.1
			c8.3,6.1,15.6,0.8,18.4-2C476.2,356.8,480.7,358.5,483,358.5z"/>
		<path class="st6" d="M496.6,331.7c14.9-15,19.2,0.7,15.9,15.7c-3.3,15-18.5,5.9-18.5,5.9L496.6,331.7z"/>
		<path class="st6" d="M426.9,331.7c-14.9-15-19.2,0.7-15.9,15.7c3.3,15,18.5,5.9,18.5,5.9L426.9,331.7z"/>
		<g>
			<path class="st81" d="M430.1,460.3c-7.4,5.9-4,24.7,23.5,26.8c27.4,2.1,44-3.1,38.8-18.3C487.2,453.6,430.1,460.3,430.1,460.3z"
				/>
			<path class="st10" d="M430.8,457.7c-7.6,5.2-0.9,16.7,24,20s36.7-4.9,38.6-9.4c1.9-4.5-5.2-11.4-5.2-11.4l-52.7-4.5L430.8,457.7z
				"/>
			<path class="st82" d="M434.3,460.7c1,0,18.8,12.6,19.3,12.4s38.1-6.6,38.1-6.6l-2.9-5.2l-42.8-3.3L434.3,460.7z"/>
			<path class="st48" d="M460.1,452.9c-6.6,6.2-3.3,11.6-0.7,11.2c2.6-0.4,3.6-3.1,6.7,0.5c3.1,3.6,4.1-2.2,6-2.1
				c1.9,0.2,4.8,4.8,6.7,2.6c1.9-2.2,1.7-5.4,4.7-4s7.1,4,9.3,1.7s2.1-5.7,4.8-5.2c2.8,0.5,1.7-6.7-4.8-8.1
				C486.4,448.2,460.1,452.9,460.1,452.9z"/>
			<path class="st83" d="M432.4,447.5c-10.5,6-0.2,16.2,11.7,17.6s19.2-7.1,16.9-11C458.8,450.1,432.4,447.5,432.4,447.5z"/>
			<path class="st84" d="M435.8,449.6c-0.9,0.2-5.3,2.8-5.3,4.8c0,2.1,5.9,5.4,8.3,4.1c2.4-1.2,2.6-6,2.6-6L435.8,449.6z"/>
			<path class="st84" d="M445.8,452.2c0,0-1.4,5.2-0.2,6.9c1.2,1.7,6.7,3.1,8.3,1.2c1.5-1.9-0.7-6.2-0.7-6.2L445.8,452.2z"/>
			<path class="st81" d="M430.8,448.1c-1.7,8.2,52.1,9.9,61.4,3.5c7.8-5.4-11-22.6-29-22.6C445.3,428.9,433.2,436.1,430.8,448.1z"/>
		</g>
		<path class="st6" d="M419.6,470.1c0-1.5,6-21.1,9.2-26.2c3.2-5.1,12.8-12.4,16.6-13.5c1.3-0.4,2.9-0.2,4.5,0.3
			c1.5,0.5,0.5,5.3-0.7,6.9c1.8-0.1,1.5,1.5-0.2,3.1c-2.4,2.2-9.6,9-9.6,9l-3,13.5c-1,4.4-3.8,8.1-7.7,10.2l-5.3,2.9L419.6,470.1z"
			/>
		<g>
			<path class="st15" d="M428.5,482.8c0,0-41.9,124.9-59.2,114.2c-3.5-3.9-5.6-12.8-5.3-24.4c0.2-7,1.2-15,3.3-23.6
				c0.9-3.8,2.1-7.6,3.4-11.5c0.2-0.5,0.4-1.1,0.6-1.6c9.8-25.9,43.3-64.8,47.5-69.5c0.2-0.2,0.3-0.3,0.4-0.4c0,0,0,0,0,0
				c0,0,0,0,0,0l2.9,5.4l1.9,3.4L428.5,482.8z"/>
			<path class="st85" d="M422.2,471.3c-4.8,17.7-16.8,62.7-31,84c-14.3,21.5-26.4,15.1-23.9-6.3c0.9-3.8,2.1-7.6,3.4-11.5
				c0.2-0.5,0.4-1.1,0.6-1.6c10.5-27.6,47.9-70,47.9-70L422.2,471.3z"/>
			<path class="st86" d="M371.4,535.9c9.8-25.9,43.3-64.8,47.5-69.5c-3.6,4.3-30.6,36.2-41.1,62.6c-8.8,22.1-12.4,34.5-13.7,43.6
				c0.2-7,1.2-15,3.4-23.6c0.9-3.8,2.1-7.6,3.4-11.5C371,537,371.2,536.4,371.4,535.9z"/>
		</g>
		<g>
			<path class="st6" d="M505.4,470.1c0-1.5-6-21.1-9.2-26.2c-3.2-5.1-12.8-12.4-16.6-13.5c-1.3-0.4-2.9-0.2-4.5,0.3
				c-1.5,0.5-0.5,5.3,0.7,6.9c-1.8-0.1-1.5,1.5,0.2,3.1c2.4,2.2,9.6,9,9.6,9l3,13.5c1,4.4,3.8,8.1,7.7,10.2l5.3,2.9L505.4,470.1z"/>
			<g>
				<path class="st15" d="M496.6,482.8c0,0,41.9,124.9,59.2,114.2c3.5-3.9,5.6-12.8,5.3-24.4c-0.2-7-1.2-15-3.3-23.6
					c-0.9-3.8-2.1-7.6-3.4-11.5c-0.2-0.5-0.4-1.1-0.6-1.6c-9.8-25.9-43.3-64.8-47.5-69.5c-0.2-0.2-0.3-0.3-0.4-0.4c0,0,0,0,0,0
					c0,0,0,0,0,0l-2.9,5.4l-1.9,3.4L496.6,482.8z"/>
				<path class="st85" d="M502.9,471.3c4.8,17.7,16.8,62.7,31,84c14.3,21.5,26.4,15.1,23.9-6.3c-0.9-3.8-2.1-7.6-3.4-11.5
					c-0.2-0.5-0.4-1.1-0.6-1.6c-10.5-27.6-47.9-70-47.9-70L502.9,471.3z"/>
				<path class="st86" d="M553.7,535.9c-9.8-25.9-43.3-64.8-47.5-69.5c3.6,4.3,30.6,36.2,41.1,62.6c8.8,22.1,12.4,34.5,13.7,43.6
					c-0.2-7-1.2-15-3.3-23.6c-0.9-3.8-2.1-7.6-3.4-11.5C554.1,537,553.9,536.4,553.7,535.9z"/>
			</g>
		</g>
	</g>
	<g>
		<path class="st6" d="M222,421.4c-0.1,0.6-2.1,25.6-2.1,26.2c0,0.6,13.7,13.3,13.7,12.7c0-0.6,0-37.4,0-37.4L222,421.4z"/>
		<path class="st6" d="M230.3,430.3c-3.8-3.4-18.6-20.1-18.4-24.1c0.2-4,21.7-14.8,22.5-11.5s6.7,17.6,7.1,17.8
			C241.9,412.8,234.8,428.2,230.3,430.3z"/>
		<path class="st87" d="M301,473l-1.7,4.5l-3.4,9c-6.3,14.7-14.9,29.5-23.9,42.7c-17.9,26.3-37.3,46.4-43.4,48
			c-9.9-8.7-1.8-34.7,11.4-52.4c1.1-1.5,2.5-3.6,3.9-6.1c2.6-4.5,5.5-10.2,8.7-16.8c15.1-31.1,34.9-79.2,39-82.4
			C297.1,415.3,301,473,301,473z"/>
		<path class="st88" d="M299.3,477.5l-3.4,9c-6.3,14.7-14.9,29.5-23.9,42.7c7.7-17,18.4-38.6,24.9-61.5L299.3,477.5z"/>
		<path class="st88" d="M252.6,501.9c-0.6,18.3-4.9,34.5-4.9,34.5l-3.9-17.8C246.4,514.2,249.4,508.5,252.6,501.9z"/>
		<path class="st87" d="M397,485.5c-6.1,69.3-15.8,166.4-15.8,166.4H271c0,0,19.9-142.9,24-175.3c0.4-3.3,0.7-5.5,0.7-6.2
			c0.6-7.9-10.5-40-4.1-50.8c2.6-4.4,9.3-8.2,16.3-11.2c10.2-4.3,21.1-6.9,21.1-6.9l2.9-23.5l22.2-14l6.7,36.5c0,0,9.6,2.9,19.5,6.4
			c9.7,3.5,19.7,7.5,21.1,10.1C402.4,418.8,400.2,448.1,397,485.5z"/>
		<path class="st88" d="M397,485.5c-6.1,69.3-15.8,166.4-15.8,166.4H271c0,0,19.9-142.9,24-175.3c0.2,1.3,0.3,2.8,0.4,4.4
			c2.5,42.9,71.4,33.8,86.8-9.4L397,485.5z"/>
		<path class="st89" d="M344,577c-11.1,8.2,1.3,32.4,4.1,33c8.6-3.8,18.4-20.6,15.5-25.4C360.8,579.8,344,577,344,577z"/>
		<path class="st6" d="M380.3,406.9c-10.2,11.6-23,17.1-35.5,17.4l-14.9,29.5l-1.1-31.9c-7.8-2.6-15-7.2-20.9-13.6
			c10.2-4.3,21.1-6.9,21.1-6.9l1.5-12.5l1.3-11l22.2-14l1.2,6.8l5.4,29.7C360.8,400.5,370.4,403.4,380.3,406.9z"/>
		<path class="st90" d="M356.2,522.9c0-0.6,0-10.6,1.4-11.6s-0.6,11.2-0.6,11.2s8.8-4.4,9.2-3.8c0.4,0.6-7.6,4.2-7.6,4.2
			s8.6,2.6,8.2,4.2c-0.4,1.6-10-1.6-10-1.6L356.2,522.9z"/>
		<path class="st91" d="M363.6,541.8c-4.6,7.6-27.6,8.4-33.4-2c-2.6-4.7-2.9-10.4-1.5-15.7c2.3-8.8,9.2-16.2,17.5-15.7
			c13.2,0.8,7.4,10.6,11,14.8c1.3,1.5,3,3.3,4.6,5.4C364.6,532.4,366.6,536.9,363.6,541.8z"/>
		<path class="st92" d="M363.6,541.8c-4.6,7.6-27.6,8.4-33.4-2c-2.6-4.7-2.9-10.4-1.5-15.7c2.3,17,32.5,13.6,33.1,4.5
			C364.6,532.4,366.6,536.9,363.6,541.8z"/>
		<path class="st1" d="M355.4,370.8c-5.3,7.9-14.4,15-24.8,18.2l1.3-11l22.2-14L355.4,370.8z"/>
		<path class="st93" d="M336.4,540.1l-20,5.6c0,0-9.1-18-11.8-28.8c-1-4.1-1.1-7.2,0.5-7.9c2.8-1.2,8.6,3.7,14,9.2
			c6.2,6.3,11.8,13.6,11.8,13.6L336.4,540.1z"/>
		<path class="st94" d="M331,531.9c0,0-5.6-7.2-11.8-13.6c4.8,7.7,10.3,17.6,5.7,16.4c-5.1-1.4-14.9-11.7-20.3-17.8
			c2.7,10.8,11.8,28.8,11.8,28.8l20-5.6L331,531.9z"/>
		<path class="st95" d="M324.1,541.2c-5-12.8-10.2-9.8-13.4-7.6s-4.2-6.8-6.8-8c-2.6-1.2-3.6,5.2-5.2,4.8s-5-3.9-4.8-10.6
			c0.1-3.3-6.4,1.6-8.4,0.8c-2-0.8-6.2-3.2-6.8,0.6c-0.6,3.8,3.8,9.4-0.8,8.4c-4.6-1-7.8-5.4-9.8-3.2s2.6,13.6,6,15.4
			C277.5,543.6,324.1,541.2,324.1,541.2z"/>
		<path class="st25" d="M366.9,538.2c-1.2,26.4-22.5,47.4-48.6,47.4c-26.1,0-47.4-21-48.6-47.4H366.9z"/>
		<path class="st6" d="M344,577c0,0-4.6-4.9-7.5-5.7c-3-0.8-6.7-8.7-7.1-10.8c-3.9,1.2-4.6,6.9-2.8,9.9c1.8,3,6.7,7.7,6.7,7.7
			s-14.1,3.1-16.9,3.6s-10,0-12.2-0.5s-1.3,3.8-1.3,3.8s-3.3-1.2-3.5,0.8c-0.2,2,0.5,2.1,4.8,5.3c4.3,3.1,23.5,5.9,28.9,5.8
			s24.3-11.7,24.3-11.7l-4.8-6.4L344,577z"/>
		<path class="st96" d="M230.2,426.8c-14,7.3-23.7-5-22.5-14.4c0.1-0.9,0.8-2.6,2-4.8c9.6-18.5,50.5-75.5,54.8-71.3
			c0,0,0.1,0.1,0.1,0.1C268.8,342,244,419.5,230.2,426.8z"/>
		<path class="st97" d="M230.2,426.8c-14,7.3-23.7-5-22.5-14.4c0.1-0.9,0.8-2.6,2-4.8c4,12.3,29.6,0.6,40.3-24.7
			c10-23.4,14.4-40.7,14.5-46.5C268.8,342,244,419.5,230.2,426.8z"/>
		<path class="st6" d="M230.3,430.3c0.6-0.4,13.4-3.4,15.8-9.1s-0.2-10.3,3-14.4s6.5-6.1,5.7-8.9s-6.1-2-9.5,4
			C241.9,407.8,230.3,430.3,230.3,430.3z"/>
		<path class="st6" d="M211.9,403.5c0,0,7.1-4,7.9-7.1s-3-4.5-4.9-3.8C212.9,393.4,211.9,403.5,211.9,403.5z"/>
		<path class="st6" d="M217.1,395c0,0-0.5-5.6,2.3-10.9c2.8-5.2,9.5-4.5,8.9-1.7C227.7,385.3,217.1,395,217.1,395z"/>
		<path class="st6" d="M224.5,383.8c0,0,1.6-7.7,2.2-9.4c0.6-1.7,10.1-2.2,10.3-0.8s0.7,3-1.4,4.2s-6.8,1.2-6.8,1.2L224.5,383.8z"/>
		<path class="st6" d="M229.9,376.1c0,0-0.3-8.5,1.1-10.9c1.4-2.4,7.5-4.8,6.3,0.8C236.1,371.6,229.9,376.1,229.9,376.1z"/>
		<path class="st93" d="M210.8,428.2c2.7,2.2,11.5,2,11.7-2.2s-6.9-8-10.4-7.6C208.6,418.7,208.8,426.5,210.8,428.2z"/>
		<path class="st93" d="M214.1,424.5c-0.4,0.4-16,13.9-17,17s3.5,2.2,3.5,2.2s-12.5,11.5-13.3,13.9c-0.8,2.3,6.6-1.8,6.6-1.8
			s-9.8,10-10.2,11.9s4.6-0.3,4.6-0.3s-5.5,5.7-6,8.8s2.4,0.6,2.4,0.6s-4.6,7.7-3.2,9.4c1.4,1.8,6.4-9,6.4-9s3.5,6.6,7.9-7.5
			c1.5,1.9,4.9-8.2,6-13.2c1.2,6.9,4.1-3.5,5-9.2c2.6,9.5,7.8-21.8,7.8-21.8L214.1,424.5z"/>
		<path class="st98" d="M387.2,253.1c2.7-6.4,17.7-17.1,26.8-14.5c9.1,2.7,10.2,34.1,2.7,43.4s-27.5,1.9-27.5,1.9L387.2,253.1z"/>
		<path class="st6" d="M305.6,259.9c-13.5,15.7-17.9,57.8-16.1,79.8c1.7,22,14.2,41.6,23,45.5c8.8,3.9,42.1-4.6,53.8-34
			c11.7-29.4,14.4-72.4,13.2-85.4C378.3,252.8,329.1,232.4,305.6,259.9z"/>
		<path class="st13" d="M343.8,340.6c-0.6,4.3-1.9,8-3.5,11.1v0c-6.9,13.5-20.3,16.5-20.3,16.5s-2.1-2.9-4.4-7
			c-1.5-2.7-3.1-6-4.3-9.4c-0.5-1.4-0.9-2.8-1.1-4.2C310.3,347.7,335,345.8,343.8,340.6z"/>
		<path class="st14" d="M343.8,340.6c-3.5,6.2-19.5,12.2-32.4,11.3c-0.5-1.4-0.9-2.8-1.1-4.2C310.3,347.7,335,345.8,343.8,340.6z"/>
		<path class="st15" d="M340.3,351.7c-6.9,13.5-20.3,16.5-20.3,16.5s-2.1-2.9-4.4-7C323.5,353.6,335.6,352.1,340.3,351.7z"/>
		<path class="st12" d="M319.2,298.4c-2.5,18.7-11.6,28.1-12,32.2s14.1,4,14.1,4s-10.4-3.3-11-4.6
			C309.8,328.6,320.4,314.6,319.2,298.4z"/>
		<path class="st42" d="M338,267.2l-3,10.4c0,0,21.4,4.4,24.5,12.1C359.8,278.7,341.9,267.2,338,267.2z"/>
		<path class="st42" d="M313.1,270.3l3.5,8.5c0,0-19.1,1.9-23.1,10.8C300.7,272.6,313.1,270.3,313.1,270.3z"/>
		<path class="st11" d="M298.6,302c4.2-9.2,12,1,14.5,4.6C310,290.5,299,289.1,298.6,302z"/>
		<path class="st11" d="M331.2,305.5c5.2-12.1,12.3-14.3,19.9-1.2C342,297.6,334.6,301.1,331.2,305.5z"/>
		<path class="st42" d="M392.6,278.8c-1.7,15.9-7.6,43.3-7.6,43.3l-15.4,3.1c0,0,1.5-25.9-0.4-44.1c-0.6-6.2-1.7-11.6-3.3-14.6
			c-6.4-12.1-48.9-15.8-60.2-6.5c0,0,1.6-10.6,5.9-15.8c4.2-5.2,44.9-21.6,59.3-16.4c14.5,5.2,22,31.4,22.2,43.7
			C393,273.3,392.9,275.9,392.6,278.8z"/>
		<path class="st42" d="M392.6,278.8c-1.7,15.9-7.6,43.3-7.6,43.3l-15.4,3.1c0,0,1.5-25.9-0.4-44.1L392.6,278.8z"/>
		<path class="st6" d="M368.4,325c9.4-20.8,22.9-20.8,19.5-1.2s-16.8,27.9-19.1,17.9C366.4,331.7,368.4,325,368.4,325z"/>
		<path class="st87" d="M401.4,417c12.1,21.6,27.3,147.6,25.7,160.3c-1.6,12.7-79,32.7-79,32.7s23.5-18.4-4.1-33
			c19.4-2.5,50.8-13.3,50.8-13.3s-13.3-78.7-14.6-92.7C378.9,457,401.4,417,401.4,417z"/>
		<path class="st87" d="M228.6,577.1c-6.3,1.5-13.2-18.5-14.4-34.1c-1.2-15.6,3.6-111.9,3.6-111.9s20.6,19.1,24.8,22.7
			c4.2,3.6,5.7,73.3,5.1,82.6S228.6,577.1,228.6,577.1z"/>
		<g>
			<path class="st97" d="M226.1,408.2c0.5,2.1,6.3,3.3,6.3,3.3S229,408,226.1,408.2z"/>
			<path class="st97" d="M221.9,392.5c0.5,2.1,6.3,3.3,6.3,3.3S224.9,392.3,221.9,392.5z"/>
			<path class="st97" d="M240.2,386.6c0.5,2.1,6.3,3.3,6.3,3.3S243.2,386.4,240.2,386.6z"/>
			<path class="st97" d="M238.9,365.7c0.5,2.1,6.3,3.3,6.3,3.3S241.8,365.5,238.9,365.7z"/>
			<path class="st97" d="M251.9,357.3c0.5,2.1,6.3,3.3,6.3,3.3S254.8,357.1,251.9,357.3z"/>
		</g>
	</g>
</g>
<path class="st14" d="M377.6,647.4c-153.8,0-285.7-21.6-342-52.3h-29V685H737v-89.9h-17.4C663.3,625.8,531.4,647.4,377.6,647.4z"/>
</svg>
