<?xml version="1.0" encoding="utf-8"?>
<!-- Generator: Adobe Illustrator 25.4.1, SVG Export Plug-In . SVG Version: 6.00 Build 0)  -->
<svg version="1.1" id="Layer_1" xmlns="http://www.w3.org/2000/svg" xmlns:xlink="http://www.w3.org/1999/xlink" x="0px" y="0px"
	 viewBox="0 0 200 200" style="enable-background:new 0 0 200 200;" xml:space="preserve">
<style type="text/css">
	.st0{fill-rule:evenodd;clip-rule:evenodd;fill:#E42F28;}
</style>
<path id="YOUTUBE_4_" class="st0" d="M87.6,81.8L120,98.8l-32.4,16.8V81.8z M200,100c0,55.2-44.8,100-100,100
	C44.8,200,0,155.2,0,100C0,44.8,44.8,0,100,0C155.2,0,200,44.8,200,100z M160,95.4c0-9.7-1.2-19.4-1.2-19.4s-1.2-8.3-4.8-11.9
	c-4.6-4.8-9.7-4.8-12-5.1c-16.8-1.2-42-1.2-42-1.2H100c0,0-25.2,0-42,1.2c-2.3,0.3-7.5,0.3-12,5.1C42.4,67.7,41.2,76,41.2,76
	S40,85.7,40,95.4v9.1c0,9.7,1.2,19.4,1.2,19.4s1.2,8.3,4.8,11.9c4.6,4.8,10.6,4.6,13.2,5.1c9.6,0.9,40.8,1.2,40.8,1.2s25.2,0,42-1.3
	c2.3-0.3,7.5-0.3,12-5.1c3.6-3.6,4.8-11.9,4.8-11.9s1.2-9.7,1.2-19.4V95.4z"/>
</svg>
