<svg width="30" height="30" viewBox="0 0 30 30" fill="none" xmlns="http://www.w3.org/2000/svg">
<g clip-path="url(#clip0_1095_2)">
<path d="M24.247 3.91766C27.1764 3.91766 29.5764 6.28237 29.5764 9.24708V10.3059H0.917603V9.24708C0.917603 6.31766 3.28231 3.91766 6.24701 3.91766C3.3176 3.91766 0.917603 6.28237 0.917603 9.24708V23.8236C0.917603 26.753 3.28231 29.153 6.24701 29.153H24.2823C27.2117 29.153 29.6117 26.7883 29.6117 23.8236V9.24708C29.5764 6.31766 27.2117 3.91766 24.247 3.91766Z" fill="url(#paint0_linear_1095_2)"/>
<path d="M24.3177 3.91766H6.28241C3.353 3.91766 0.953003 6.28237 0.953003 9.24708V10.3059H29.6471V9.24708C29.6471 6.31766 27.2824 3.91766 24.3177 3.91766Z" fill="url(#paint1_linear_1095_2)"/>
<path d="M25.6235 3.45881H21.5647V0.988217C21.5647 0.529394 21.2118 0.176453 20.753 0.176453C20.2941 0.176453 19.9412 0.529394 19.9412 0.988217V3.45881H15.8118V0.988217C15.8118 0.529394 15.4588 0.176453 15 0.176453C14.5412 0.176453 14.1882 0.529394 14.1882 0.988217V3.45881H10.0588V0.988217C10.0588 0.529394 9.7059 0.176453 9.24707 0.176453C8.78825 0.176453 8.43531 0.529394 8.43531 0.988217V3.45881H4.37649C1.94119 3.45881 -0.0352783 5.43528 -0.0352783 7.87057V10.2C-0.0352783 10.6588 0.317663 11.0117 0.776486 11.0117H26.4706C26.9294 11.0117 27.2824 10.6588 27.2824 10.2C27.2824 9.74116 26.9294 9.38822 26.4706 9.38822H1.62355V7.90586C1.62355 6.38822 2.85884 5.11763 4.41178 5.11763H25.6235C27.1412 5.11763 28.4118 6.35292 28.4118 7.90586V25.4117C28.4118 26.9294 27.1765 28.2 25.6235 28.2H4.37649C2.85884 28.2 1.58825 26.9647 1.58825 25.4117V14.047C1.58825 13.5882 1.23531 13.2353 0.776486 13.2353C0.317663 13.2353 -0.0352783 13.5882 -0.0352783 14.047V25.4117C-0.0352783 27.847 1.94119 29.8235 4.37649 29.8235H25.5882C28.0235 29.8235 30 27.847 30 25.4117V7.87057C30.0353 5.43528 28.0588 3.45881 25.6235 3.45881ZM17.0471 22.8706C15.7059 23.9294 12.7059 23.4706 11.6471 23.2235C11.2235 23.1176 10.7647 23.3647 10.6588 23.8235C10.553 24.247 10.8 24.7059 11.2588 24.8117C11.5059 24.8823 12.8118 25.2 14.3294 25.2C15.6 25.2 17.0118 24.9882 18.0353 24.1765C18.9177 23.5059 19.3765 22.4823 19.3765 21.2117C19.3765 19.9765 18.9177 18.9529 18.0706 18.2823C16.5177 17.047 14.0824 17.1882 12.6706 17.3647V15.3529H17.5412C18 15.3529 18.353 15 18.353 14.5412C18.353 14.0823 18 13.7294 17.5412 13.7294H11.8588C11.4 13.7294 11.0471 14.0823 11.0471 14.5412V18.3529C11.0471 18.6 11.153 18.847 11.3647 18.9882C11.5765 19.1294 11.8235 19.2 12.0706 19.1294C13.0235 18.9176 15.8118 18.5294 17.0824 19.5529C17.5412 19.9059 17.7882 20.4706 17.7882 21.1765C17.753 21.9529 17.5059 22.4823 17.0471 22.8706Z" fill="#77A03F"/>
</g>
<defs>
<linearGradient id="paint0_linear_1095_2" x1="3.32992" y1="4.61959" x2="27.1555" y2="28.4451" gradientUnits="userSpaceOnUse">
<stop stop-color="white"/>
<stop offset="0.4259" stop-color="white"/>
<stop offset="1" stop-color="#F7F7F5"/>
</linearGradient>
<linearGradient id="paint1_linear_1095_2" x1="7.33139" y1="0.688111" x2="23.2939" y2="16.6507" gradientUnits="userSpaceOnUse">
<stop stop-color="#EBEBE8"/>
<stop offset="1" stop-color="#EBEBE8"/>
</linearGradient>
<clipPath id="clip0_1095_2">
<rect width="30" height="30" fill="white"/>
</clipPath>
</defs>
</svg>
