<?xml version="1.0" encoding="utf-8"?>
<!-- Generator: Adobe Illustrator 26.0.1, SVG Export Plug-In . SVG Version: 6.00 Build 0)  -->
<svg version="1.1" id="Layer_1" xmlns="http://www.w3.org/2000/svg" xmlns:xlink="http://www.w3.org/1999/xlink" x="0px" y="0px"
	 viewBox="0 0 85 85" style="enable-background:new 0 0 85 85;" xml:space="preserve">
<style type="text/css">
	.st0{fill:#E9E9DF;}
	.st1{fill:#77A03F;}
</style>
<g>
	<path class="st0" d="M82.7,62.9c0,8.1-6.6,13.4-14.7,13.4H16.6C8.5,76.3,1.9,71,1.9,62.9V22.5c0-8.1,6.6-13.4,14.7-13.4h51.3
		c8.1,0,14.7,5.3,14.7,13.4V62.9z"/>
	<path class="st1" d="M72.8,78.1H12.2C5.5,78.1,0,72.7,0,65.9V34.7c0-1.2,1-2.3,2.3-2.3c1.2,0,2.3,1,2.3,2.3v31.2
		c0,4.2,3.4,7.7,7.7,7.7h60.6c4.2,0,7.7-3.4,7.7-7.7V19.1c0-4.2-3.5-7.7-7.7-7.7H12.2c-3.8,0-7,2.8-7.6,6.5l37.8,25.5l30.7-23.9
		c1-0.8,2.4-0.6,3.2,0.4c0.8,1,0.6,2.4-0.4,3.2L43.9,48c-0.8,0.6-1.8,0.6-2.7,0.1L1,21c-0.6-0.4-1-1.1-1-1.9
		C0,12.4,5.5,6.9,12.2,6.9h60.6c6.7,0,12.2,5.5,12.2,12.2v46.8C85,72.7,79.6,78.1,72.8,78.1z"/>
</g>
</svg>
