<svg width="60" height="60" viewBox="0 0 60 60" fill="none" xmlns="http://www.w3.org/2000/svg">
<g clip-path="url(#clip0_802_949)">
<path d="M44.047 27.3177C44.3294 25.9765 44.4706 24.5647 44.4706 23.0824C44.4706 11.2236 34.8706 1.55298 22.9412 1.55298C11.0117 1.55298 1.41174 11.2236 1.41174 23.0824C1.41174 35.0118 11.0823 44.6118 22.9412 44.6118C24.4941 44.6118 25.9764 44.4706 27.4588 44.1177C27.4588 44.1883 44.5412 28.0236 44.047 27.3177Z" fill="#E9E9DF"/>
<path d="M43.9765 28.5176C43.9765 28.5176 55.9765 43.5529 58.5177 50.5412C58.8001 52.1647 53.7883 59.5765 50.1883 58.4471C46.5883 57.3176 28.5177 43.9765 28.5177 43.9765L43.9765 28.5176Z" fill="#E9E9DF"/>
<path d="M42.1412 40.5882C42.1412 39.7412 41.4353 39.0353 40.5882 39.0353C39.7412 39.0353 39.0353 39.7412 39.0353 40.5882C39.0353 41.4353 39.7412 42.1412 40.5882 42.1412C41.4353 42.1412 42.1412 41.4353 42.1412 40.5882ZM58.2353 46.3059C55.7647 41.8588 45.9529 28.5176 45.3176 27.6706C45.6706 26.1176 45.8118 24.4941 45.8118 22.9412C45.8118 18.9176 44.7529 15.1765 42.9882 11.9294C42.9176 11.7882 42.8471 11.6471 42.7059 11.5059C38.8235 4.58823 31.4118 0 22.9412 0C14.7529 0 7.2 4.37647 3.10588 11.4353C2.32941 12.7059 1.69412 14.1176 1.2 15.5294C0.917647 16.3059 1.34118 17.1529 2.11765 17.4353C2.89412 17.7176 3.74118 17.2941 4.02353 16.5176C4.44706 15.3176 5.01177 14.1176 5.64706 12.9882C8.96471 7.27059 14.8941 3.6 21.3882 3.10588V10.9412H13.9059V10.0235C13.9059 9.17647 13.2706 8.54118 12.4235 8.54118C11.5765 8.54118 10.9412 9.17647 10.9412 10.0235V10.9412H9.81176C8.96471 10.9412 8.32941 11.5765 8.32941 12.4235C8.32941 13.2706 8.96471 13.9059 9.81176 13.9059H10.9412V21.4588H1.55294C1.41176 21.4588 1.34118 21.4588 1.27059 21.4588C0.564706 21.6 0 22.1647 0 22.9412C0 31.4118 4.65882 38.8941 11.5765 42.8471C11.6471 42.9176 11.7882 42.9882 11.8588 42.9882C15.1765 44.8235 18.9176 45.8824 22.9412 45.8824C24.7059 45.8824 26.4706 45.6706 28.2353 45.2471C28.5176 45.1765 28.7294 45.0353 28.9412 44.8235L43.5529 30.2118C45.8118 33.2471 53.6471 43.9765 55.6941 47.7176C57.8118 51.6 57.6 52.0235 54.8471 54.7059C54.8471 54.7059 54.8471 54.7059 54.7765 54.7765C54.7765 54.7765 54.7765 54.7765 54.7059 54.8471C52.0235 57.5294 51.6 57.7412 47.7176 55.6941C45.6 54.4941 40.5882 51.1059 33.6706 46.0941C33.0353 45.6 32.0471 45.7412 31.5529 46.4471C31.0588 47.0824 31.2 48.0706 31.9059 48.5647C36.8471 52.1647 43.4118 56.8235 46.3059 58.3765C48.4235 59.5059 49.9765 60.1412 51.3882 60.1412C53.1529 60.1412 54.7059 59.1529 56.7529 57.1059L56.8235 57.0353L56.8941 56.9647L56.9647 56.8941C56.9647 56.8941 56.9647 56.8941 57.0353 56.8235C60.6353 53.0823 60.9176 51.1059 58.2353 46.3059ZM10.9412 31.9059H9.81176C8.96471 31.9059 8.32941 32.5412 8.32941 33.3882C8.32941 34.2353 8.96471 34.8706 9.81176 34.8706H10.9412V38.8235C6.49412 35.4353 3.45882 30.2824 3.03529 24.4235H10.8706V31.9059H10.9412ZM24.4235 13.9059H31.9059V21.4588H24.4235V13.9059ZM24.4235 24.4235H31.9059V31.9765H24.4235V24.4235ZM13.9059 13.9059H21.4588V21.4588H13.9059V13.9059ZM13.9059 24.4235H21.4588V31.9765H13.9059V24.4235ZM27.1059 42.4235C25.6941 42.7059 24.3529 42.8471 22.9412 42.8471C19.6941 42.8471 16.6588 42.0706 13.9059 40.6588V34.8706H21.4588V38.8941C21.4588 39.7412 22.0941 40.3765 22.9412 40.3765C23.7882 40.3765 24.4235 39.7412 24.4235 38.8941V34.8706H31.9059V37.4118V37.4823L27.1059 42.4235ZM33.4588 8.32941C32.6118 8.32941 31.9765 8.96471 31.9765 9.81176V10.8706H24.4235V3.03529C30.2824 3.52941 35.4353 6.49412 38.8235 10.9412H34.9412V9.88235C34.9412 9.03529 34.2353 8.32941 33.4588 8.32941ZM42.4235 27.1059L37.5529 31.9765C37.4824 31.9765 37.4118 31.9765 37.3412 31.9765H34.9412V24.4235H39.1059C39.9529 24.4235 40.5882 23.7882 40.5882 22.9412C40.5882 22.0941 39.8824 21.4588 39.1059 21.4588H34.9412V13.9059H40.7294C42.1412 16.5882 42.9176 19.6941 42.9176 22.9412C42.8471 24.3529 42.7059 25.6941 42.4235 27.1059Z" fill="#77A03F"/>
</g>
<defs>
<clipPath id="clip0_802_949">
<rect width="60" height="60" fill="white"/>
</clipPath>
</defs>
</svg>
