<svg width="40" height="40" viewBox="0 0 40 40" fill="none" xmlns="http://www.w3.org/2000/svg">
<path d="M39.1059 20.1882C39.1059 30.7294 30.5412 39.2941 20 39.2941C9.50587 39.2941 0.941162 30.7294 0.941162 20.1882C0.941162 9.64704 9.50587 1.08234 20.047 1.08234C30.5882 1.08234 39.1059 9.64704 39.1059 20.1882Z" fill="#E9E9DF"/>
<path d="M15.3882 10.0236V30.7294L29.4588 20.1412L15.3882 10.0236Z" fill="white"/>
<path d="M20 0C12.8941 0 6.25882 3.81176 2.68235 9.97647C2.02353 11.1059 1.50588 12.2824 1.08235 13.5059C0.894118 14.0235 1.17647 14.6353 1.74118 14.8235C2.25882 15.0118 2.87059 14.7294 3.05882 14.1647C3.43529 13.0824 3.90588 12 4.51765 11.0118C7.71765 5.50588 13.6941 2.07059 20.0471 2.07059C29.9294 2.07059 37.9765 10.1176 37.9765 20C37.9765 29.8824 29.8824 37.9765 20 37.9765C10.1176 37.9765 2.07059 29.9294 2.07059 20.0471C2.07059 19.4824 1.6 19.0118 1.03529 19.0118C0.470588 19.0118 0 19.4353 0 20C0 31.0588 8.98824 40 20 40C31.0588 40 40 31.0588 40 20C40 8.98824 31.0588 0 20 0ZM15.4824 14.9176C14.9176 14.9176 14.4471 15.3882 14.4471 15.9529V30.8706C14.4471 31.2471 14.6824 31.6235 15.0118 31.8118C15.1529 31.9059 15.2941 31.9059 15.4824 31.9059C15.7176 31.9059 15.9059 31.8118 16.0941 31.6706L30.1176 20.9412C30.3529 20.7529 30.5412 20.4235 30.5412 20.0941C30.5412 19.7647 30.4 19.4824 30.1176 19.2941L16.0941 9.17647C15.6235 8.84706 15.0118 8.94118 14.6353 9.41177C14.3059 9.88235 14.4 10.5412 14.8706 10.8706L27.7647 20.1882L16.5176 28.7529V15.9529C16.5176 15.3412 16.0471 14.9176 15.4824 14.9176Z" fill="#77A03F"/>
</svg>
