<?xml version="1.0" encoding="utf-8"?>
<!-- Generator: Adobe Illustrator 25.1.0, SVG Export Plug-In . SVG Version: 6.00 Build 0)  -->
<svg version="1.1" id="Layer_1" xmlns="http://www.w3.org/2000/svg" xmlns:xlink="http://www.w3.org/1999/xlink" x="0px" y="0px"
	 viewBox="0 0 893.65 281.77" style="enable-background:new 0 0 893.65 281.77;" xml:space="preserve">
<style type="text/css">
	.st0{fill:#77A03F;}
</style>
<circle class="st0" cx="853.11" cy="367.73" r="7.87"/>
<g>
	<path class="st0" d="M169.55,109.99h-0.01c-17.28,0-31.3,14.02-31.3,31.3v31.31h6.53v-31.79c0-13.69,11.09-24.78,24.77-24.78h0.01
		c13.68,0,24.77,11.09,24.77,24.78v31.79h6.53v-31.31C200.85,124.01,186.83,109.99,169.55,109.99z"/>
	<path class="st0" d="M125.14,139.45c0-0.21-0.02-0.42-0.04-0.62h-0.01c0-0.03,0-0.06,0-0.08c-1.53-15.86-14.9-28.28-31.17-28.28
		c-17.21,0-31.17,13.89-31.3,31.06h-0.01c0,0.04,0,0.08,0,0.13c0,0.04,0,0.08,0,0.13h0.01c0.14,17.16,14.09,31.06,31.3,31.06
		c9.48,0,17.97-4.21,23.71-10.87l-4.29-4.29c-4.62,5.57-11.6,9.11-19.42,9.12c-12.82,0-23.4-9.55-25.04-21.92h56.21
		c0.09-0.99,0.14-2,0.14-3.02v-0.81c-0.01-0.27-0.02-0.53-0.04-0.8C125.18,139.98,125.16,139.72,125.14,139.45z M93.92,116.5
		c12.93,0,23.59,9.71,25.08,22.24c0,0.03,0,0.06,0.01,0.08H68.84c0-0.03,0-0.06,0.01-0.08C70.34,126.21,81,116.5,93.92,116.5z"/>
	<path class="st0" d="M269.88,122.82c-5.7-7.77-14.89-12.82-25.27-12.82c-17.29,0-31.31,14.02-31.31,31.31s14.02,31.3,31.31,31.3
		c17.27,0,31.27-13.97,31.31-31.23h0.01v-63h-6.05V122.82z M244.62,166.56c-13.95,0-25.26-11.31-25.26-25.26
		c0-13.96,11.31-25.27,25.26-25.27c13.89,0,25.16,11.2,25.27,25.07v0.27h0C269.84,155.29,258.55,166.56,244.62,166.56z"/>
	<path class="st0" d="M344.72,141.78c0,13.69-11.09,24.78-24.77,24.78h-0.01c-13.68,0-24.77-11.09-24.77-24.78v-31.79h-6.53v31.31
		c0,17.28,14.02,31.3,31.3,31.3h0.01c17.28,0,31.3-14.02,31.3-31.3v-31.31h-6.53V141.78z"/>
	<path class="st0" d="M395.01,110c-17.27-0.01-31.3,14.01-31.3,31.3l0,31.31l6.53-0.01v-31.79c0-13.69,11.09-24.78,24.77-24.77
		l0.01-0.01c7,0,13.32,2.91,17.83,7.59l4.38-4.38C411.55,113.54,403.7,109.99,395.01,110L395.01,110z"/>
	<path class="st0" d="M456.48,109.84c-17.29,0-31.31,14.02-31.31,31.31v31.3h15.74v-30.84c0-8.6,6.97-15.57,15.57-15.57
		c4.3,0,8.19,1.74,11.01,4.56c2.82,2.82,4.56,6.71,4.56,11.01v30.84h15.73v-31.3c0-8.64-3.5-16.47-9.17-22.14
		C472.95,113.35,465.12,109.84,456.48,109.84z"/>
	<path class="st0" d="M604.33,134.27h-0.03c-0.07-0.3-0.12-0.6-0.2-0.89c-3.5-13.48-15.74-23.43-30.31-23.43
		c-9.29,0-17.64,4.05-23.37,10.48c-5.73-6.5-14.12-10.6-23.47-10.6c-17.29,0-31.31,14.01-31.31,31.3s14.02,31.31,31.31,31.31
		c9.32,0,17.68-4.08,23.42-10.54c0.41,0.47,0.84,0.92,1.28,1.37c12.23,12.23,32.05,12.23,44.27,0.01l-11.16-11.16
		c-6.06,6.07-15.89,6.07-21.96,0c-1.24-1.24-2.21-2.63-2.94-4.11h44.47c0.49-2.17,0.75-4.44,0.76-6.76h0c0-0.02,0-0.03,0-0.05
		c0-0.02,0-0.04,0-0.06C605.09,138.78,604.83,136.48,604.33,134.27z M573.79,125.72c5.7,0,10.69,3.07,13.38,7.66
		c0.17,0.29,0.34,0.59,0.49,0.89h-27.74c0.15-0.3,0.32-0.6,0.49-0.89C563.1,128.79,568.09,125.72,573.79,125.72z M526.95,156.67
		c-8.58,0-15.53-6.95-15.53-15.53s6.95-15.53,15.53-15.53c8.58,0,15.53,6.95,15.53,15.53S535.53,156.67,526.95,156.67z"/>
	<path class="st0" d="M612.96,141.26l0,31.3h15.74v-30.84c0-8.6,6.97-15.57,15.57-15.57c4.16,0,7.92,1.63,10.71,4.28l11.36-11.36
		c-5.65-5.62-13.46-9.11-22.08-9.11C626.98,109.94,612.96,123.97,612.96,141.26z"/>
	<path class="st0" d="M729.11,109.95c-17.29,0-31.31,14.02-31.31,31.31v31.3h15.74v-30.84c0-8.6,6.97-15.57,15.57-15.57
		c4.3,0,8.19,1.74,11.01,4.56c2.82,2.82,4.56,6.71,4.56,11.01v30.84h15.73v-31.3c0-8.64-3.5-16.47-9.17-22.14
		C745.58,113.46,737.75,109.95,729.11,109.95z"/>
	<path class="st0" d="M820.28,164.87c6.59-5.74,10.76-14.19,10.76-23.62c0-17.29-14.01-31.3-31.3-31.3
		c-17.29,0-31.31,14.01-31.31,31.3c0,17.29,14.01,31.3,31.3,31.31v0.39h0.01c8.58,0,15.53,6.95,15.53,15.53
		c0,8.58-6.95,15.53-15.53,15.53c-8.58,0-15.53-6.95-15.53-15.53h-15.78c0,17.29,14.02,31.31,31.31,31.31
		c17.29,0,31.3-14.02,31.3-31.31C831.04,179.05,826.87,170.6,820.28,164.87z M799.74,156.78c-8.58,0-15.53-6.95-15.53-15.53
		s6.95-15.53,15.53-15.53c8.58,0,15.53,6.95,15.53,15.53S808.32,156.78,799.74,156.78z"/>
	<rect x="674.21" y="109.95" class="st0" width="15.73" height="62.61"/>
	<path class="st0" d="M681.95,94.11c0.09-0.69,0.13-1.4,0.13-2.11c0-10.35-8.39-18.74-18.74-18.74c-3.54,0-6.85,0.98-9.68,2.69
		C658.61,86.63,669.41,94.06,681.95,94.11z"/>
	<path class="st0" d="M705.83,83.2c-2.47-2.94-6.18-4.82-10.32-4.82c-7.42,0-13.43,6.01-13.43,13.43c0,0.78,0.07,1.55,0.2,2.3
		C691.7,94.05,700.13,89.83,705.83,83.2z"/>
</g>
</svg>
