<?xml version="1.0" encoding="utf-8"?>
<!-- Generator: Adobe Illustrator 26.0.1, SVG Export Plug-In . SVG Version: 6.00 Build 0)  -->
<svg version="1.1" id="Layer_1" xmlns="http://www.w3.org/2000/svg" xmlns:xlink="http://www.w3.org/1999/xlink" x="0px" y="0px"
	 viewBox="0 0 85 85" style="enable-background:new 0 0 85 85;" xml:space="preserve">
<style type="text/css">
	.st0{fill:#E9E9DF;}
	.st1{fill:#FFFFFF;}
	.st2{fill:#77A03F;}
</style>
<g>
	<path class="st0" d="M83.1,42.9c0,22.4-18.2,40.6-40.6,40.6C20.2,83.5,2,65.3,2,42.9C2,20.5,20.2,2.3,42.6,2.3
		C65,2.3,83.1,20.5,83.1,42.9z"/>
	<polygon class="st1" points="32.7,21.3 32.7,65.3 62.6,42.8 	"/>
	<path class="st2" d="M42.5,0C27.4,0,13.3,8.1,5.7,21.2c-1.4,2.4-2.5,4.9-3.4,7.5c-0.4,1.1,0.2,2.4,1.4,2.8c1.1,0.4,2.4-0.2,2.8-1.4
		c0.8-2.3,1.8-4.6,3.1-6.7c6.8-11.7,19.5-19,33-19c21,0,38.1,17.1,38.1,38.1S63.5,80.7,42.5,80.7c-21,0-38.1-17.1-38.1-38.1
		c0-1.2-1-2.2-2.2-2.2S0,41.3,0,42.5C0,66,19.1,85,42.5,85C66,85,85,66,85,42.5C85,19.1,66,0,42.5,0z M32.9,31.7
		c-1.2,0-2.2,1-2.2,2.2v31.7c0,0.8,0.5,1.6,1.2,2c0.3,0.2,0.6,0.2,1,0.2c0.5,0,0.9-0.2,1.3-0.5l29.8-22.8c0.5-0.4,0.9-1.1,0.9-1.8
		c0-0.7-0.3-1.3-0.9-1.7L34.2,19.5c-1-0.7-2.3-0.5-3.1,0.5c-0.7,1-0.5,2.4,0.5,3.1l27.4,19.8L35.1,61.1V33.9
		C35.1,32.6,34.1,31.7,32.9,31.7z"/>
</g>
</svg>
