<svg width="60" height="60" viewBox="0 0 60 60" fill="none" xmlns="http://www.w3.org/2000/svg">
<path d="M40.2352 7.34116L36.494 1.27057L30.2117 4.44704L23.3646 1.48233L19.4822 7.55292L12.494 8.61175L12.3528 15.8823L7.05872 20.3294L10.7999 26.2588L8.61166 33.3882L15.0352 36.0706L16.7999 43.1294L20.1175 43.0588V58.2353L30.1411 53.647L39.7411 58.3764V43.4117L42.7764 43.9059L44.6822 36.1412L51.1058 33.7412L48.9175 26.7529L53.0117 20.3294L47.5058 15.8823L47.3646 8.61175L40.2352 7.34116Z" fill="#E9E9DF"/>
<path d="M35.3569 36.7583C42.3315 33.8329 45.6141 25.8073 42.6887 18.8327C39.7633 11.858 31.7378 8.57546 24.7631 11.5008C17.7885 14.4262 14.5059 22.4518 17.4313 29.4264C20.3567 36.4011 28.3822 39.6837 35.3569 36.7583Z" fill="white"/>
<path d="M54.0705 19.4824L48.847 15.2471L49.0588 8.54118C49.0588 7.8353 48.5647 7.2706 47.8588 7.20001L41.2235 6.42354L37.7646 0.635301C37.4117 0.0705953 36.6352 -0.141169 35.9999 0.141184L29.9999 3.10589L23.9999 0.141184C23.3647 -0.141169 22.5882 0.0705953 22.2352 0.635301L18.7764 6.42354L12.1411 7.20001C11.4352 7.2706 10.9411 7.90589 10.9411 8.54118L11.1529 15.2471L5.92936 19.4824C5.36465 19.9059 5.29406 20.6824 5.64701 21.2471L9.45877 26.7529L7.34112 33.1059C7.12936 33.7412 7.4823 34.5177 8.11759 34.7294L14.3294 37.3412L16.0235 43.8353C16.1647 44.5412 16.8705 44.9647 17.5764 44.8235L24.2117 43.6941L29.1529 48.2118C29.647 48.7059 30.4235 48.7059 30.9882 48.2118L35.7176 43.8353C36.2823 43.3412 36.2823 42.4941 35.7882 41.9294C35.2941 41.3647 34.447 41.3647 33.8823 41.8588L29.9999 45.3882L25.4823 41.2235C25.1999 40.9412 24.7764 40.8 24.3529 40.8706L18.2823 41.9294L16.7294 36C16.6588 35.5765 16.3058 35.2941 15.9529 35.0824L10.3058 32.6824L12.2117 26.8235C12.3529 26.4 12.2823 25.9765 12.0705 25.6235L8.61171 20.5412L13.3411 16.6588C13.6941 16.3765 13.8352 16.0235 13.8352 15.6L13.6235 9.45883L19.6941 8.75295C20.1176 8.68236 20.4705 8.4706 20.6823 8.11765L23.8588 2.82354L29.3646 5.57648C29.7176 5.78824 30.2117 5.78824 30.5646 5.57648L36.0705 2.82354L39.247 8.11765C39.4588 8.4706 39.8117 8.68236 40.2352 8.75295L46.3058 9.45883L46.0941 15.6C46.0941 16.0235 46.2352 16.4471 46.5882 16.6588L51.3176 20.5412L47.8588 25.6235C47.647 25.9765 47.5764 26.4 47.7176 26.8235L49.6235 32.6824L43.9764 35.0824C43.6235 35.2235 43.2705 35.5765 43.1999 36L41.647 41.9294L40.1646 41.6471C39.8117 41.5765 39.3882 41.7177 39.1058 41.9294C38.8235 42.1412 38.6117 42.5647 38.6117 42.9177V56.4L30.5646 52.5177C30.2117 52.3059 29.7882 52.3059 29.4352 52.5177L21.3882 56.4V48.6353C21.3882 47.9294 20.8235 47.2941 20.047 47.2941C19.3411 47.2941 18.7058 47.8588 18.7058 48.6353V58.6588C18.7058 59.1529 18.9176 59.5765 19.3411 59.7882C19.5529 59.9294 19.8352 60 20.047 60C20.2588 60 20.4705 59.9294 20.6117 59.8588L29.9999 55.3412L39.3882 59.8588C39.8117 60.0706 40.3058 60 40.6588 59.7882C41.0823 59.5059 41.2941 59.0824 41.2941 58.6588V44.6824L42.4941 44.8941C43.1999 45.0353 43.8352 44.6118 44.047 43.9059L45.7411 37.4118L51.9529 34.8C52.5882 34.5177 52.9411 33.8118 52.7294 33.1765L50.6117 26.8235L54.4235 21.3177C54.7058 20.6824 54.6352 19.9059 54.0705 19.4824ZM29.9999 36.5647C23.2235 36.5647 17.7882 31.0588 17.7882 24.3529C17.7882 23.6471 17.2235 23.0118 16.447 23.0118C15.7411 23.0118 15.1058 23.5765 15.1058 24.3529C15.1058 32.6118 21.8117 39.2471 29.9999 39.2471C38.2588 39.2471 44.8941 32.5412 44.8941 24.3529C44.8941 16.0941 38.1882 9.45883 29.9999 9.45883C24.7764 9.45883 20.047 12.1412 17.2941 16.5177C16.9411 17.1529 17.0823 18 17.7176 18.3529C18.3529 18.7059 19.1999 18.5647 19.5529 17.9294C21.8117 14.2588 25.6941 12.1412 29.9999 12.1412C36.7764 12.1412 42.2117 17.6471 42.2117 24.3529C42.2823 31.0588 36.7764 36.5647 29.9999 36.5647Z" fill="#77A03F"/>
</svg>
