<svg width="30" height="30" viewBox="0 0 30 30" fill="none" xmlns="http://www.w3.org/2000/svg">
<g clip-path="url(#clip0_1095_7)">
<path d="M14.9294 0.599976C8.8235 0.599976 3.88232 5.54115 3.88232 11.6117C3.88232 14.4353 4.94115 17.0117 6.67056 18.9529C8.68232 21.2117 15 28.9059 15 28.9059C15 28.9059 22.0588 20.7529 24.0353 17.7882C25.2353 16.0235 25.9059 13.9059 25.9059 11.6117C25.9411 5.54115 21 0.599976 14.9294 0.599976ZM15.0353 17.4C11.8588 17.4 9.28232 14.8235 9.28232 11.647C9.28232 8.47056 11.8588 5.89409 15.0353 5.89409C18.2117 5.89409 20.7882 8.47056 20.7882 11.647C20.7529 14.8235 18.2117 17.4 15.0353 17.4Z" fill="url(#paint0_linear_1095_7)"/>
<path d="M15 30.0352C14.7882 30.0352 14.6118 29.9294 14.5059 29.7882L5.85884 19.1294L5.82354 19.0941C4.16472 17.0117 3.24707 14.4 3.24707 11.7529C3.24707 11.4 3.52942 11.1176 3.88236 11.1176C4.23531 11.1176 4.51766 11.4 4.51766 11.7529C4.51766 14.1529 5.32942 16.447 6.84707 18.3176L6.88236 18.3529L15 28.3411L23.1177 18.3529C23.1177 18.3529 23.1177 18.3176 23.153 18.3176C24.6706 16.447 25.4824 14.1529 25.4824 11.7529C25.4824 5.99995 20.7882 1.30584 15.0353 1.30584C11.753 1.30584 8.71766 2.82348 6.70589 5.47054C5.75295 6.70584 5.32942 7.62348 5.15295 8.22348C5.04707 8.57643 4.65884 8.7529 4.34119 8.64701C3.98825 8.54113 3.81178 8.1529 3.91766 7.83525C4.23531 6.88231 4.83531 5.78819 5.68236 4.72937C7.90589 1.69407 11.3294 -0.0353394 15 -0.0353394C21.4941 -0.0353394 26.753 5.22348 26.753 11.7176C26.753 14.3647 25.8353 16.9764 24.1765 19.0588L24.1412 19.0941L15.4941 29.7882C15.3882 29.9294 15.2118 30.0352 15 30.0352Z" fill="#77A03F"/>
<path d="M15.0001 18.1058C11.4706 18.1058 8.61182 15.247 8.61182 11.7176C8.61182 11.3647 8.89417 11.0823 9.24711 11.0823C9.60005 11.0823 9.8824 11.3647 9.8824 11.7176C9.8824 14.5058 12.1765 16.7999 14.9648 16.7999C17.753 16.7999 20.0471 14.5058 20.0471 11.7176C20.0471 8.92936 17.753 6.63524 14.9648 6.63524C13.2353 6.63524 11.6471 7.5176 10.6942 8.96466C10.4824 9.2823 10.0942 9.35289 9.77652 9.14113C9.45888 8.92936 9.38829 8.54113 9.60005 8.22348C10.8001 6.38818 12.7765 5.29407 14.9648 5.29407C18.4942 5.29407 21.353 8.15289 21.353 11.6823C21.3883 15.247 18.5295 18.1058 15.0001 18.1058Z" fill="#77A03F"/>
</g>
<defs>
<linearGradient id="paint0_linear_1095_7" x1="6.11979" y1="3.60474" x2="23.6259" y2="21.1108" gradientUnits="userSpaceOnUse">
<stop stop-color="white"/>
<stop offset="0.4136" stop-color="white"/>
<stop offset="1" stop-color="#F7F7F5"/>
</linearGradient>
<clipPath id="clip0_1095_7">
<rect width="30" height="30" fill="white"/>
</clipPath>
</defs>
</svg>
