<svg width="60" height="60" viewBox="0 0 60 60" fill="none" xmlns="http://www.w3.org/2000/svg">
<path d="M58.2353 26.4708C58.2353 39.8826 45.6 50.7532 29.9294 50.7532C29.2235 50.7532 28.4471 50.7532 27.7412 50.6826C25.2 50.5414 17.0824 57.7414 14.8235 57.0355C12.3529 56.2591 15.7412 47.5767 13.6941 46.3767C6.35295 41.9296 1.62354 34.6591 1.62354 26.4708C1.62354 13.0591 14.2588 2.18848 29.9294 2.18848C45.6 2.18848 58.2353 13.0591 58.2353 26.4708Z" fill="white"/>
<path d="M23.9294 30.0001C23.9294 29.0825 23.2235 28.3766 22.3059 28.3766C21.3882 28.3766 20.6824 29.0825 20.6824 30.0001C20.6824 30.9178 21.3882 31.6236 22.3059 31.6236C23.2235 31.553 23.9294 30.8472 23.9294 30.0001ZM29.7176 31.553C30.6353 31.553 31.3412 30.8472 31.3412 29.9295C31.3412 29.0119 30.6353 28.306 29.7176 28.306C28.8 28.306 28.0941 29.0119 28.0941 29.9295C28.0941 30.8472 28.8706 31.553 29.7176 31.553ZM38.7529 30.0001C38.7529 29.0825 38.0471 28.3766 37.1294 28.3766C36.2118 28.3766 35.5059 29.0825 35.5059 30.0001C35.5059 30.9178 36.2118 31.6236 37.1294 31.6236C38.0471 31.553 38.7529 30.8472 38.7529 30.0001ZM30 0.847168C19.4118 0.847168 9.45882 5.64717 4.09412 13.4825C3.10588 14.8942 2.25882 16.4472 1.62353 18.0001C1.27059 18.7766 1.69412 19.6942 2.47059 20.0472C3.24706 20.4001 4.16471 19.9766 4.51765 19.2001C5.08235 17.8589 5.78824 16.5178 6.63529 15.2472C11.4353 8.25893 20.4 3.95305 30 3.95305C44.8235 3.95305 56.8941 13.9766 56.8941 26.4001C56.8941 38.753 44.8235 48.8472 30 48.8472C29.7176 48.8472 29.4353 48.8472 29.1529 48.8472C28.8706 48.8472 28.6588 48.9178 28.4471 48.9883L15.4588 55.2707V46.2354C15.4588 45.6707 15.1765 45.1766 14.6824 44.8942C7.41176 40.5883 3.10588 33.7413 3.10588 26.3295C3.10588 25.4825 2.4 24.7766 1.55294 24.7766C0.705882 24.7766 0 25.4825 0 26.3295C0 34.5883 4.58824 42.2119 12.3529 47.0119V57.6707C12.3529 58.2354 12.6353 58.7295 13.0588 59.0119C13.3412 59.153 13.6235 59.2236 13.9059 59.2236C14.1176 59.2236 14.4 59.153 14.6118 59.0825L29.5059 51.8825C29.7176 51.8825 29.8588 51.8825 30.0706 51.8825C46.5882 51.8825 60 40.3766 60 26.3295C60 12.2825 46.5882 0.847168 30 0.847168Z" fill="#77A03F"/>
</svg>
