<?xml version="1.0" encoding="utf-8"?>
<!-- Generator: Adobe Illustrator 26.0.1, SVG Export Plug-In . SVG Version: 6.00 Build 0)  -->
<svg version="1.1" id="Layer_1" xmlns="http://www.w3.org/2000/svg" xmlns:xlink="http://www.w3.org/1999/xlink" x="0px" y="0px"
	 viewBox="0 0 85 85" style="enable-background:new 0 0 85 85;" xml:space="preserve">
<style type="text/css">
	.st0{fill:#E9E9DF;}
	.st1{fill:#FFFFFF;}
	.st2{fill:#77A03F;}
</style>
<g>
	<path class="st0" d="M24.6,34.3l0.5-10.9c0,0,6.9-2.5,18.3-2.5c11.4,0,16.7,3.1,16.7,3.1l-0.8,9.8L71.1,42l11.8-12.6
		c0,0-8.1-20.5-41.5-20.5S1.9,26.5,1.9,26.5s-0.3,4.7,1.6,7.3s9,7.7,9,7.7L24.6,34.3z M73.9,58.5c-5.3-4.4-21.3-21.1-21.3-21.1
		l-20.3-0.5l-6.2,6.2c0,0-16.5,16.5-17.7,17.9C7.2,62.5,7,75.4,7,75.4h70.2C77.2,75.4,79.2,62.9,73.9,58.5z"/>
	<path class="st1" d="M54.3,55.7c0,6.7-5.4,12.2-12.2,12.2c-6.7,0-12.2-5.4-12.2-12.2c0-6.7,5.4-12.2,12.2-12.2
		C48.8,43.5,54.3,49,54.3,55.7z"/>
	<path class="st2" d="M42.1,65.7c-5.5,0-10-4.5-10-10c0-1.2-0.9-2.1-2.1-2.1c-1.2,0-2.1,0.9-2.1,2.1C28,63.6,34.3,70,42.1,70
		c7.8,0,14.2-6.4,14.2-14.2c0-7.8-6.4-14.2-14.2-14.2c-5,0-9.8,2.7-12.3,7.1c-0.6,1-0.2,2.3,0.8,2.9c1,0.6,2.3,0.2,2.9-0.8
		c1.8-3.1,5.1-5,8.6-5c5.5,0,10,4.5,10,10C52.1,61.3,47.6,65.7,42.1,65.7z M83.9,24.9C73,8.9,51.3,7.1,42.4,7.1h-0.3
		C33,7.1,10.9,8.9,0.3,25C-0.3,26,0,27.3,1,27.9c1,0.6,2.3,0.4,2.9-0.6c9.5-14.4,29.8-16,38.2-16h0.3c8.2,0,28.2,1.6,38,16
		c0.6,0.9,0.8,3.4-1.1,5.2l-5.8,5.8c-1.9,1.9-3.3,1-3.8,0.7c-1.7-1.1-3.3-2.2-4.6-3.1c-0.8-0.6-1.6-1.1-2.1-1.4
		c-1.6-1.1-1.5-2.4-1.5-2.8c0.1-1.2,0.3-2.3,0.4-3.3c0.1-1,0.2-1.7,0.3-2.3c0.1-2-1.2-6.2-7.3-7.3c-3.3-0.6-22.2-0.6-25.5,0
		C23.2,19.8,21.9,24,22,26c0,0.6,0.1,1.3,0.3,2.3c0.1,1,0.3,2.2,0.4,3.4c0,0.4,0.2,1.7-1.5,2.8c-0.5,0.4-1.3,0.9-2.1,1.4
		c-1.3,0.9-2.9,2-4.6,3.1c-0.5,0.3-1.8,1.2-3.7-0.7l-5.8-5.8c-0.8-0.8-2.2-0.8-3,0c-0.8,0.8-0.8,2.2,0,3l5.9,5.8
		c1.6,1.6,3.4,2.3,5.3,2.3c1.3,0,2.5-0.4,3.7-1.1c1.8-1.1,3.4-2.3,4.7-3.2c0.8-0.6,1.5-1,2-1.4c2.4-1.6,3.6-4,3.4-6.7
		c-0.1-1.3-0.3-2.5-0.4-3.5c-0.1-0.8-0.2-1.5-0.2-2c0,0,0-2.2,3.9-2.8c2.8-0.5,21.2-0.5,24,0c3.8,0.7,3.9,2.8,3.9,2.8
		c0,0.4-0.1,1.2-0.2,2c-0.1,1-0.3,2.2-0.4,3.5c-0.3,2.7,1,5.2,3.4,6.7c0.5,0.3,1.2,0.8,2,1.4c1.3,0.9,3,2.1,4.8,3.2
		c2.9,1.9,6.3,1.4,9-1.2l5.8-5.8C85.6,32.3,85.7,27.5,83.9,24.9z M73.2,55L57.6,39.4c-1.6-1.6-2.7-2.7-3.4-3.4v-5.9
		c0-1.2-0.9-2.1-2.1-2.1l0,0c-1.2,0-2.1,0.9-2.1,2.1v4.6H34.3v-4.6c0-1.2-0.9-2.1-2.1-2.1h0c-1.2,0-2.1,0.9-2.1,2.1l0,6.7
		c0,0.6,0.2,1.1,0.6,1.5c0.4,0.4,0.9,0.6,1.5,0.6h19l18.2,18.2l0.8,0.8c3.2,3.2,5.2,5.1,5.2,11.4v4.2H8.9v-4.2c0-6.3,2-8.2,5.2-11.4
		l13.4-13.4c0.8-0.8,0.8-2.2,0-3c-0.8-0.8-2.2-0.8-3,0L11.9,54.2L11.1,55c-3.5,3.4-6.5,6.4-6.5,14.4v6.4c0,1.2,0.9,2.1,2.1,2.1
		c0.2,0,0.4,0,0.6-0.1h69.5c0.2,0.1,0.4,0.1,0.6,0.1c1.2,0,2.1-0.9,2.1-2.1v-6.4C79.6,61.4,76.6,58.4,73.2,55z"/>
</g>
</svg>
