<svg width="60" height="60" viewBox="0 0 60 60" fill="none" xmlns="http://www.w3.org/2000/svg">
<path d="M1.62353 55.7647C1.62353 55.7647 1.20001 49.7647 3.0353 45.7412C4.87059 41.7177 6.56471 38.7529 22.3765 35.0118C22.7294 31.0588 23.2235 30.7765 21.9529 29.6471C20.6118 28.5882 16.0235 20.6824 15.6 18.4235C15.1765 16.1647 17.7882 13.9765 18 12C18.2118 10.0235 20.1882 1.48236 29.7882 1.48236C39.3882 1.48236 40.9412 11.2235 41.7177 13.0588C42.4941 14.8941 44.7529 17.5059 42.1412 22.2353C39.5294 26.8941 37.3412 29.7177 36.9177 31.0588C36.4941 32.4 35.3647 34.8 40.3059 35.8588C45.2471 36.9177 53.8588 39.1059 56.0471 45.4588C58.2353 51.8118 57.8824 55.2 57.8824 55.2C57.8824 55.2 48.2824 58.5882 30.3529 58.5882C12.4235 58.5882 1.62353 55.7647 1.62353 55.7647Z" fill="#E9E9DF"/>
<path d="M29.5765 60C18.5647 60 5.36474 59.0118 1.4118 57.1059C0.705913 56.7529 0.42356 55.9059 0.776501 55.1294C1.12944 54.4235 1.9765 54.1412 2.75297 54.4941C5.78827 55.9765 17.5765 57.1765 29.5765 57.1765C43.9059 57.1765 54.5647 55.6235 56.5412 54.4941C56.4706 50.9647 55.2 46.7294 54.0706 44.3294C52.2353 40.6588 46.5177 39.1765 40.4471 37.6235C39.1059 37.2706 37.6942 36.9176 36.353 36.5647C36.2824 36.5647 36.1412 36.4941 36.0706 36.4235C35.2236 36 35.0118 35.0118 34.9412 34.2353C34.9412 34.1647 34.5883 30.4235 35.7883 29.3647C38.1883 27.1765 38.4 26.8235 40.0236 22.2353C40.1647 21.8824 40.3765 21.6 40.6589 21.4588C41.8589 20.7529 42.4236 19.0588 42.4942 17.8588C42.5647 16.2353 42.2118 15.6706 42.0706 15.5294C41.6471 15.6706 41.153 15.6706 40.8 15.3882C40.3765 15.1059 40.0942 14.6824 40.0942 14.1882C39.953 4.8 33.7412 3.17647 30.0706 3.03529C29.9294 3.03529 29.2941 3.03529 29.153 3.03529C25.4824 3.17647 19.2706 4.72941 19.1294 14.1882C19.1294 14.6824 18.8471 15.1765 18.4236 15.3882C18 15.6 17.5765 15.6706 17.153 15.5294C17.0118 15.6706 16.6589 16.3059 16.7294 17.8588C16.8 19.1294 17.3647 20.7529 18.5647 21.4588C18.8471 21.6 19.1294 21.8824 19.2 22.2353C20.8236 26.8235 21.0353 27.1765 23.4353 29.3647C23.7177 29.5765 24.2824 30.1412 24.353 32.7529C24.4236 34.8706 24.0706 36 23.153 36.4235C23.0824 36.4941 22.9412 36.4941 22.8706 36.5647C21.5294 36.9176 20.1177 37.2706 18.7765 37.6235C12.7059 39.1765 6.98827 40.6588 5.15297 44.3294C4.72944 45.1059 3.88238 47.5765 3.52944 48.9177C3.31768 49.6941 2.47062 50.1176 1.69415 49.9059C0.84709 49.5529 0.42356 48.7059 0.635325 48C0.988266 46.8 1.90591 44.1176 2.47062 42.9882C4.87062 38.0471 11.2236 36.4235 18 34.7294C19.0589 34.4471 20.1883 34.1647 21.3177 33.8824C21.3177 33.6 21.3883 33.2471 21.3177 32.7529C21.3177 32.0471 21.2471 31.5529 21.1765 31.2706C18.5647 28.8706 18.0706 27.9529 16.5883 23.5765C14.2589 21.8824 13.8353 18.8471 13.7647 17.9294C13.553 14.8941 14.6118 13.5529 15.5294 12.9176C15.7412 12.7765 16.0236 12.6353 16.2353 12.5647C16.8706 4.87059 21.6 0.211765 29.0824 0C29.2942 0 29.9294 0 30.1412 0C37.553 0.211765 42.2824 4.94118 42.9177 12.5647C43.1294 12.6353 43.4118 12.7765 43.6236 12.9176C44.5412 13.4824 45.6 14.8941 45.3883 17.9294C45.3177 18.8471 44.9647 21.8824 42.5647 23.5765C41.0118 27.8824 40.5177 28.8706 37.9059 31.2706C37.7647 31.8353 37.6942 33.1059 37.7647 33.8824C38.8941 34.1647 40.0236 34.4471 41.0824 34.7294C47.8589 36.4235 54.2118 38.1176 56.6118 42.9882C57.953 45.8118 59.3647 50.7529 59.3647 54.8471C59.3647 56.6118 57.6706 57.8824 49.2 58.9412C43.8353 59.6471 36.6353 60 29.5765 60Z" fill="#77A03F"/>
</svg>
