<svg width="60" height="60" viewBox="0 0 60 60" fill="none" xmlns="http://www.w3.org/2000/svg">
<path d="M30.0706 48.353C40.3236 48.353 48.6353 40.0413 48.6353 29.7883C48.6353 19.5353 40.3236 11.2236 30.0706 11.2236C19.8176 11.2236 11.5059 19.5353 11.5059 29.7883C11.5059 40.0413 19.8176 48.353 30.0706 48.353Z" fill="#E9E9DF"/>
<path d="M29.8588 10.1647C22.8706 10.1647 16.3059 13.9059 12.7765 19.9765C12.1412 21.1059 11.5765 22.2353 11.2235 23.4353C11.0118 24.1412 11.3647 24.8471 12 25.0588C12.7059 25.2706 13.4118 24.9176 13.6235 24.2824C13.9765 23.2235 14.4706 22.2353 14.9647 21.2471C18 15.9529 23.7176 12.7059 29.7882 12.7059C39.2471 12.7059 46.8706 20.4 46.8706 29.7882C46.8706 39.2471 39.1765 46.8706 29.7882 46.8706C20.3294 46.8706 12.7059 39.1765 12.7059 29.7882C12.7059 29.0824 12.1412 28.5176 11.4353 28.5176C10.7294 28.5176 10.1647 29.0824 10.1647 29.7882C10.1647 40.6588 18.9882 49.4824 29.8588 49.4824C40.7294 49.4824 49.5529 40.6588 49.5529 29.7882C49.6235 19.0588 40.7294 10.1647 29.8588 10.1647ZM6.84706 28.7294H1.27059C0.564706 28.7294 0 29.2941 0 30.0706C0 30.7765 0.564706 31.3412 1.27059 31.3412H6.77647C7.48235 31.3412 8.04706 30.7765 8.04706 30.0706C8.11765 29.2941 7.55294 28.7294 6.84706 28.7294ZM58.7294 28.7294H53.2235C52.5177 28.7294 51.8824 29.2941 51.8824 30.0706C51.8824 30.7765 52.4471 31.3412 53.2235 31.3412H58.7294C59.4353 31.3412 60 30.7765 60 30.0706C60 29.2941 59.4353 28.7294 58.7294 28.7294ZM30 51.8824C29.2941 51.8824 28.7294 52.4471 28.7294 53.1529V58.6588C28.7294 59.3647 29.2941 59.9294 30 59.9294C30.7059 59.9294 31.2706 59.3647 31.2706 58.6588V53.1529C31.3412 52.4471 30.7059 51.8824 30 51.8824ZM30 8.11765C30.7059 8.11765 31.2706 7.55294 31.2706 6.84706V1.27059C31.2706 0.564706 30.7059 0 30 0C29.2941 0 28.7294 0.564706 28.7294 1.27059V6.77647C28.7294 7.55294 29.2941 8.11765 30 8.11765ZM12.7059 14.5412C12.9882 14.8235 13.2706 14.8941 13.6235 14.8941C13.9765 14.8941 14.2588 14.7529 14.5412 14.5412C15.0353 14.0471 15.0353 13.2 14.5412 12.7059L10.6588 8.82353C10.1647 8.32941 9.31765 8.32941 8.82353 8.82353C8.32941 9.31765 8.32941 10.1647 8.82353 10.6588L12.7059 14.5412ZM47.2941 45.4588C46.8 44.9647 45.9529 44.9647 45.4588 45.4588C44.9647 45.9529 44.9647 46.8 45.4588 47.2941L49.3412 51.1765C49.6235 51.4588 49.9059 51.5294 50.2588 51.5294C50.6118 51.5294 50.8941 51.3882 51.1765 51.1765C51.6706 50.6824 51.6706 49.8353 51.1765 49.3412L47.2941 45.4588ZM12.7059 45.4588L8.82353 49.4118C8.32941 49.9059 8.32941 50.7529 8.82353 51.2471C9.10588 51.5294 9.38824 51.6 9.74118 51.6C10.0941 51.6 10.3765 51.4588 10.6588 51.2471L14.5412 47.3647C15.0353 46.8706 15.0353 46.0235 14.5412 45.5294C14.0471 44.9647 13.2 44.9647 12.7059 45.4588ZM49.4118 8.82353L45.4588 12.7059C44.9647 13.2 44.9647 14.0471 45.4588 14.5412C45.7412 14.8235 46.0235 14.8941 46.3765 14.8941C46.7294 14.8941 47.0118 14.7529 47.2941 14.5412L51.1765 10.6588C51.6706 10.1647 51.6706 9.31765 51.1765 8.82353C50.7529 8.25882 49.9059 8.25882 49.4118 8.82353Z" fill="#77A03F"/>
</svg>
