<svg width="60" height="60" viewBox="0 0 60 60" fill="none" xmlns="http://www.w3.org/2000/svg">
<path d="M58.6588 29.2235C58.6588 45.0353 45.8118 57.8823 30 57.8823C14.1882 57.8823 1.34119 45.0353 1.34119 29.2235C1.34119 13.4118 14.1882 0.564697 30 0.564697C45.8118 0.564697 58.6588 13.4118 58.6588 29.2235Z" fill="#E9E9DF"/>
<path d="M58.4471 28.4471C57.6 28.4471 56.8941 29.1529 56.8941 30C56.8941 44.8235 44.8235 56.8941 30 56.8941C15.1765 56.8941 3.10588 44.8235 3.10588 30C3.10588 15.1765 15.1765 3.10588 30 3.10588C38.8235 3.10588 47.1529 7.48235 52.1647 14.7529H41.2941C40.4471 14.7529 39.7412 15.4588 39.7412 16.3059C39.7412 17.1529 40.4471 17.8588 41.2941 17.8588H55.9059C56.7529 17.8588 57.4588 17.1529 57.4588 16.3059V1.62353C57.4588 0.776471 56.7529 0.0705882 55.9059 0.0705882C55.0588 0.0705882 54.3529 0.776471 54.3529 1.62353V12.5647C48.7765 4.72941 39.7412 0 30 0C13.4824 0 0 13.4824 0 30C0 46.5882 13.4824 60 30 60C46.5882 60 60 46.5882 60 30C60 29.1529 59.3647 28.4471 58.4471 28.4471Z" fill="#77A03F"/>
</svg>
