<svg width="60" height="60" viewBox="0 0 60 60" fill="none" xmlns="http://www.w3.org/2000/svg">
<path d="M29.9294 53.9998C29.9294 53.9998 56.9647 32.4704 58.3059 24.9881C59.5765 17.5057 55.3412 5.85866 43.3412 5.92925C31.3412 5.99984 29.8588 14.1175 29.8588 14.1175C29.8588 14.1175 24.4941 5.29395 16.4471 5.78807C8.4706 6.28219 1.34119 12.7763 1.34119 21.5292C1.34119 30.2822 7.20001 33.3175 11.2235 37.0587C15.1765 40.7998 29.9294 53.9998 29.9294 53.9998Z" fill="#E9E9DF"/>
<path d="M30 55.341C29.6471 55.341 29.3647 55.1999 29.0824 54.9881L5.15294 33.4587C5.01177 33.3175 4.94118 33.1763 4.87059 33.0352C4.16471 32.3293 3.52941 31.5528 2.96471 30.7057C2.54118 30.0705 2.68235 29.2234 3.31765 28.7293C3.95294 28.3057 4.8 28.4469 5.29412 29.0822C5.85882 29.8587 6.49412 30.6352 7.2 31.2705C7.27059 31.341 7.41177 31.4822 7.48235 31.6234L30.1412 52.0234L52.8 31.6234C52.8706 31.4822 52.9412 31.4116 53.0824 31.2705C55.8353 28.5881 57.3882 25.0587 57.3882 21.2469C57.3882 13.6234 51.1765 7.41163 43.5529 7.41163C38.5412 7.41163 33.8824 10.1646 31.4118 14.541C31.1294 14.9646 30.7059 15.2469 30.2118 15.2469C29.7176 15.2469 29.2235 14.9646 29.0118 14.541C26.5412 10.094 21.9529 7.41163 16.8706 7.41163C9.03529 7.48222 2.82353 13.694 2.82353 21.3175C2.82353 22.094 2.18824 22.7293 1.41176 22.7293C0.635294 22.7293 0 22.094 0 21.3175C0 12.141 7.48235 4.65869 16.6588 4.65869C21.9529 4.65869 26.8941 7.19987 30 11.3646C33.1059 7.19987 38.0471 4.65869 43.3412 4.65869C52.5177 4.65869 60 12.141 60 21.3175C60 25.7646 58.3059 29.8587 55.2 33.0352C55.1294 33.1763 54.9882 33.3175 54.9177 33.4587L30.9176 54.9881C30.7059 55.2705 30.3529 55.341 30 55.341Z" fill="#77A03F"/>
</svg>
