<svg width="60" height="60" viewBox="0 0 60 60" fill="none" xmlns="http://www.w3.org/2000/svg">
<g clip-path="url(#clip0_736_245)">
<path d="M10.8 10.4471L9.59998 34.5883H23.5059L20.6823 58.3765L50.1882 22.7295H35.3647L40.6588 1.6236L11.4353 1.48242L10.8 10.4471Z" fill="#E9E9DF"/>
<path d="M20.6117 60C20.4 60 20.2588 59.9294 20.047 59.8589C19.4823 59.6471 19.1294 59.0118 19.2 58.4471L22.1647 36.1412H9.45877C9.10583 36.1412 8.6823 36 8.47054 35.7177C8.18819 35.4353 8.04701 35.0824 8.1176 34.6589L9.45877 10.2353C9.52936 9.45886 10.1647 8.89415 10.9411 8.96474C11.7176 9.03533 12.2823 9.67062 12.2117 10.4471L10.9411 33.3883H23.7176C24.1411 33.3883 24.4941 33.5294 24.7764 33.8824C25.0588 34.1647 25.1294 34.5883 25.1294 34.9412L22.5882 54.0706L47.5058 24.0706H35.2941C34.8705 24.0706 34.447 23.8589 34.2352 23.5059C33.9529 23.153 33.8823 22.7294 34.0235 22.3059L38.9647 2.68238H11.5764C10.8 2.68238 10.1647 2.04709 10.1647 1.27062C10.1647 0.494149 10.8 -0.0705566 11.5764 -0.0705566H40.6588C41.0823 -0.0705566 41.5058 0.141208 41.7176 0.494149C42 0.84709 42.0705 1.27062 41.9294 1.69415L36.9882 21.3177H50.3294C50.8941 21.3177 51.3176 21.6 51.5999 22.0941C51.8117 22.5883 51.7411 23.153 51.3882 23.5765L21.6705 59.5059C21.4588 59.8589 21.0352 60 20.6117 60Z" fill="#77A03F"/>
</g>
<defs>
<clipPath id="clip0_736_245">
<rect width="60" height="60" fill="white"/>
</clipPath>
</defs>
</svg>
