<svg width="60" height="60" viewBox="0 0 60 60" fill="none" xmlns="http://www.w3.org/2000/svg">
<g clip-path="url(#clip0_736_240)">
<path d="M16.5883 24.8471C16.5883 24.8471 20.2588 23.6471 24.353 16.0941C28.4471 8.54118 31.6941 2.4 33.953 1.8353C36.2118 1.27059 40.6588 1.62353 40.0941 7.12942C39.5294 12.6353 38.0471 19.9765 38.0471 19.9765C38.0471 19.9765 48.4941 19.9765 51.1059 19.9765C53.7177 19.9765 56.8236 21.6706 56.4 28.3765C55.9765 35.0824 53.7883 52.3059 53.0824 54.7059C52.3765 57.1059 49.8353 58.6588 44.2588 58.6588C38.6824 58.6588 31.6236 58.6588 29.3647 58.6588C27.1059 58.6588 21.953 57.0353 16.9412 53.9294C16.9412 42.4941 16.5883 24.8471 16.5883 24.8471Z" fill="#E9E9DF"/>
<path d="M9.88237 23.0823C6.0706 23.0823 3.1059 23.9293 3.1059 27.4587C3.1059 30.9882 3.1059 50.8235 3.1059 53.0823C3.1059 55.3411 4.23531 57.8823 10.2353 57.8823C16.2353 57.8823 16.8 54.847 16.8 52.5176C16.8 50.1882 16.8 28.8705 16.8 27.0352C16.8 25.1999 15.6706 23.0823 9.88237 23.0823Z" fill="#E9E9DF"/>
<path d="M11.5765 31.553C11.5765 30.7059 10.8706 30.0706 10.0941 30.0706C9.24706 30.0706 8.61177 30.7765 8.61177 31.553C8.61177 32.4 9.31765 33.0353 10.0941 33.0353C10.8706 33.1059 11.5765 32.4 11.5765 31.553ZM56.6118 20.8236C55.3412 19.4824 53.5059 18.7765 50.8235 18.7765H39.3882C39.8118 16.4471 40.5882 11.9294 41.2235 7.12944C41.4353 5.29415 41.5765 3.03533 40.2353 1.55297C38.9647 0.141208 36.9177 -0.0705566 35.5059 -0.0705566C32.1882 -0.0705566 30.9882 2.11768 28.5177 6.35297C28.0235 7.20003 27.4588 8.18827 26.8235 9.31768L26.4 10.0941C23.8588 14.4 22.3059 17.0118 20.1882 20.3294C19.2 21.8824 18.2118 22.8706 17.0118 23.3647C15.9529 22.0941 14.4 21.3177 12.7059 21.3177H7.48236C4.37647 21.3177 1.8353 23.8589 1.8353 27.0353C1.8353 27.8118 2.47059 28.5177 3.31765 28.5177C4.09412 28.5177 4.8 27.8824 4.8 27.0353C4.8 25.4824 6.07059 24.2118 7.55294 24.2118H12.7059C14.2588 24.2118 15.4588 25.4824 15.4588 27.0353V53.4353C15.4588 54.9883 14.1882 56.2589 12.7059 56.2589H7.48236C5.92942 56.2589 4.72942 54.9883 4.72942 53.4353V35.9294C4.72942 35.153 4.09412 34.4471 3.24706 34.4471C2.47059 34.4471 1.76471 35.0824 1.76471 35.9294V53.5059C1.76471 56.6824 4.30589 59.2236 7.41177 59.2236H12.7059C15.8118 59.2236 18.3529 56.6118 18.3529 53.5059V27.1765C18.3529 26.8236 18.2824 26.4706 18.2824 26.1177C19.9765 25.3412 21.3882 24 22.6588 21.953C24.7765 18.6353 26.3294 16.0236 28.8706 11.6471L29.2941 10.8706C29.9294 9.74121 30.4941 8.75297 31.0588 7.83533C33.5294 3.52944 34.0235 2.89415 35.5059 2.89415C36.8471 2.89415 37.6941 3.10591 38.0471 3.52944C38.4706 4.02356 38.5412 5.08239 38.3294 6.7765C37.4118 13.6941 36.2118 19.9059 36.2118 19.9765C36.1412 20.4 36.2118 20.8236 36.4941 21.1765C36.7765 21.5294 37.2 21.6706 37.6235 21.6706H50.8235C52.5882 21.6706 53.7882 22.0236 54.4235 22.7294C55.1294 23.5059 55.4118 24.9883 55.2 27.0353C54.9882 30.353 53.5059 44.3294 52.3765 52.2353C51.7412 56.6824 49.9765 57.1059 44.9647 57.1059H30.5647C27.9529 57.1059 26.3294 56.8236 24.8471 56.0471C24.1412 55.6941 23.2235 55.9765 22.8706 56.6824C22.5177 57.3883 22.8 58.3059 23.5059 58.6589C25.9059 59.8589 28.3765 60 30.5647 60H44.9647C49.2706 60 54.2118 60 55.2706 52.6589C56.4 44.6824 57.8824 30.6353 58.1647 27.3883C58.4471 24.4236 57.9529 22.3059 56.6118 20.8236Z" fill="#77A03F"/>
</g>
<defs>
<clipPath id="clip0_736_240">
<rect width="60" height="60" fill="white"/>
</clipPath>
</defs>
</svg>
