<svg width="60" height="60" viewBox="0 0 60 60" fill="none" xmlns="http://www.w3.org/2000/svg">
<g clip-path="url(#clip0_736_253)">
<path d="M54.2117 52.2353C54.2117 55.6942 51.3882 58.5177 47.9294 58.5177H12.7764C9.31761 58.5177 6.49408 55.6942 6.49408 52.2353V13.8353C6.49408 10.3765 9.31761 7.55298 12.7764 7.55298H22.2353H37.7647H47.9294C51.3882 7.55298 54.2117 10.3765 54.2117 13.8353V52.2353Z" fill="#E9E9DF"/>
<path d="M37.0588 2.25879H22.6588V7.97644H37.0588V2.25879Z" fill="#E9E9DF"/>
<path d="M47.1529 6.63529H39.247V5.01176C39.247 2.25882 36.9882 0 34.2353 0H25.8353C23.0823 0 20.8235 2.25882 20.8235 5.01176V6.56471H12.847C8.39999 6.56471 4.79999 10.1647 4.79999 14.6118C4.79999 15.4588 5.43528 16.0941 6.28234 16.0941C7.1294 16.0941 7.76469 15.4588 7.76469 14.6118C7.76469 11.7882 10.0235 9.52941 12.847 9.52941H47.1529C49.9765 9.52941 52.2353 11.7882 52.2353 14.6118V51.9529C52.2353 54.7765 49.9765 57.0353 47.1529 57.0353H12.847C10.0235 57.0353 7.76469 54.7765 7.76469 51.9529V24.9176C7.76469 24.0706 7.1294 23.4353 6.28234 23.4353C5.43528 23.4353 4.79999 24.0706 4.79999 24.9176V52.0235C4.79999 56.4706 8.39999 60.0706 12.847 60.0706H47.1529C51.6 60.0706 55.2 56.4706 55.2 52.0235V14.6118C55.2 10.2353 51.6 6.63529 47.1529 6.63529ZM36.2823 6.63529H23.7176V5.01176C23.7176 3.88235 24.6353 2.96471 25.7647 2.96471H34.1647C35.2941 2.96471 36.2118 3.88235 36.2118 5.01176V6.63529H36.2823ZM14.6118 51.9529H45.4588C46.3059 51.9529 46.9412 51.3176 46.9412 50.4706C46.9412 49.6235 46.3059 48.9882 45.4588 48.9882H14.6118C13.7647 48.9882 13.1294 49.6235 13.1294 50.4706C13.1294 51.3176 13.7647 51.9529 14.6118 51.9529ZM14.6118 44.1882H45.4588C46.3059 44.1882 46.9412 43.5529 46.9412 42.7059C46.9412 41.8588 46.3059 41.2235 45.4588 41.2235H14.6118C13.7647 41.2235 13.1294 41.8588 13.1294 42.7059C13.1294 43.5529 13.7647 44.1882 14.6118 44.1882ZM14.6118 36.4941H45.4588C46.3059 36.4941 46.9412 35.8588 46.9412 35.0118C46.9412 34.1647 46.3059 33.5294 45.4588 33.5294H14.6118C13.7647 33.5294 13.1294 34.1647 13.1294 35.0118C13.1294 35.7882 13.7647 36.4941 14.6118 36.4941ZM14.6118 28.7294H45.4588C46.3059 28.7294 46.9412 28.0941 46.9412 27.2471C46.9412 26.4 46.3059 25.7647 45.4588 25.7647H14.6118C13.7647 25.7647 13.1294 26.4 13.1294 27.2471C13.1294 28.0941 13.7647 28.7294 14.6118 28.7294Z" fill="#77A03F"/>
</g>
<defs>
<clipPath id="clip0_736_253">
<rect width="60" height="60" fill="white"/>
</clipPath>
</defs>
</svg>
