<svg width="60" height="60" viewBox="0 0 60 60" fill="none" xmlns="http://www.w3.org/2000/svg">
<g clip-path="url(#clip0_736_199)">
<path d="M17.3647 35.3647H5.15295V54.353H17.3647V35.3647Z" fill="white"/>
<path d="M36.1412 21.4587H23.9294V54.3529H36.1412V21.4587Z" fill="white"/>
<path d="M54.4236 6.35303H42.7059V54.0707H54.4236V6.35303Z" fill="white"/>
<path d="M58.5882 52.9413H56.4V8.82362C56.4 6.28244 54.3529 4.16479 51.7412 4.16479H45.6C43.0588 4.16479 40.9412 6.21185 40.9412 8.82362V48.0001C40.9412 48.7766 41.5765 49.4824 42.4235 49.4824C43.2706 49.4824 43.9059 48.8471 43.9059 48.0001V8.82362C43.9059 7.90597 44.6824 7.1295 45.6 7.1295H51.7412C52.6588 7.1295 53.4353 7.90597 53.4353 8.82362V52.9413H37.6941V23.6471C37.6941 21.106 35.6471 18.9883 33.0353 18.9883H26.8941C24.3529 18.9883 22.2353 21.0354 22.2353 23.6471V48.0001C22.2353 48.7766 22.8706 49.4824 23.7176 49.4824C24.5647 49.4824 25.2 48.8471 25.2 48.0001V23.6471C25.2 22.7295 25.9765 21.953 26.8941 21.953H33.0353C33.9529 21.953 34.7294 22.7295 34.7294 23.6471V52.9413H19.0588V37.7648C19.0588 35.2236 17.0118 33.106 14.4 33.106H8.25882C5.71765 33.106 3.6 35.153 3.6 37.7648V48.0001C3.6 48.7766 4.23529 49.4824 5.08235 49.4824C5.92941 49.4824 6.56471 48.8471 6.56471 48.0001V37.7648C6.56471 36.8471 7.34118 36.0707 8.25882 36.0707H14.4C15.3176 36.0707 16.0941 36.8471 16.0941 37.7648V52.9413H1.48235C0.635294 52.9413 0 53.5766 0 54.4236C0 55.2001 0.635294 55.906 1.48235 55.906H58.5882C59.3647 55.906 60.0706 55.2707 60.0706 54.4236C60 53.5766 59.3647 52.9413 58.5882 52.9413Z" fill="#77A03F"/>
</g>
<defs>
<clipPath id="clip0_736_199">
<rect width="60" height="60" fill="white"/>
</clipPath>
</defs>
</svg>
