<svg width="60" height="60" viewBox="0 0 60 60" fill="none" xmlns="http://www.w3.org/2000/svg">
<g clip-path="url(#clip0_736_171)">
<path d="M54.3529 29.7881C54.3529 43.0587 43.5529 53.9293 30.2118 53.9293C16.8706 53.9293 6.07059 43.0587 6.07059 29.7881C6.07059 16.447 16.8706 5.64697 30.2118 5.64697C43.5529 5.64697 54.3529 16.447 54.3529 29.7881Z" fill="white"/>
<path d="M30 31.4824C30.7765 31.4824 31.4118 30.8471 31.4118 30.0706C31.4118 29.2941 30.7765 28.6588 30 28.6588C29.2235 28.6588 28.5882 29.2941 28.5882 30.0706C28.5882 30.7765 29.2235 31.4824 30 31.4824ZM58.6588 28.6588H55.2706C54.5647 15.8118 44.2588 5.50588 31.4118 4.8V1.41176C31.4118 0.635294 30.7765 0 30 0C29.2235 0 28.5882 0.635294 28.5882 1.41176V4.8C20.1176 5.29412 12.3529 10.0235 8.11765 17.3647C7.27059 18.7765 6.63529 20.2588 6.07059 21.8118C5.78824 22.5176 6.21176 23.2941 6.91765 23.5765C7.62353 23.8588 8.4 23.4353 8.68235 22.7294C9.17647 21.3176 9.74118 20.0471 10.5176 18.7765C14.3294 12.2118 21.1765 8.04706 28.6588 7.55294V14.1882C28.6588 14.9647 29.2941 15.6 30.0706 15.6C30.8471 15.6 31.4823 14.9647 31.4823 14.1882V7.55294C42.7765 8.25882 51.8824 17.2941 52.5882 28.6588H45.8824C45.1059 28.6588 44.4706 29.2941 44.4706 30.0706C44.4706 30.8471 45.1059 31.4824 45.8824 31.4824H52.5176C51.8118 42.7765 42.7765 51.8824 31.4118 52.5882V45.8824C31.4118 45.1059 30.7765 44.4706 30 44.4706C29.2235 44.4706 28.5882 45.1059 28.5882 45.8824V52.5177C17.2941 51.8118 8.18824 42.7765 7.48235 31.4118H14.1176C14.8941 31.4118 15.5294 30.7765 15.5294 30C15.5294 29.2235 14.8941 28.5882 14.1176 28.5882H1.41176C0.635294 28.5882 0 29.2235 0 30C0 30.7765 0.635294 31.4118 1.41176 31.4118H4.8C5.50588 44.2588 15.8118 54.5647 28.6588 55.2706V58.6588C28.6588 59.4353 29.2941 60.0706 30.0706 60.0706C30.8471 60.0706 31.4823 59.4353 31.4823 58.6588V55.2706C44.3294 54.5647 54.6353 44.2588 55.3412 31.4118H58.7294C59.5059 31.4118 60.1412 30.7765 60.1412 30C60 29.2235 59.4353 28.6588 58.6588 28.6588Z" fill="#77A03F"/>
</g>
<defs>
<clipPath id="clip0_736_171">
<rect width="60" height="60" fill="white"/>
</clipPath>
</defs>
</svg>
